<svg width="125" height="86" viewBox="0 0 125 86" fill="none" xmlns="http://www.w3.org/2000/svg">
<path d="M51.9124 9.35012C55.9351 5.23356 61.5286 2.67326 67.7223 2.67326C75.9594 2.67326 83.1364 7.17888 86.9548 13.8808C90.2752 12.425 93.9531 11.6092 97.8226 11.6092C112.675 11.6092 124.705 23.5447 124.705 38.2665C124.705 52.9882 112.662 64.9237 97.8226 64.9237C96.0091 64.9237 94.234 64.748 92.5228 64.4091C89.1514 70.3079 82.7405 74.2989 75.3719 74.2989C72.2942 74.2989 69.3697 73.5961 66.7773 72.3536C63.3676 80.2479 55.4115 85.7826 46.1401 85.7826C36.8686 85.7826 28.2613 79.7835 25.0942 71.3621C23.715 71.6508 22.2846 71.8014 20.816 71.8014C9.32251 71.8014 0 62.5517 0 51.1307C0 43.4749 4.18875 36.798 10.408 33.2212C9.13096 30.322 8.41581 27.1216 8.41581 23.7706C8.41581 10.6428 19.258 0 32.6416 0C40.4955 0 47.4682 3.66474 51.8996 9.35012" fill="#00A4F4"/>
<path d="M18.0837 44.4788C18.007 44.6796 18.1092 44.7173 18.1348 44.7549C18.3646 44.9181 18.6073 45.0436 18.8499 45.1816C20.127 45.8468 21.3274 46.0351 22.5789 46.0351C25.133 46.0351 26.7293 44.7047 26.7293 42.546V42.5084C26.7293 40.5129 24.9415 39.7975 23.2558 39.2704L23.0387 39.2076C21.7744 38.806 20.6761 38.4546 20.6761 37.6262V37.5886C20.6761 36.8858 21.3146 36.3712 22.3107 36.3712C23.409 36.3712 24.7244 36.7352 25.5545 37.187C25.5545 37.187 25.8099 37.3376 25.8993 37.1117C25.9504 36.9862 26.3718 35.8566 26.4228 35.7311C26.4739 35.6056 26.3845 35.5052 26.2952 35.4425C25.3374 34.8651 24.0092 34.4761 22.63 34.4761H22.3746C20.0376 34.4761 18.4029 35.8692 18.4029 37.8647V37.9024C18.4029 39.9983 20.2036 40.6886 21.9021 41.1529L22.1703 41.2408C23.3962 41.6173 24.469 41.9311 24.469 42.7845V42.8222C24.469 43.6003 23.7794 44.1776 22.6683 44.1776C22.2341 44.1776 20.8549 44.1776 19.3735 43.2489C19.1947 43.1485 19.0926 43.0732 18.9521 42.9853C18.8755 42.9351 18.6967 42.8598 18.62 43.0983L18.122 44.4788H18.0837Z" fill="white"/>
<path d="M55.528 44.4788C55.4514 44.6796 55.5535 44.7173 55.5791 44.7549C55.8089 44.9181 56.0516 45.0436 56.2942 45.1816C57.5713 45.8468 58.7717 46.0351 60.0233 46.0351C62.5774 46.0351 64.1737 44.7047 64.1737 42.546V42.5084C64.1737 40.5129 62.3858 39.7975 60.7001 39.2704L60.483 39.2076C59.2187 38.806 58.1204 38.4546 58.1204 37.6262V37.5886C58.1204 36.8858 58.759 36.3712 59.7551 36.3712C60.8533 36.3712 62.1687 36.7352 62.9988 37.187C62.9988 37.187 63.2542 37.3376 63.3436 37.1117C63.3947 36.9862 63.8161 35.8566 63.8672 35.7311C63.9183 35.6056 63.8289 35.5052 63.7395 35.4425C62.7817 34.8651 61.4535 34.4761 60.0743 34.4761H59.8189C57.4819 34.4761 55.8473 35.8692 55.8473 37.8647V37.9024C55.8473 39.9983 57.6479 40.6886 59.3464 41.1529L59.6146 41.2408C60.8406 41.6173 61.9133 41.9311 61.9133 42.7845V42.8222C61.9133 43.6003 61.2237 44.1776 60.1126 44.1776C59.6784 44.1776 58.2992 44.1776 56.8178 43.2489C56.639 43.1485 56.5369 43.0732 56.3964 42.9853C56.3453 42.9602 56.1282 42.8724 56.0644 43.0983L55.5536 44.4788H55.528Z" fill="white"/>
<path d="M83.2275 38.0028C83.0232 37.3 82.6911 36.6976 82.2569 36.183C81.8227 35.6684 81.2736 35.2543 80.6223 34.953C79.971 34.6518 79.2048 34.5012 78.3364 34.5012C77.468 34.5012 76.7017 34.6518 76.0504 34.953C75.3991 35.2543 74.85 35.6684 74.4158 36.183C73.9816 36.6976 73.6496 37.3125 73.4452 38.0028C73.2409 38.6931 73.126 39.4587 73.126 40.2619C73.126 41.0651 73.2281 41.8307 73.4452 42.521C73.6496 43.2113 73.9816 43.8262 74.4158 44.3408C74.85 44.8554 75.3991 45.2695 76.0504 45.5582C76.7017 45.8469 77.468 45.9975 78.3364 45.9975C79.2048 45.9975 79.971 45.8469 80.6223 45.5582C81.2736 45.2695 81.8227 44.8554 82.2569 44.3408C82.6911 43.8262 83.0232 43.2113 83.2275 42.521C83.4318 41.8307 83.5468 41.0651 83.5468 40.2619C83.5468 39.4587 83.4446 38.7056 83.2275 38.0028ZM81.0948 40.2619C81.0948 41.4793 80.8649 42.4331 80.4052 43.1109C79.9582 43.776 79.2686 44.1024 78.3236 44.1024C77.3786 44.1024 76.7017 43.776 76.2548 43.1109C75.8078 42.4331 75.5779 41.4793 75.5779 40.2619C75.5779 39.0445 75.8078 38.0907 76.2548 37.4255C76.7017 36.7603 77.3786 36.434 78.3236 36.434C79.2686 36.434 79.9455 36.7603 80.4052 37.4255C80.8649 38.0907 81.0948 39.0571 81.0948 40.2619Z" fill="white"/>
<path fill-rule="evenodd" clip-rule="evenodd" d="M100.761 43.7761C100.697 43.5753 100.493 43.6506 100.493 43.6506C100.187 43.7636 99.8546 43.8765 99.497 43.9267C99.1394 43.9769 98.7435 44.0146 98.3221 44.0146C97.2877 44.0146 96.4704 43.7134 95.8829 43.111C95.2955 42.5085 94.9635 41.5421 94.9635 40.2369C94.9635 39.0446 95.2572 38.1535 95.7808 37.4758C96.3044 36.7981 97.0961 36.4466 98.1561 36.4466C99.0373 36.4466 99.7141 36.547 100.416 36.7604C100.416 36.7604 100.583 36.8357 100.659 36.6224C100.851 36.1078 100.991 35.7438 101.183 35.1916C101.234 35.0284 101.106 34.9657 101.055 34.9406C100.774 34.8402 100.123 34.6645 99.6247 34.5892C99.165 34.5264 98.6286 34.4888 98.0284 34.4888C97.1345 34.4888 96.3299 34.6394 95.6531 34.9406C94.9635 35.2418 94.3888 35.656 93.929 36.158C93.4693 36.6726 93.1245 37.2875 92.8946 37.9778C92.6647 38.6681 92.5498 39.4337 92.5498 40.2369C92.5498 41.9814 93.0223 43.3871 93.9673 44.4162C94.9124 45.4579 96.3299 45.9725 98.1816 45.9725C99.2799 45.9725 100.404 45.7591 101.208 45.4454C101.208 45.4454 101.362 45.37 101.298 45.1943L100.774 43.7761H100.761Z" fill="white"/>
<path fill-rule="evenodd" clip-rule="evenodd" d="M111.692 37.6012C111.513 36.9235 111.066 36.2457 110.772 35.9445C110.313 35.4551 109.853 35.1036 109.406 34.9154C108.819 34.6644 108.116 34.5012 107.337 34.5012C106.43 34.5012 105.613 34.6518 104.949 34.953C104.285 35.2543 103.723 35.681 103.289 36.1955C102.855 36.7101 102.523 37.3376 102.306 38.0405C102.088 38.7433 101.986 39.4963 101.986 40.3121C101.986 41.1279 102.101 41.8935 102.318 42.5837C102.535 43.274 102.893 43.889 103.366 44.391C103.838 44.893 104.451 45.2946 105.179 45.5708C105.907 45.8469 106.788 45.9849 107.81 45.9849C109.891 45.9849 111.002 45.5206 111.449 45.2695C111.526 45.2193 111.603 45.144 111.513 44.9307L111.041 43.6254C110.964 43.4372 110.772 43.4999 110.772 43.4999C110.249 43.6882 109.521 44.027 107.81 44.027C106.686 44.027 105.856 43.7007 105.332 43.1862C104.796 42.6716 104.54 41.906 104.489 40.8267H111.717C111.717 40.8267 111.909 40.8267 111.935 40.651C111.935 40.5757 112.177 39.1951 111.717 37.5886M104.528 39.0696C104.63 38.3919 104.821 37.8271 105.115 37.4004C105.562 36.7352 106.226 36.3712 107.184 36.3712C108.142 36.3712 108.755 36.7352 109.214 37.4004C109.508 37.8397 109.649 38.4295 109.7 39.0822H104.54L104.528 39.0696Z" fill="white"/>
<path fill-rule="evenodd" clip-rule="evenodd" d="M53.8013 37.6012C53.6225 36.9235 53.1756 36.2457 52.8818 35.9445C52.4221 35.4551 51.9624 35.1036 51.5154 34.9154C50.928 34.6644 50.2256 34.5012 49.4466 34.5012C48.5398 34.5012 47.7225 34.6518 47.0585 34.953C46.3944 35.2543 45.8325 35.681 45.3983 36.1955C44.9641 36.7101 44.6321 37.3376 44.415 38.0405C44.1979 38.7433 44.0957 39.4963 44.0957 40.3121C44.0957 41.1279 44.2106 41.8935 44.4277 42.5837C44.6448 43.274 45.0024 43.889 45.4749 44.391C45.9474 44.893 46.5604 45.2946 47.2883 45.5708C48.0163 45.8469 48.8974 45.9849 49.9191 45.9849C52.0007 45.9849 53.1117 45.5206 53.5587 45.2695C53.6353 45.2193 53.7119 45.144 53.6225 44.9307L53.15 43.6254C53.0734 43.4372 52.8818 43.4999 52.8818 43.4999C52.3582 43.6882 51.6303 44.027 49.9191 44.027C48.7953 44.027 47.9652 43.7007 47.4416 43.1862C46.9052 42.6716 46.6498 41.906 46.5987 40.8267H53.8269C53.8269 40.8267 54.0184 40.8267 54.044 40.651C54.044 40.5757 54.2866 39.1951 53.8269 37.5886M46.637 39.0696C46.7392 38.3919 46.9308 37.8271 47.2245 37.4004C47.6715 36.7352 48.3483 36.3712 49.2933 36.3712C50.2383 36.3712 50.8641 36.7352 51.3238 37.4004C51.6176 37.8397 51.7453 38.4295 51.7964 39.0822H46.637V39.0696Z" fill="white"/>
<path d="M33.8684 38.7558C33.5746 38.7307 33.1915 38.7181 32.7446 38.7181C32.1188 38.7181 31.5314 38.7934 30.9695 38.9441C30.4076 39.0947 29.8967 39.3206 29.4625 39.6343C29.0283 39.9481 28.6708 40.3372 28.4153 40.8015C28.1599 41.2659 28.0322 41.8181 28.0322 42.4331C28.0322 43.0481 28.1472 43.6128 28.3643 44.0521C28.5814 44.5039 28.9006 44.8804 29.3093 45.1691C29.7052 45.4578 30.2032 45.6711 30.7779 45.7966C31.3398 45.9221 31.9911 45.9849 32.6935 45.9849C33.4342 45.9849 34.1749 45.9221 34.89 45.8092C35.6052 45.6962 36.4736 45.5205 36.7162 45.4578C36.9589 45.4076 37.227 45.3323 37.227 45.3323C37.4058 45.2821 37.3931 45.0938 37.3931 45.0938V38.5926C37.3931 37.1619 36.9972 36.1076 36.2437 35.455C35.4902 34.8024 34.3664 34.4761 32.9234 34.4761C32.387 34.4761 31.5058 34.5514 30.9822 34.6518C30.9822 34.6518 29.3987 34.953 28.7601 35.455C28.7601 35.455 28.6197 35.5429 28.6963 35.7437L29.2071 37.0991C29.271 37.2748 29.4498 37.2121 29.4498 37.2121C29.4498 37.2121 29.5008 37.187 29.5647 37.1493C30.9567 36.4089 32.719 36.434 32.719 36.434C33.498 36.434 34.0982 36.5846 34.5069 36.8983C34.9028 37.1995 35.0944 37.6388 35.0944 38.5926V38.8938C34.4686 38.806 33.9067 38.7558 33.9067 38.7558M31.0333 43.7509C30.7523 43.525 30.714 43.4748 30.6119 43.3242C30.4714 43.1108 30.3948 42.7971 30.3948 42.3954C30.3948 41.7679 30.6119 41.3161 31.0461 41.0149C31.0461 41.0149 31.6718 40.4878 33.1405 40.5003C34.1749 40.5129 35.1071 40.6635 35.1071 40.6635V43.8889C35.1071 43.8889 34.1876 44.0772 33.1532 44.14C31.6846 44.2278 31.0333 43.7258 31.0333 43.7258" fill="white"/>
<path fill-rule="evenodd" clip-rule="evenodd" d="M92.1662 35.0912C92.2173 34.928 92.1024 34.8527 92.0641 34.8402C91.9364 34.79 91.3234 34.6645 90.8509 34.6394C89.9442 34.5892 89.4333 34.7398 88.9864 34.9406C88.5394 35.1414 88.0413 35.4551 87.7604 35.8317V34.9657C87.7604 34.8527 87.671 34.7523 87.5561 34.7523H85.7043C85.5894 34.7523 85.5 34.8527 85.5 34.9657V45.5583C85.5 45.6713 85.6022 45.7717 85.7171 45.7717H87.6199C87.7349 45.7717 87.837 45.6713 87.837 45.5583V40.262C87.837 39.5466 87.9136 38.8438 88.0796 38.392C88.2329 37.9527 88.45 37.6013 88.7182 37.3503C88.9864 37.0993 89.2801 36.9236 89.6121 36.8232C89.9442 36.7228 90.3145 36.6851 90.5827 36.6851C90.9658 36.6851 91.3745 36.7855 91.3745 36.7855C91.5149 36.7981 91.5916 36.7102 91.6426 36.5972C91.7703 36.2709 92.1152 35.3045 92.179 35.1037" fill="white"/>
<path fill-rule="evenodd" clip-rule="evenodd" d="M74.339 30.1838C74.1091 30.1085 73.9048 30.0708 73.6238 30.0206C73.3429 29.9704 73.0108 29.9453 72.6405 29.9453C71.3379 29.9453 70.3035 30.3093 69.5755 31.0247C68.8604 31.74 68.3623 32.8194 68.1197 34.2501L68.0303 34.7271H66.3957C66.3957 34.7271 66.1913 34.7271 66.153 34.9404L65.8848 36.4214C65.8593 36.5594 65.9231 36.6473 66.1147 36.6473H67.711L66.0892 45.533C65.9615 46.2484 65.821 46.8383 65.655 47.2775C65.5017 47.7168 65.3357 48.0431 65.1569 48.2941C64.9781 48.52 64.7993 48.6958 64.4929 48.7962C64.2374 48.8715 63.9565 48.9091 63.6372 48.9091C63.4584 48.9091 63.2286 48.884 63.0625 48.8464C62.8965 48.8087 62.7944 48.7711 62.6667 48.7209C62.6667 48.7209 62.4751 48.6455 62.3985 48.8338C62.3346 48.9844 61.9132 50.1391 61.8621 50.2771C61.811 50.4152 61.8877 50.5281 61.977 50.5658C62.1941 50.6411 62.3474 50.6913 62.6411 50.754C63.0498 50.8419 63.3818 50.8544 63.7011 50.8544C64.3651 50.8544 64.9781 50.7666 65.4762 50.5783C65.987 50.4026 66.4212 50.0889 66.8171 49.6621C67.2385 49.2103 67.5067 48.7209 67.7493 48.0682C68.0047 47.4156 68.2091 46.6124 68.3879 45.6836L70.0097 36.6347H72.3851C72.3851 36.6347 72.5894 36.6347 72.6277 36.4214L72.8959 34.9404C72.9086 34.8024 72.8576 34.7145 72.666 34.7145H70.3545C70.3545 34.7145 70.4695 33.8611 70.7377 33.108C70.8526 32.7817 71.0697 32.5307 71.2485 32.355C71.4273 32.1793 71.6316 32.0538 71.8487 31.9785C72.0786 31.9032 72.334 31.8655 72.6277 31.8655C72.8448 31.8655 73.0619 31.8906 73.2151 31.9283C73.445 31.9785 73.5216 32.0036 73.5855 32.0161C73.8154 32.0914 73.8537 32.0161 73.9048 31.9032L74.4539 30.4097C74.505 30.2465 74.3773 30.1838 74.3262 30.1587" fill="white"/>
<path fill-rule="evenodd" clip-rule="evenodd" d="M42.0537 45.5457C42.0537 45.6587 41.9643 45.7591 41.8494 45.7591H39.9338C39.8189 45.7591 39.7295 45.6587 39.7295 45.5457V30.3847C39.7295 30.2718 39.8189 30.1714 39.9338 30.1714H41.8494C41.9643 30.1714 42.0537 30.2718 42.0537 30.3847V45.5457Z" fill="white"/>
</svg>
