<svg width="88" height="88" viewBox="0 0 88 88" fill="none" xmlns="http://www.w3.org/2000/svg">
<path fill-rule="evenodd" clip-rule="evenodd" d="M44 87C67.7482 87 87 67.7482 87 44C87 20.2518 67.7482 1 44 1C20.2518 1 1 20.2518 1 44C1 67.7482 20.2518 87 44 87ZM44 88C68.3005 88 88 68.3005 88 44C88 19.6995 68.3005 0 44 0C19.6995 0 0 19.6995 0 44C0 68.3005 19.6995 88 44 88Z" fill="white"/>
<path d="M57.3455 39.3652V50.0002H56.0705V42.3802H53.3105V41.3602C54.7655 41.3602 56.0855 40.9852 56.3705 39.3652H57.3455Z" fill="white"/>
<path d="M45.6053 43.1302H44.3303C44.2103 40.9702 45.5003 39.3652 47.7503 39.3652C49.5953 39.3652 51.0803 40.4452 51.0803 42.4252C51.0803 44.3002 49.8203 45.2302 48.5003 46.0702C47.1803 46.8652 45.7553 47.5702 45.5153 48.8752H50.9753V50.0002H44.0303C44.2253 47.4952 45.5153 46.5502 47.0153 45.6502C48.8153 44.5252 49.7303 43.8952 49.7303 42.4102C49.7303 41.2552 48.8003 40.4902 47.6753 40.4902C46.1903 40.4902 45.5603 41.8552 45.6053 43.1302Z" fill="white"/>
<path d="M37.3148 44.7652C37.3148 46.3552 37.3298 49.0552 39.5048 49.0552C41.6798 49.0552 41.6948 46.3552 41.6948 44.7652C41.6948 43.1902 41.6798 40.4902 39.5048 40.4902C37.3298 40.4902 37.3148 43.1902 37.3148 44.7652ZM35.9648 44.7802C35.9648 42.4402 36.1748 39.3652 39.5048 39.3652C42.8348 39.3652 43.0448 42.4402 43.0448 44.7802C43.0448 47.1202 42.8348 50.1802 39.5048 50.1802C36.1748 50.1802 35.9648 47.1202 35.9648 44.7802Z" fill="white"/>
<path d="M28.9354 43.1302H27.6604C27.5404 40.9702 28.8304 39.3652 31.0804 39.3652C32.9254 39.3652 34.4104 40.4452 34.4104 42.4252C34.4104 44.3002 33.1504 45.2302 31.8304 46.0702C30.5104 46.8652 29.0854 47.5702 28.8454 48.8752H34.3054V50.0002H27.3604C27.5554 47.4952 28.8454 46.5502 30.3454 45.6502C32.1454 44.5252 33.0604 43.8952 33.0604 42.4102C33.0604 41.2552 32.1304 40.4902 31.0054 40.4902C29.5204 40.4902 28.8904 41.8552 28.9354 43.1302Z" fill="white"/>
</svg>
