<svg width="125" height="86" viewBox="0 0 125 86" fill="none" xmlns="http://www.w3.org/2000/svg">
<path d="M51.9949 9.36498C56.024 5.24187 61.6264 2.6775 67.8299 2.6775C76.0801 2.6775 83.2685 7.19029 87.093 13.9029C90.4186 12.4447 94.1024 11.6277 97.978 11.6277C112.854 11.6277 124.903 23.5821 124.903 38.3273C124.903 53.0724 112.841 65.0269 97.978 65.0269C96.1617 65.0269 94.3838 64.8509 92.6698 64.5115C89.293 70.4196 82.872 74.417 75.4917 74.417C72.4091 74.417 69.48 73.713 66.8834 72.4686C63.4683 80.3754 55.4995 85.9189 46.2134 85.9189C36.9272 85.9189 28.3062 79.9103 25.134 71.4755C23.7526 71.7646 22.32 71.9155 20.8491 71.9155C9.33732 71.9155 0 62.6511 0 51.212C0 43.544 4.19541 36.8565 10.4246 33.2739C9.14547 30.3702 8.42918 27.1647 8.42918 23.8084C8.42918 10.6597 19.2886 0 32.6935 0C40.5598 0 47.5436 3.67057 51.9821 9.36498" fill="#00A4F4"/>
<path d="M18.112 44.5499C18.0353 44.751 18.1376 44.7887 18.1632 44.8264C18.3934 44.9899 18.6365 45.1156 18.8795 45.2538C20.1586 45.9201 21.3609 46.1086 22.6144 46.1086C25.1726 46.1086 26.7714 44.7762 26.7714 42.614V42.5763C26.7714 40.5776 24.9807 39.8611 23.2923 39.3332L23.0749 39.2703C21.8086 38.8681 20.7086 38.5161 20.7086 37.6864V37.6487C20.7086 36.9448 21.3481 36.4294 22.3458 36.4294C23.4458 36.4294 24.7633 36.7939 25.5947 37.2465C25.5947 37.2465 25.8505 37.3973 25.9401 37.171C25.9912 37.0453 26.4133 35.914 26.4645 35.7883C26.5156 35.6626 26.4261 35.562 26.3366 35.4992C25.3772 34.9209 24.047 34.5312 22.6656 34.5312H22.4098C20.069 34.5312 18.4318 35.9266 18.4318 37.9253V37.963C18.4318 40.0622 20.2353 40.7536 21.9365 41.2187L22.2051 41.3067C23.433 41.6838 24.5075 41.9981 24.5075 42.8529V42.8906C24.5075 43.67 23.8168 44.2482 22.704 44.2482C22.2691 44.2482 20.8877 44.2482 19.4039 43.318C19.2248 43.2174 19.1225 43.142 18.9818 43.054C18.9051 43.0037 18.726 42.9283 18.6492 43.1671L18.1504 44.5499H18.112Z" fill="white"/>
<path d="M55.615 44.5499C55.5382 44.751 55.6405 44.7887 55.6661 44.8264C55.8964 44.9899 56.1394 45.1156 56.3824 45.2538C57.6615 45.9201 58.8638 46.1086 60.1174 46.1086C62.6755 46.1086 64.2744 44.7762 64.2744 42.614V42.5763C64.2744 40.5776 62.4837 39.8611 60.7953 39.3332L60.5778 39.2703C59.3115 38.8681 58.2115 38.5161 58.2115 37.6864V37.6487C58.2115 36.9448 58.851 36.4294 59.8487 36.4294C60.9487 36.4294 62.2662 36.7939 63.0976 37.2465C63.0976 37.2465 63.3534 37.3973 63.443 37.171C63.4941 37.0453 63.9162 35.914 63.9674 35.7883C64.0186 35.6626 63.929 35.562 63.8395 35.4992C62.8802 34.9209 61.5499 34.5312 60.1685 34.5312H59.9127C57.572 34.5312 55.9347 35.9266 55.9347 37.9253V37.963C55.9347 40.0622 57.7382 40.7536 59.4394 41.2187L59.708 41.3067C60.936 41.6838 62.0104 41.9981 62.0104 42.8529V42.8906C62.0104 43.67 61.3197 44.2482 60.2069 44.2482C59.772 44.2482 58.3906 44.2482 56.9068 43.318C56.7278 43.2174 56.6254 43.142 56.4847 43.054C56.4336 43.0289 56.2161 42.9409 56.1522 43.1671L55.6406 44.5499H55.615Z" fill="white"/>
<path d="M83.3588 38.0638C83.1541 37.3598 82.8216 36.7565 82.3867 36.2411C81.9518 35.7257 81.4018 35.3109 80.7494 35.0092C80.0971 34.7075 79.3297 34.5566 78.4599 34.5566C77.5901 34.5566 76.8226 34.7075 76.1703 35.0092C75.518 35.3109 74.968 35.7257 74.5331 36.2411C74.0982 36.7565 73.7656 37.3724 73.561 38.0638C73.3563 38.7552 73.2412 39.522 73.2412 40.3265C73.2412 41.131 73.3435 41.8978 73.561 42.5891C73.7656 43.2805 74.0982 43.8965 74.5331 44.4119C74.968 44.9273 75.518 45.3421 76.1703 45.6312C76.8226 45.9203 77.5901 46.0712 78.4599 46.0712C79.3297 46.0712 80.0971 45.9203 80.7494 45.6312C81.4018 45.3421 81.9518 44.9273 82.3867 44.4119C82.8216 43.8965 83.1541 43.2805 83.3588 42.5891C83.5634 41.8978 83.6786 41.131 83.6786 40.3265C83.6786 39.522 83.5762 38.7677 83.3588 38.0638ZM81.2227 40.3265C81.2227 41.5458 80.9925 42.5012 80.532 43.18C80.0843 43.8462 79.3936 44.173 78.4471 44.173C77.5006 44.173 76.8226 43.8462 76.375 43.18C75.9273 42.5012 75.6971 41.5458 75.6971 40.3265C75.6971 39.1071 75.9273 38.1518 76.375 37.4856C76.8226 36.8193 77.5006 36.4925 78.4471 36.4925C79.3936 36.4925 80.0715 36.8193 80.532 37.4856C80.9925 38.1518 81.2227 39.1197 81.2227 40.3265Z" fill="white"/>
<path fill-rule="evenodd" clip-rule="evenodd" d="M100.921 43.8461C100.857 43.6449 100.652 43.7204 100.652 43.7204C100.345 43.8335 100.013 43.9466 99.6545 43.9969C99.2964 44.0472 98.8999 44.0849 98.4778 44.0849C97.4417 44.0849 96.6231 43.7832 96.0347 43.1798C95.4463 42.5765 95.1138 41.6085 95.1138 40.3012C95.1138 39.107 95.408 38.2145 95.9324 37.5357C96.4568 36.8569 97.2499 36.5049 98.3115 36.5049C99.1941 36.5049 99.872 36.6055 100.575 36.8192C100.575 36.8192 100.742 36.8946 100.818 36.6809C101.01 36.1655 101.151 35.801 101.343 35.2479C101.394 35.0845 101.266 35.0216 101.215 34.9965C100.934 34.8959 100.281 34.7199 99.7824 34.6445C99.322 34.5817 98.7848 34.5439 98.1836 34.5439C97.2882 34.5439 96.4824 34.6948 95.8045 34.9965C95.1138 35.2982 94.5382 35.713 94.0777 36.2158C93.6172 36.7312 93.2719 37.3472 93.0416 38.0385C92.8114 38.7299 92.6963 39.4967 92.6963 40.3012C92.6963 42.0485 93.1696 43.4564 94.1161 44.4872C95.0626 45.5305 96.4824 46.0459 98.3371 46.0459C99.4371 46.0459 100.563 45.8322 101.369 45.5179C101.369 45.5179 101.522 45.4425 101.458 45.2665L100.934 43.8461H100.921Z" fill="white"/>
<path fill-rule="evenodd" clip-rule="evenodd" d="M111.869 37.6615C111.69 36.9827 111.243 36.3039 110.949 36.0022C110.488 35.512 110.028 35.16 109.58 34.9715C108.992 34.7201 108.288 34.5566 107.508 34.5566C106.6 34.5566 105.781 34.7075 105.116 35.0092C104.451 35.3109 103.888 35.7383 103.453 36.2537C103.018 36.769 102.686 37.3976 102.468 38.1015C102.251 38.8054 102.148 39.5597 102.148 40.3768C102.148 41.1938 102.264 41.9606 102.481 42.652C102.698 43.3434 103.057 43.9593 103.53 44.4621C104.003 44.965 104.617 45.3672 105.346 45.6438C106.075 45.9203 106.958 46.0586 107.981 46.0586C110.066 46.0586 111.179 45.5935 111.626 45.3421C111.703 45.2918 111.78 45.2164 111.69 45.0027L111.217 43.6953C111.14 43.5068 110.949 43.5696 110.949 43.5696C110.424 43.7582 109.695 44.0976 107.981 44.0976C106.855 44.0976 106.024 43.7708 105.5 43.2554C104.962 42.74 104.707 41.9732 104.655 40.8921H111.895C111.895 40.8921 112.087 40.8921 112.113 40.7162C112.113 40.6407 112.356 39.258 111.895 37.649M104.694 39.1323C104.796 38.4535 104.988 37.8878 105.282 37.4604C105.73 36.7942 106.395 36.4296 107.354 36.4296C108.314 36.4296 108.928 36.7942 109.388 37.4604C109.682 37.9004 109.823 38.4912 109.874 39.1448H104.707L104.694 39.1323Z" fill="white"/>
<path fill-rule="evenodd" clip-rule="evenodd" d="M53.888 37.6615C53.709 36.9827 53.2613 36.3039 52.9671 36.0022C52.5066 35.512 52.0462 35.16 51.5985 34.9715C51.0101 34.7201 50.3066 34.5566 49.5263 34.5566C48.6182 34.5566 47.7996 34.7075 47.1345 35.0092C46.4693 35.3109 45.9065 35.7383 45.4716 36.2537C45.0368 36.769 44.7042 37.3976 44.4868 38.1015C44.2693 38.8054 44.167 39.5597 44.167 40.3768C44.167 41.1938 44.2821 41.9606 44.4995 42.652C44.717 43.3434 45.0751 43.9593 45.5484 44.4621C46.0217 44.965 46.6356 45.3672 47.3647 45.6438C48.0938 45.9203 48.9764 46.0586 49.9996 46.0586C52.0845 46.0586 53.1973 45.5935 53.645 45.3421C53.7218 45.2918 53.7985 45.2164 53.709 45.0027L53.2357 43.6953C53.159 43.5068 52.9671 43.5696 52.9671 43.5696C52.4427 43.7582 51.7136 44.0976 49.9996 44.0976C48.874 44.0976 48.0426 43.7708 47.5182 43.2554C46.981 42.74 46.7252 41.9732 46.674 40.8921H53.9136C53.9136 40.8921 54.1055 40.8921 54.1311 40.7162C54.1311 40.6407 54.3741 39.258 53.9136 37.649M46.7124 39.1323C46.8147 38.4535 47.0066 37.8878 47.3007 37.4604C47.7484 36.7942 48.4263 36.4296 49.3729 36.4296C50.3194 36.4296 50.9461 36.7942 51.4066 37.4604C51.7008 37.9004 51.8287 38.4912 51.8799 39.1448H46.7124V39.1323Z" fill="white"/>
<path d="M33.9216 38.8178C33.6274 38.7926 33.2437 38.7801 32.796 38.7801C32.1693 38.7801 31.5809 38.8555 31.0181 39.0063C30.4553 39.1572 29.9436 39.3834 29.5087 39.6977C29.0739 40.012 28.7157 40.4016 28.4599 40.8668C28.2041 41.3319 28.0762 41.885 28.0762 42.5009C28.0762 43.1169 28.1913 43.6825 28.4087 44.1225C28.6262 44.575 28.946 44.9521 29.3553 45.2413C29.7518 45.5304 30.2506 45.7441 30.8262 45.8698C31.389 45.9955 32.0413 46.0583 32.7448 46.0583C33.4867 46.0583 34.2286 45.9955 34.9449 45.8824C35.6611 45.7692 36.5309 45.5932 36.774 45.5304C37.017 45.4801 37.2856 45.4047 37.2856 45.4047C37.4647 45.3544 37.4519 45.1658 37.4519 45.1658V38.6544C37.4519 37.2213 37.0553 36.1654 36.3007 35.5117C35.546 34.8581 34.4204 34.5312 32.9751 34.5312C32.4379 34.5312 31.5553 34.6067 31.0309 34.7072C31.0309 34.7072 29.4448 35.0089 28.8052 35.5117C28.8052 35.5117 28.6645 35.5997 28.7413 35.8009L29.2529 37.1585C29.3169 37.3345 29.496 37.2716 29.496 37.2716C29.496 37.2716 29.5471 37.2465 29.6111 37.2088C31.0053 36.4671 32.7704 36.4922 32.7704 36.4922C33.5507 36.4922 34.1518 36.6431 34.5611 36.9573C34.9576 37.259 35.1495 37.699 35.1495 38.6544V38.956C34.5228 38.8681 33.96 38.8178 33.96 38.8178M31.082 43.8208C30.8006 43.5945 30.7622 43.5443 30.6599 43.3934C30.5192 43.1797 30.4425 42.8655 30.4425 42.4632C30.4425 41.8347 30.6599 41.3821 31.0948 41.0804C31.0948 41.0804 31.7216 40.5525 33.1925 40.5651C34.2286 40.5776 35.1623 40.7285 35.1623 40.7285V43.9591C35.1623 43.9591 34.2414 44.1476 33.2053 44.2105C31.7344 44.2985 31.082 43.7957 31.082 43.7957" fill="white"/>
<path fill-rule="evenodd" clip-rule="evenodd" d="M92.3126 35.1468C92.3637 34.9834 92.2486 34.908 92.2102 34.8954C92.0823 34.8452 91.4684 34.7195 90.9951 34.6943C90.087 34.644 89.5753 34.7949 89.1276 34.996C88.68 35.1971 88.1811 35.5114 87.8997 35.8885V35.0211C87.8997 34.908 87.8102 34.8074 87.6951 34.8074H85.8404C85.7253 34.8074 85.6357 34.908 85.6357 35.0211V45.6306C85.6357 45.7437 85.7381 45.8443 85.8532 45.8443H87.759C87.8741 45.8443 87.9765 45.7437 87.9765 45.6306V40.3259C87.9765 39.6094 88.0532 38.9054 88.2195 38.4529C88.373 38.0129 88.5904 37.6609 88.859 37.4095C89.1276 37.1581 89.4218 36.9821 89.7544 36.8816C90.087 36.781 90.4579 36.7433 90.7265 36.7433C91.1102 36.7433 91.5195 36.8439 91.5195 36.8439C91.6602 36.8564 91.737 36.7684 91.7881 36.6553C91.9161 36.3285 92.2614 35.3605 92.3254 35.1594" fill="white"/>
<path fill-rule="evenodd" clip-rule="evenodd" d="M74.4565 30.232C74.2262 30.1566 74.0216 30.1189 73.7402 30.0686C73.4588 30.0183 73.1262 29.9932 72.7553 29.9932C71.4506 29.9932 70.4146 30.3577 69.6855 31.0742C68.9692 31.7907 68.4703 32.8718 68.2273 34.3048L68.1378 34.7825H66.5005C66.5005 34.7825 66.2959 34.7825 66.2575 34.9962L65.9889 36.4795C65.9633 36.6178 66.0273 36.7058 66.2191 36.7058H67.818L66.1936 45.6057C66.0657 46.3222 65.9249 46.913 65.7587 47.3529C65.6052 47.7929 65.4389 48.1197 65.2598 48.3711C65.0808 48.5974 64.9017 48.7734 64.5947 48.874C64.3389 48.9494 64.0575 48.9871 63.7377 48.9871C63.5586 48.9871 63.3284 48.962 63.1621 48.9242C62.9958 48.8865 62.8935 48.8488 62.7656 48.7985C62.7656 48.7985 62.5738 48.7231 62.497 48.9117C62.4331 49.0625 62.0109 50.219 61.9598 50.3573C61.9086 50.4956 61.9854 50.6087 62.0749 50.6464C62.2924 50.7218 62.4458 50.7721 62.74 50.835C63.1493 50.9229 63.4819 50.9355 63.8017 50.9355C64.4668 50.9355 65.0808 50.8475 65.5796 50.659C66.0912 50.483 66.5261 50.1687 66.9226 49.7413C67.3447 49.2888 67.6133 48.7985 67.8564 48.1449C68.1122 47.4912 68.3168 46.6867 68.4959 45.7565L70.1204 36.6932H72.4995C72.4995 36.6932 72.7041 36.6932 72.7425 36.4795L73.0111 34.9962C73.0239 34.8579 72.9727 34.7699 72.7809 34.7699H70.4657C70.4657 34.7699 70.5808 33.9151 70.8494 33.1609C70.9646 32.8341 71.182 32.5827 71.3611 32.4067C71.5401 32.2307 71.7448 32.105 71.9622 32.0296C72.1925 31.9542 72.4483 31.9164 72.7425 31.9164C72.9599 31.9164 73.1774 31.9416 73.3309 31.9793C73.5611 32.0296 73.6378 32.0547 73.7018 32.0673C73.932 32.1427 73.9704 32.0673 74.0216 31.9542L74.5716 30.4583C74.6227 30.2949 74.4948 30.232 74.4437 30.2069" fill="white"/>
<path fill-rule="evenodd" clip-rule="evenodd" d="M42.1209 45.6185C42.1209 45.7316 42.0314 45.8322 41.9162 45.8322H39.9976C39.8825 45.8322 39.793 45.7316 39.793 45.6185V30.4334C39.793 30.3203 39.8825 30.2197 39.9976 30.2197H41.9162C42.0314 30.2197 42.1209 30.3203 42.1209 30.4334V45.6185Z" fill="white"/>
</svg>
