<svg width="89" height="88" viewBox="0 0 89 88" fill="none" xmlns="http://www.w3.org/2000/svg">
<path fill-rule="evenodd" clip-rule="evenodd" d="M43.9753 9.45312L41.916 41.3318L43.7579 42.3751L43.9753 9.45312Z" fill="white"/>
<path fill-rule="evenodd" clip-rule="evenodd" d="M47.173 42.1484L45.1904 43.2546L71.9489 58.842L47.173 42.1484Z" fill="white"/>
<path fill-rule="evenodd" clip-rule="evenodd" d="M43.1692 43.2296L41.5447 42.2617L33.333 48.9366L43.1692 43.2296Z" fill="white"/>
<path fill-rule="evenodd" clip-rule="evenodd" d="M44.2692 0C19.813 0 0 19.4716 0 43.5063C0 67.541 19.813 87.0126 44.2692 87.0126C68.7253 87.0126 88.5384 67.541 88.5384 43.5063C88.5384 19.4716 68.7125 0 44.2692 0ZM44.2692 84.687C34.1516 84.687 24.6864 81.3684 17.6386 75.2843C10.7827 69.3637 5.44891 59.9484 4.13145 49.9423C7.25242 68.9614 24.034 83.4928 44.2692 83.4928C66.7299 83.4928 84.9313 65.6051 84.9313 43.5314C84.9313 34.3801 81.4522 25.4049 76.1824 18.6797C81.529 22.7274 86.1337 34.2544 86.1337 43.5314C86.1337 66.2462 67.3951 84.6745 44.2692 84.6745V84.687ZM40.4191 40.4014L44.0006 4.3368H44.2564H44.3459L44.7041 42.2869L50.8693 38.6667L44.6785 4.3368C66.4997 4.5505 84.1383 21.9983 84.1383 43.5063C84.1383 50.42 82.322 56.9064 79.1243 62.5379L51.4576 39.7854L48.8355 41.2436L78.9324 62.8522L78.7022 63.2419L44.8576 44.1097V50.86L78.4719 63.6315C71.5009 75.0329 58.7996 82.6758 44.2692 82.6758C29.7388 82.6758 17.063 75.0581 10.092 63.6693L43.6808 50.7971V44.0468L9.7978 63.179L9.58036 62.8019L39.5749 41.2436L36.9528 39.7854L9.35012 62.4122C6.10124 56.6173 4.40006 50.1183 4.40006 43.5063C4.41285 22.1743 21.7573 4.82705 43.3482 4.3368L37.9505 38.9432L40.4319 40.4014H40.4191ZM44.2564 2.3381C21.1433 2.3381 2.40468 20.7538 2.40468 43.4811C2.40468 52.7078 5.80705 61.4317 11.0129 68.974C12.7781 72.2172 14.6839 74.2159 17.2293 76.8682C7.25242 69.0368 0.805824 56.9944 0.805824 43.4686C0.805824 19.8864 20.2607 0.754226 44.2692 0.754226C68.2776 0.754226 88.1035 20.7161 87.3872 43.4686C86.786 21.2692 66.9985 2.3381 44.2692 2.3381H44.2564Z" fill="white"/>
</svg>
