<?xml version="1.0" encoding="UTF-8"?><svg id="Layer_1" xmlns="http://www.w3.org/2000/svg" xmlns:xlink="http://www.w3.org/1999/xlink" viewBox="0 0 583.55 301.31"><defs><style>.cls-1{clip-path:url(#clippath);}.cls-2,.cls-3,.cls-4{fill:none;}.cls-2,.cls-5,.cls-6,.cls-7,.cls-8,.cls-9,.cls-10,.cls-11{stroke-width:0px;}.cls-3{stroke-linecap:round;stroke-linejoin:round;stroke-width:6.44px;}.cls-3,.cls-4{stroke:#1a1b66;}.cls-4{stroke-miterlimit:10;stroke-width:2.15px;}.cls-5{fill:#26276e;}.cls-6{fill:#3153b7;}.cls-7{fill:#2649b3;}.cls-8{fill:#1a1b66;}.cls-9{fill:#323276;}.cls-10{fill:#009ee0;}.cls-11{fill:#0073e0;}</style><clipPath id="clippath"><rect class="cls-2" x="-19.36" y="-39.49" width="602.92" height="339.63" transform="translate(564.19 260.65) rotate(180)"/></clipPath></defs><g class="cls-1"><path class="cls-7" d="m69.46,242.28l31.64-70.99,159.93-3.85,35.07,142.83s-271.11-7.7-270.69-9.41,44.05-58.58,44.05-58.58Z"/><path class="cls-6" d="m207.58,100.43l.23-51.91c3.63-.77,7.21,1.59,7.88,5.27l18.4,100.4,7.68,13.72-25.55.61-2.75-60.52-5.89-7.58Z"/><path class="cls-10" d="m160.71,59.72l-2.92,110.21-56.69,1.36,26.48-120.65c.27-1.21,1.34-2.08,2.58-2.08h25.44l4.23,7.92c.6.97.9,2.09.87,3.23Z"/><path class="cls-10" d="m188.58,69.34c.43-5.31-.28-10.64-2.07-15.65l-1.92-5.12h22.98c.08-.02.16-.03.23-.05l-.23,51.91,5.89,7.58,2.75,60.52-48.53,1.17,17-52.09,3.9-48.26Z"/><path class="cls-11" d="m160.71,59.72c.03-1.14-.27-2.26-.87-3.23l-4.23-7.92h28.99l1.92,5.12c1.79,5.01,2.49,10.35,2.07,15.65l-3.9,48.26-17,52.09-9.9.24,2.92-110.21Z"/><path class="cls-11" d="m232.63,127.84l3.2-54.34c.04-.66.45-1.24,1.07-1.48l9.28-3.71-.13,63.3,1.77,36.16-6.05.15-7.68-13.72-3.03-16.51,1.56-9.84Z"/><path class="cls-6" d="m246.18,68.3l.97-.39c1.21-.48,2.52.41,2.51,1.71l-.23,27.62,11.6,70.2-13.22.32-1.77-36.16.13-63.3Z"/><polygon class="cls-10" points="183.1 56.96 177.68 56.96 177.68 108.84 181.31 94.7 183.1 56.96"/><path class="cls-6" d="m149.91,71.42h-.8c-1.02,0-1.85.83-1.85,1.85v92.03l3.63-25.59,1.72-65.53c.04-1.51-1.18-2.76-2.69-2.76Z"/><path class="cls-7" d="m447.14,264.59c-.94-17.55-5.66-106.19-5.66-106.19l-5.18-25.96c10.89-.6,20.21,7.71,20.86,18.59l1.9,31.95c.04.71.37,1.36.91,1.82l8.37,7.04c.73.62,1.24,1.47,1.42,2.41l21.05,106.22h-50.83s9.52-7.56,7.17-35.87Z"/><path class="cls-11" d="m391.65,147.98h0l1.64-11.5c.14-.98.95-1.72,1.93-1.77l41.06-2.27,5.18,25.96s4.73,88.64,5.66,106.19c2.35,28.31-7.17,35.87-7.17,35.87h-76.36l28.05-152.49h0Z"/><path class="cls-10" d="m379.81,151.86c.14-.83.78-1.49,1.6-1.67l10.25-2.22h0l-28.05,152.49h-9.6l25.8-148.6Z"/><path class="cls-11" d="m476.94,300.47c-.16,0-2.26-18.53-3.4-28.69-.47-4.22-2.26-8.17-5.12-11.31l-3.43-3.77c-.29-.32-.82-.1-.8.33l2.32,43.45h10.43Z"/><path class="cls-11" d="m452.15,177.96l1.88,5.95c1.87,5.9,2.98,12.01,3.32,18.18l5.43,98.37h-8.77l-6.51-126.64,1.94.97c1.29.65,2.27,1.79,2.7,3.16Z"/><polyline class="cls-4" points="427.34 132.93 424.78 185.86 430.23 196.43 430.23 209.88 420.62 214.37 411.41 300.2"/><polygon class="cls-8" points="527.68 299.4 548.03 299.4 537.86 221.17 527.68 299.4"/><polygon class="cls-9" points="541.72 299.4 563.48 299.4 552.6 215.75 541.72 299.4"/><polygon class="cls-8" points="552.6 299.61 568.52 299.61 560.56 238.43 552.6 299.61"/><polygon class="cls-8" points="368.28 301.66 384.2 301.66 376.24 240.49 368.28 301.66"/><polygon class="cls-9" points="376.24 301.66 405.28 301.66 390.76 252.32 376.24 301.66"/><polygon class="cls-9" points="316.48 301.66 345.52 301.66 331 252.32 316.48 301.66"/><polygon class="cls-9" points="252 298.94 281.03 298.94 266.52 249.59 252 298.94"/><polygon class="cls-8" points="301.38 309.45 321.27 309.45 311.32 225.54 301.38 309.45"/><polygon class="cls-8" points="289.94 303.33 305.62 303.33 297.78 237.18 289.94 303.33"/><polygon class="cls-8" points="274.26 302.09 289.94 302.09 282.1 235.95 274.26 302.09"/><polygon class="cls-8" points="241.61 305.72 257.29 305.72 249.45 239.57 241.61 305.72"/><polygon class="cls-8" points="232.03 303.09 247.71 303.09 239.87 269.29 232.03 303.09"/><polygon class="cls-8" points="219.46 302.56 235.14 302.56 227.3 264.3 219.46 302.56"/><polygon class="cls-8" points="178.37 300.6 194.05 300.6 186.21 262.35 178.37 300.6"/><polygon class="cls-8" points="166.63 300.6 178.86 300.6 172.75 270.74 166.63 300.6"/><polygon class="cls-8" points="154.63 300.6 166.87 300.6 160.75 270.74 154.63 300.6"/><polygon class="cls-8" points="213.56 302.11 221.4 302.11 217.48 283.43 213.56 302.11"/><polygon class="cls-8" points="140.29 299.16 148.13 299.16 144.21 280.48 140.29 299.16"/><polygon class="cls-8" points="128.6 300.18 136.44 300.18 132.52 281.5 128.6 300.18"/><polygon class="cls-8" points="192.54 302.11 200.38 302.11 196.46 283.43 192.54 302.11"/><polygon class="cls-8" points="134.75 300.18 142.59 300.18 138.67 281.5 134.75 300.18"/><polygon class="cls-5" points="122.67 299.16 130.51 299.16 126.59 280.48 122.67 299.16"/><polygon class="cls-9" points="117.3 299.16 122.67 299.16 119.99 286.36 117.3 299.16"/><polygon class="cls-9" points="92.8 299.33 98.17 299.33 95.49 286.53 92.8 299.33"/><polygon class="cls-9" points="102.19 299.33 109.32 299.33 105.75 282.35 102.19 299.33"/><polygon class="cls-9" points="444.84 301.66 451.96 301.66 448.4 284.68 444.84 301.66"/><polygon class="cls-9" points="205.29 302.11 213.13 302.11 209.21 274.59 205.29 302.11"/><polygon class="cls-9" points="147.01 299.96 154.85 299.96 150.93 272.43 147.01 299.96"/><polygon class="cls-5" points="197.65 302.11 205.49 302.11 201.57 277.53 197.65 302.11"/><polygon class="cls-8" points="560.56 299.61 583.31 299.61 571.93 263.18 560.56 299.61"/><circle class="cls-9" cx="347.55" cy="261.38" r="31.8"/><polyline class="cls-3" points="348.45 313.54 352.57 258.65 367.59 251.62"/><line class="cls-3" x1="351.58" y1="274.91" x2="338.69" y2="260.08"/><line class="cls-3" x1="352.57" y1="258.65" x2="341.89" y2="237.18"/></g></svg>