<svg width="365" height="237" viewBox="0 0 365 237" fill="none" xmlns="http://www.w3.org/2000/svg">
<g clip-path="url(#clip0_552_27)">
<path d="M157.289 83.8245C173.249 83.8245 186.187 70.8836 186.187 54.9202C186.187 38.9568 173.249 26.0159 157.289 26.0159C141.329 26.0159 128.391 38.9568 128.391 54.9202C128.391 70.8836 141.329 83.8245 157.289 83.8245Z" stroke="white" stroke-linecap="round" stroke-linejoin="round"/>
<path d="M184.069 44.0625L225.3 178.569C225.3 178.569 147.148 148.187 128.82 59.9375L184.069 44.0625Z" stroke="white" stroke-linecap="round" stroke-linejoin="round"/>
<path d="M190.879 71.9945L364.675 18.5095C364.675 18.5095 322.796 81.0891 270.82 99.2329C243.613 108.729 200.769 106.435 190.879 71.9945Z" stroke="white" stroke-linecap="round" stroke-linejoin="round"/>
<path d="M225.299 178.465L243.205 236.682C243.205 236.682 222.253 222.655 216.18 205.243C212.998 196.129 213.769 181.778 225.299 178.465Z" stroke="white" stroke-linecap="round" stroke-linejoin="round"/>
<path d="M191.786 72.8438L302.44 94.2287C302.44 94.2287 282.096 120.359 237.813 121.85C209.31 122.809 185.882 100.75 191.793 72.8438H191.786Z" stroke="white" stroke-linecap="round" stroke-linejoin="round"/>
<path d="M35.7286 40.75C35.113 40.6268 35.2685 39.7128 35.8906 39.7906L135.339 52.7616C137.4 52.9949 138.962 54.7386 138.962 56.813C138.962 59.3864 136.603 61.3181 134.075 60.806L35.7286 40.75Z" stroke="white" stroke-linecap="round" stroke-linejoin="round"/>
<path d="M355.169 105.793L0.324219 33.5354" stroke="#0D9DDA" stroke-linecap="round" stroke-linejoin="round"/>
<path d="M150.492 148.2L180.401 0.903809" stroke="#0D9DDA" stroke-linecap="round" stroke-linejoin="round"/>
<path d="M161.994 49.501L203.225 184.008" stroke="white" stroke-linecap="round" stroke-linejoin="round"/>
<path d="M145.566 48.3861C147.635 48.3861 149.312 46.7086 149.312 44.6393C149.312 42.5701 147.635 40.8926 145.566 40.8926C143.497 40.8926 141.82 42.5701 141.82 44.6393C141.82 46.7086 143.497 48.3861 145.566 48.3861Z" stroke="white" stroke-linecap="round" stroke-linejoin="round"/>
</g>
<defs>
<clipPath id="clip0_552_27">
<rect width="365" height="236.42" fill="white" transform="translate(0 0.57959)"/>
</clipPath>
</defs>
</svg>
