<svg width="52" height="18" viewBox="0 0 52 18" fill="none" xmlns="http://www.w3.org/2000/svg">
<path opacity="0.9" d="M44.3511 9.32932C44.3511 11.1014 45.2646 12.8188 47.2742 12.8188C49.3752 12.8188 50.1607 11.0101 50.1607 9.25624C50.1607 7.41104 49.3204 5.67546 47.1828 5.67546C45.0636 5.67546 44.3511 7.48412 44.3511 9.32932ZM51.6588 0.925438V13.9697H50.1059V12.6909H50.0694C49.5579 13.7322 48.3703 14.189 47.055 14.189C44.1501 14.189 42.7069 11.887 42.7069 9.21971C42.7069 6.55239 44.1319 4.30526 47.0184 4.30526C47.9684 4.30526 49.3934 4.67065 50.0694 5.78508H50.1059V0.925438H51.6588Z" fill="white"/>
<path opacity="0.9" d="M40.8127 0.925438V2.82545H39.2598V0.925438H40.8127ZM39.2598 13.9697V4.52449H40.8127V13.9697H39.2598Z" fill="white"/>
<path opacity="0.9" d="M33.0298 13.9697V4.52449H34.4914V6.51585H34.5279C35.277 4.98123 36.3183 4.25045 37.9991 4.30526V5.9495C35.4962 5.9495 34.5827 7.35624 34.5827 9.76778V13.9697H33.0298Z" fill="white"/>
<path opacity="0.9" d="M22.3099 13.9697V0.925438H23.8628V5.80334H23.8993C24.4108 4.76199 25.5984 4.30526 26.9137 4.30526C29.8186 4.30526 31.2618 6.60719 31.2618 9.27451C31.2618 11.9601 29.8368 14.189 26.9503 14.189C26.0003 14.189 24.5753 13.8236 23.8993 12.7091H23.8628V13.9697H22.3099ZM29.6176 9.1649C29.6176 7.39277 28.7041 5.67546 26.6945 5.67546C24.5935 5.67546 23.808 7.48412 23.808 9.23797C23.808 11.0832 24.6483 12.8188 26.7859 12.8188C28.9051 12.8188 29.6176 11.0101 29.6176 9.1649Z" fill="white"/>
<path opacity="0.9" d="M20.9397 4.52449L16.8291 15.2303C16.0983 17.0572 15.4772 17.7515 14.0887 17.7515C13.7233 17.7515 13.3579 17.7149 13.0108 17.587V16.162C13.3031 16.2534 13.6137 16.3813 13.9243 16.3813C14.5637 16.3813 14.9108 16.089 15.2031 15.5226L15.8426 13.9149L12.0974 4.52449H13.8512L16.6099 12.2524H16.6464L19.2955 4.52449H20.9397Z" fill="white"/>
<path opacity="0.9" d="M0.19162 13.9697V0.925438H1.9272V6.53412H8.79647V0.925438H10.5321V13.9697H8.79647V7.99566H1.9272V13.9697H0.19162Z" fill="white"/>
</svg>
