<svg width="88" height="88" viewBox="0 0 88 88" fill="none" xmlns="http://www.w3.org/2000/svg">
<path fill-rule="evenodd" clip-rule="evenodd" d="M44 87C67.7482 87 87 67.7482 87 44C87 20.2518 67.7482 1 44 1C20.2518 1 1 20.2518 1 44C1 67.7482 20.2518 87 44 87ZM44 88C68.3005 88 88 68.3005 88 44C88 19.6995 68.3005 0 44 0C19.6995 0 0 19.6995 0 44C0 68.3005 19.6995 88 44 88Z" fill="white"/>
<path d="M52.9849 43.765C52.9849 45.355 52.9999 48.055 55.1749 48.055C57.3499 48.055 57.3649 45.355 57.3649 43.765C57.3649 42.19 57.3499 39.49 55.1749 39.49C52.9999 39.49 52.9849 42.19 52.9849 43.765ZM51.6349 43.78C51.6349 41.44 51.8449 38.365 55.1749 38.365C58.5049 38.365 58.7149 41.44 58.7149 43.78C58.7149 46.12 58.5049 49.18 55.1749 49.18C51.8449 49.18 51.6349 46.12 51.6349 43.78Z" fill="white"/>
<path d="M44.6049 42.13H43.3299C43.2099 39.97 44.4999 38.365 46.7499 38.365C48.5949 38.365 50.0799 39.445 50.0799 41.425C50.0799 43.3 48.8199 44.23 47.4999 45.07C46.1799 45.865 44.7549 46.57 44.5149 47.875H49.9749V49H43.0299C43.2249 46.495 44.5149 45.55 46.0149 44.65C47.8149 43.525 48.7299 42.895 48.7299 41.41C48.7299 40.255 47.7999 39.49 46.6749 39.49C45.1899 39.49 44.5599 40.855 44.6049 42.13Z" fill="white"/>
<path d="M36.315 43.765C36.315 45.355 36.33 48.055 38.505 48.055C40.68 48.055 40.695 45.355 40.695 43.765C40.695 42.19 40.68 39.49 38.505 39.49C36.33 39.49 36.315 42.19 36.315 43.765ZM34.965 43.78C34.965 41.44 35.175 38.365 38.505 38.365C41.835 38.365 42.045 41.44 42.045 43.78C42.045 46.12 41.835 49.18 38.505 49.18C35.175 49.18 34.965 46.12 34.965 43.78Z" fill="white"/>
<path d="M27.935 42.13H26.66C26.54 39.97 27.83 38.365 30.08 38.365C31.925 38.365 33.41 39.445 33.41 41.425C33.41 43.3 32.15 44.23 30.83 45.07C29.51 45.865 28.085 46.57 27.845 47.875H33.305V49H26.36C26.555 46.495 27.845 45.55 29.345 44.65C31.145 43.525 32.06 42.895 32.06 41.41C32.06 40.255 31.13 39.49 30.005 39.49C28.52 39.49 27.89 40.855 27.935 42.13Z" fill="white"/>
</svg>
