<svg width="129" height="129" viewBox="0 0 129 129" fill="none" xmlns="http://www.w3.org/2000/svg">
<path fill-rule="evenodd" clip-rule="evenodd" d="M64.5 128C99.5701 128 128 99.5701 128 64.5C128 29.4299 99.5701 1 64.5 1C29.4299 1 1 29.4299 1 64.5C1 99.5701 29.4299 128 64.5 128ZM64.5 129C100.122 129 129 100.122 129 64.5C129 28.8776 100.122 0 64.5 0C28.8776 0 0 28.8776 0 64.5C0 100.122 28.8776 129 64.5 129Z" fill="white"/>
<path d="M65.8966 67V56.29H72.9316V57.49H67.3216V60.895H72.2416V62.095H67.3216V67H65.8966Z" fill="white"/>
<path d="M63.715 59.425H62.365C62.2 57.88 61.195 57.235 59.71 57.235C58.495 57.235 57.31 57.67 57.31 59.065C57.31 61.705 64.165 59.845 64.165 64.06C64.165 66.34 61.93 67.255 59.98 67.255C57.58 67.255 55.555 66.07 55.555 63.475H56.905C56.905 65.275 58.405 66.055 60.025 66.055C61.315 66.055 62.74 65.65 62.74 64.105C62.74 61.165 55.885 63.1 55.885 59.17C55.885 57.01 57.805 56.035 59.77 56.035C61.96 56.035 63.64 57.07 63.715 59.425Z" fill="white"/>
</svg>
