<svg width="114" height="114" viewBox="0 0 114 114" fill="none" xmlns="http://www.w3.org/2000/svg">
<path d="M92.9845 59.555H94.2595C94.3045 60.695 95.3095 61.055 96.3445 61.055C97.1395 61.055 98.2195 60.875 98.2195 59.9C98.2195 57.905 93.1495 59.255 93.1495 56.27C93.1495 54.71 94.6795 54.065 96.0445 54.065C97.7845 54.065 99.1045 54.605 99.2245 56.495H97.9495C97.8745 55.505 96.9745 55.19 96.1495 55.19C95.3845 55.19 94.4995 55.4 94.4995 56.18C94.4995 57.08 95.8495 57.26 97.0345 57.53C98.3095 57.815 99.5695 58.25 99.5695 59.735C99.5695 61.595 97.8445 62.18 96.2695 62.18C94.5295 62.18 93.0595 61.475 92.9845 59.555Z" fill="white"/>
<path d="M90.5181 51.92V54.245H92.0631V55.37H90.5181V60.185C90.5181 60.785 90.6831 60.875 91.4781 60.875H92.0631V62H91.0881C89.7681 62 89.2431 61.73 89.2431 60.305V55.37H87.9231V54.245H89.2431V51.92H90.5181Z" fill="white"/>
<path d="M80.7531 59.555H82.0281C82.0731 60.695 83.0781 61.055 84.1131 61.055C84.9081 61.055 85.9881 60.875 85.9881 59.9C85.9881 57.905 80.9181 59.255 80.9181 56.27C80.9181 54.71 82.4481 54.065 83.8131 54.065C85.5531 54.065 86.8731 54.605 86.9931 56.495H85.7181C85.6431 55.505 84.7431 55.19 83.9181 55.19C83.1531 55.19 82.2681 55.4 82.2681 56.18C82.2681 57.08 83.6181 57.26 84.8031 57.53C86.0781 57.815 87.3381 58.25 87.3381 59.735C87.3381 61.595 85.6131 62.18 84.0381 62.18C82.2981 62.18 80.8281 61.475 80.7531 59.555Z" fill="white"/>
<path d="M74.1215 57.38H78.5765C78.5015 56.165 77.6165 55.19 76.3415 55.19C75.0215 55.19 74.1965 56.18 74.1215 57.38ZM78.5465 59.54H79.8064C79.4615 61.265 78.2465 62.18 76.4915 62.18C74.0165 62.18 72.8465 60.455 72.7715 58.1C72.7715 55.76 74.3015 54.065 76.4165 54.065C79.1615 54.065 80.0015 56.63 79.9265 58.505H74.1215C74.0765 59.855 74.8415 61.055 76.5365 61.055C77.6015 61.055 78.3215 60.56 78.5465 59.54Z" fill="white"/>
<path d="M71.2765 54.245V62H70.0765V60.77H70.0465C69.5065 61.73 68.6515 62.18 67.5265 62.18C65.4865 62.18 64.8565 61.01 64.8565 59.345V54.245H66.1315V59.495C66.1315 60.455 66.7315 61.055 67.7065 61.055C69.2515 61.055 70.0015 60.02 70.0015 58.625V54.245H71.2765Z" fill="white"/>
<path d="M62.0697 62L61.6947 60.665C60.8547 61.775 59.5047 62.255 58.2597 62.255C55.0647 62.255 53.1597 59.66 53.1597 56.855C53.1597 53.735 54.8697 51.035 58.2597 51.035C60.5847 51.035 62.4747 52.085 62.8647 54.59H61.4397C61.1547 52.97 59.8647 52.235 58.2597 52.235C55.6647 52.235 54.5847 54.5 54.5847 56.78C54.5847 59.015 55.8747 61.055 58.2597 61.055C60.4797 61.055 61.7697 59.525 61.6947 57.56H58.2747V56.36H62.9697V62H62.0697Z" fill="white"/>
<path d="M41.9849 56.765C41.9849 58.355 41.9999 61.055 44.1749 61.055C46.3499 61.055 46.3649 58.355 46.3649 56.765C46.3649 55.19 46.3499 52.49 44.1749 52.49C41.9999 52.49 41.9849 55.19 41.9849 56.765ZM40.6349 56.78C40.6349 54.44 40.8449 51.365 44.1749 51.365C47.5049 51.365 47.7149 54.44 47.7149 56.78C47.7149 59.12 47.5049 62.18 44.1749 62.18C40.8449 62.18 40.6349 59.12 40.6349 56.78Z" fill="white"/>
<path d="M33.6499 56.765C33.6499 58.355 33.6649 61.055 35.8399 61.055C38.0149 61.055 38.0299 58.355 38.0299 56.765C38.0299 55.19 38.0149 52.49 35.8399 52.49C33.6649 52.49 33.6499 55.19 33.6499 56.765ZM32.2999 56.78C32.2999 54.44 32.5099 51.365 35.8399 51.365C39.1699 51.365 39.3799 54.44 39.3799 56.78C39.3799 59.12 39.1699 62.18 35.8399 62.18C32.5099 62.18 32.2999 59.12 32.2999 56.78Z" fill="white"/>
<path d="M25.315 56.765C25.315 58.355 25.33 61.055 27.505 61.055C29.68 61.055 29.695 58.355 29.695 56.765C29.695 55.19 29.68 52.49 27.505 52.49C25.33 52.49 25.315 55.19 25.315 56.765ZM23.965 56.78C23.965 54.44 24.175 51.365 27.505 51.365C30.835 51.365 31.045 54.44 31.045 56.78C31.045 59.12 30.835 62.18 27.505 62.18C24.175 62.18 23.965 59.12 23.965 56.78Z" fill="white"/>
<path d="M16.935 55.13H15.66C15.54 52.97 16.83 51.365 19.08 51.365C20.925 51.365 22.41 52.445 22.41 54.425C22.41 56.3 21.15 57.23 19.83 58.07C18.51 58.865 17.085 59.57 16.845 60.875H22.305V62H15.36C15.555 59.495 16.845 58.55 18.345 57.65C20.145 56.525 21.06 55.895 21.06 54.41C21.06 53.255 20.13 52.49 19.005 52.49C17.52 52.49 16.89 53.855 16.935 55.13Z" fill="white"/>
<path fill-rule="evenodd" clip-rule="evenodd" d="M57 113C87.9279 113 113 87.9279 113 57C113 26.0721 87.9279 1 57 1C26.0721 1 1 26.0721 1 57C1 87.9279 26.0721 113 57 113ZM57 114C88.4802 114 114 88.4802 114 57C114 25.5198 88.4802 0 57 0C25.5198 0 0 25.5198 0 57C0 88.4802 25.5198 114 57 114Z" fill="white"/>
</svg>
