<svg width="167" height="76" viewBox="0 0 167 76" fill="none" xmlns="http://www.w3.org/2000/svg">
<path fill-rule="evenodd" clip-rule="evenodd" d="M29 66C44.4479 66 57 53.2563 57 37.5C57 21.7437 44.4479 9 29 9C13.5521 9 1 21.7437 1 37.5C1 53.2563 13.5521 66 29 66ZM29 67C45.0163 67 58 53.7924 58 37.5C58 21.2076 45.0163 8 29 8C12.9837 8 0 21.2076 0 37.5C0 53.7924 12.9837 67 29 67Z" fill="white"/>
<path d="M35.9898 37.5102C35.9898 38.5702 35.9998 40.3702 37.4498 40.3702C38.8998 40.3702 38.9098 38.5702 38.9098 37.5102C38.9098 36.4602 38.8998 34.6602 37.4498 34.6602C35.9998 34.6602 35.9898 36.4602 35.9898 37.5102ZM35.0898 37.5202C35.0898 35.9602 35.2298 33.9102 37.4498 33.9102C39.6698 33.9102 39.8098 35.9602 39.8098 37.5202C39.8098 39.0802 39.6698 41.1202 37.4498 41.1202C35.2298 41.1202 35.0898 39.0802 35.0898 37.5202Z" fill="white"/>
<path d="M30.4035 36.4202H29.5535C29.4735 34.9802 30.3335 33.9102 31.8335 33.9102C33.0635 33.9102 34.0535 34.6302 34.0535 35.9502C34.0535 37.2002 33.2135 37.8202 32.3335 38.3802C31.4535 38.9102 30.5035 39.3802 30.3435 40.2502H33.9835V41.0002H29.3535C29.4835 39.3302 30.3435 38.7002 31.3435 38.1002C32.5435 37.3502 33.1535 36.9302 33.1535 35.9402C33.1535 35.1702 32.5335 34.6602 31.7835 34.6602C30.7935 34.6602 30.3735 35.5702 30.4035 36.4202Z" fill="white"/>
<path d="M24.8766 37.5102C24.8766 38.5702 24.8866 40.3702 26.3366 40.3702C27.7866 40.3702 27.7966 38.5702 27.7966 37.5102C27.7966 36.4602 27.7866 34.6602 26.3366 34.6602C24.8866 34.6602 24.8766 36.4602 24.8766 37.5102ZM23.9766 37.5202C23.9766 35.9602 24.1166 33.9102 26.3366 33.9102C28.5566 33.9102 28.6966 35.9602 28.6966 37.5202C28.6966 39.0802 28.5566 41.1202 26.3366 41.1202C24.1166 41.1202 23.9766 39.0802 23.9766 37.5202Z" fill="white"/>
<path d="M19.2902 36.4202H18.4402C18.3602 34.9802 19.2202 33.9102 20.7202 33.9102C21.9502 33.9102 22.9402 34.6302 22.9402 35.9502C22.9402 37.2002 22.1002 37.8202 21.2202 38.3802C20.3402 38.9102 19.3902 39.3802 19.2302 40.2502H22.8702V41.0002H18.2402C18.3702 39.3302 19.2302 38.7002 20.2302 38.1002C21.4302 37.3502 22.0402 36.9302 22.0402 35.9402C22.0402 35.1702 21.4202 34.6602 20.6702 34.6602C19.6802 34.6602 19.2602 35.5702 19.2902 36.4202Z" fill="white"/>
<path d="M154.99 39.37H155.84C155.87 40.13 156.54 40.37 157.23 40.37C157.76 40.37 158.48 40.25 158.48 39.6C158.48 38.27 155.1 39.17 155.1 37.18C155.1 36.14 156.12 35.71 157.03 35.71C158.19 35.71 159.07 36.07 159.15 37.33H158.3C158.25 36.67 157.65 36.46 157.1 36.46C156.59 36.46 156 36.6 156 37.12C156 37.72 156.9 37.84 157.69 38.02C158.54 38.21 159.38 38.5 159.38 39.49C159.38 40.73 158.23 41.12 157.18 41.12C156.02 41.12 155.04 40.65 154.99 39.37Z" fill="white"/>
<path d="M153.345 34.2798V35.8298H154.375V36.5798H153.345V39.7898C153.345 40.1898 153.455 40.2498 153.985 40.2498H154.375V40.9998H153.725C152.845 40.9998 152.495 40.8198 152.495 39.8698V36.5798H151.615V35.8298H152.495V34.2798H153.345Z" fill="white"/>
<path d="M146.836 39.37H147.686C147.716 40.13 148.386 40.37 149.076 40.37C149.606 40.37 150.326 40.25 150.326 39.6C150.326 38.27 146.946 39.17 146.946 37.18C146.946 36.14 147.966 35.71 148.876 35.71C150.036 35.71 150.916 36.07 150.996 37.33H150.146C150.096 36.67 149.496 36.46 148.946 36.46C148.436 36.46 147.846 36.6 147.846 37.12C147.846 37.72 148.746 37.84 149.536 38.02C150.386 38.21 151.226 38.5 151.226 39.49C151.226 40.73 150.076 41.12 149.026 41.12C147.866 41.12 146.886 40.65 146.836 39.37Z" fill="white"/>
<path d="M142.415 37.92H145.385C145.335 37.11 144.745 36.46 143.895 36.46C143.015 36.46 142.465 37.12 142.415 37.92ZM145.365 39.36H146.205C145.975 40.51 145.165 41.12 143.995 41.12C142.345 41.12 141.565 39.97 141.515 38.4C141.515 36.84 142.535 35.71 143.945 35.71C145.775 35.71 146.335 37.42 146.285 38.67H142.415C142.385 39.57 142.895 40.37 144.025 40.37C144.735 40.37 145.215 40.04 145.365 39.36Z" fill="white"/>
<path d="M140.518 35.8301V41.0001H139.718V40.1801H139.698C139.338 40.8201 138.768 41.1201 138.018 41.1201C136.658 41.1201 136.238 40.3401 136.238 39.2301V35.8301H137.088V39.3301C137.088 39.9701 137.488 40.3701 138.138 40.3701C139.168 40.3701 139.668 39.6801 139.668 38.7501V35.8301H140.518Z" fill="white"/>
<path d="M134.38 40.9999L134.13 40.1099C133.57 40.8499 132.67 41.1699 131.84 41.1699C129.71 41.1699 128.44 39.4399 128.44 37.5699C128.44 35.4899 129.58 33.6899 131.84 33.6899C133.39 33.6899 134.65 34.3899 134.91 36.0599H133.96C133.77 34.9799 132.91 34.4899 131.84 34.4899C130.11 34.4899 129.39 35.9999 129.39 37.5199C129.39 39.0099 130.25 40.3699 131.84 40.3699C133.32 40.3699 134.18 39.3499 134.13 38.0399H131.85V37.2399H134.98V40.9999H134.38Z" fill="white"/>
<path d="M120.99 37.5102C120.99 38.5702 121 40.3702 122.45 40.3702C123.9 40.3702 123.91 38.5702 123.91 37.5102C123.91 36.4602 123.9 34.6602 122.45 34.6602C121 34.6602 120.99 36.4602 120.99 37.5102ZM120.09 37.5202C120.09 35.9602 120.23 33.9102 122.45 33.9102C124.67 33.9102 124.81 35.9602 124.81 37.5202C124.81 39.0802 124.67 41.1202 122.45 41.1202C120.23 41.1202 120.09 39.0802 120.09 37.5202Z" fill="white"/>
<path d="M115.433 37.5102C115.433 38.5702 115.443 40.3702 116.893 40.3702C118.343 40.3702 118.353 38.5702 118.353 37.5102C118.353 36.4602 118.343 34.6602 116.893 34.6602C115.443 34.6602 115.433 36.4602 115.433 37.5102ZM114.533 37.5202C114.533 35.9602 114.673 33.9102 116.893 33.9102C119.113 33.9102 119.253 35.9602 119.253 37.5202C119.253 39.0802 119.113 41.1202 116.893 41.1202C114.673 41.1202 114.533 39.0802 114.533 37.5202Z" fill="white"/>
<path d="M109.877 37.5102C109.877 38.5702 109.887 40.3702 111.337 40.3702C112.787 40.3702 112.797 38.5702 112.797 37.5102C112.797 36.4602 112.787 34.6602 111.337 34.6602C109.887 34.6602 109.877 36.4602 109.877 37.5102ZM108.977 37.5202C108.977 35.9602 109.117 33.9102 111.337 33.9102C113.557 33.9102 113.697 35.9602 113.697 37.5202C113.697 39.0802 113.557 41.1202 111.337 41.1202C109.117 41.1202 108.977 39.0802 108.977 37.5202Z" fill="white"/>
<path d="M104.29 36.4202H103.44C103.36 34.9802 104.22 33.9102 105.72 33.9102C106.95 33.9102 107.94 34.6302 107.94 35.9502C107.94 37.2002 107.1 37.8202 106.22 38.3802C105.34 38.9102 104.39 39.3802 104.23 40.2502H107.87V41.0002H103.24C103.37 39.3302 104.23 38.7002 105.23 38.1002C106.43 37.3502 107.04 36.9302 107.04 35.9402C107.04 35.1702 106.42 34.6602 105.67 34.6602C104.68 34.6602 104.26 35.5702 104.29 36.4202Z" fill="white"/>
<path fill-rule="evenodd" clip-rule="evenodd" d="M129 75C149.435 75 166 58.4345 166 38C166 17.5655 149.435 1 129 1C108.565 1 92 17.5655 92 38C92 58.4345 108.565 75 129 75ZM129 76C149.987 76 167 58.9868 167 38C167 17.0132 149.987 0 129 0C108.013 0 91 17.0132 91 38C91 58.9868 108.013 76 129 76Z" fill="white"/>
</svg>
