<?xml version="1.0" encoding="UTF-8"?><svg id="Layer_1" xmlns="http://www.w3.org/2000/svg" viewBox="0 0 960 1107.67"><defs><style>.cls-1{fill:#1b1d38;}.cls-1,.cls-2{stroke-width:0px;}.cls-2{fill:#8d8e9b;}</style></defs><path class="cls-1" d="m123.92,316.39l-19.21-67.12h8.33l13.16,47.55c1.84,6.76,2.37,10.7,2.37,10.7h.18s.53-3.95,2.28-10.62l12.9-47.64h9.48l12.99,47.55c1.93,6.76,2.46,10.7,2.46,10.7h.17s.44-3.95,2.28-10.62l13.07-47.64h7.98l-19.21,67.12h-9.12l-13.16-46.76c-1.93-6.76-2.37-10.79-2.37-10.79h-.18s-.53,4.04-2.37,10.7l-12.98,46.85h-9.04Z"/><path class="cls-1" d="m212.88,316.39h-8.16v-67.12h8.16v29.57h35.18v-29.57h8.16v67.12h-8.16v-30.27h-35.18v30.27Z"/><path class="cls-1" d="m310.79,296.39h-26.85l-6.93,20h-8.16l23.87-67.12h9.65l24.13,67.12h-8.69l-7.02-20Zm-16.23-30.62l-8.33,24.04h22.29l-8.42-24.04c-1.4-4.04-2.63-8.33-2.63-8.33h-.18c-.18.44-1.4,4.56-2.72,8.33Z"/><path class="cls-1" d="m381.5,256.38h-23.25v60.01h-8.16v-60.01h-23.25v-7.11h54.66v7.11Z"/><path class="cls-1" d="m415.8,249.27h8.16v67.12h-8.16v-67.12Z"/><path class="cls-1" d="m450.45,316.39h-8.16v-67.12h40.1v7.28h-31.94v24.22h29.22v7.11h-29.22v28.51Z"/><path class="cls-1" d="m110.58,329.48h8.16v67.12h-8.16v-67.12Z"/><path class="cls-1" d="m137.08,329.48h10.44l29.83,49.92c2.28,3.68,3.42,6.58,3.42,6.58h.26v-56.5h7.72v67.12h-10.44l-29.74-49.83c-2.63-4.39-3.51-6.49-3.51-6.49h-.17v56.33h-7.81v-67.12Z"/><path class="cls-1" d="m243.5,347.47c-.79-6.58-4.56-12.46-13.95-12.46s-14.04,5.18-14.04,11.58,3.33,9.65,11.23,11.14l9.48,1.67c13.07,2.37,17.64,8.77,17.64,18.34,0,12.28-8.34,20.18-24.39,20.18s-24.39-8.33-25.09-20.18h8.51c.97,7.19,5.97,13.6,16.76,13.6,11.93,0,15.88-5.79,15.88-12.9,0-5.79-3.16-9.83-11.41-11.23l-9.39-1.67c-13.16-2.46-17.81-9.48-17.81-18.25,0-10.88,8.95-18.78,22.72-18.78s21.58,7.55,22.2,18.95h-8.33Z"/><path class="cls-1" d="m314.56,336.59h-23.25v60.01h-8.16v-60.01h-23.25v-7.11h54.66v7.11Z"/><path class="cls-1" d="m325.87,329.48h42.9v7.28h-34.74v22.37h31.94v7.11h-31.94v23.08h35.18v7.28h-43.34v-67.12Z"/><path class="cls-1" d="m420.71,376.59h-26.85l-6.93,20h-8.16l23.87-67.12h9.65l24.13,67.12h-8.69l-7.02-20Zm-16.23-30.62l-8.33,24.04h22.29l-8.42-24.04c-1.4-4.04-2.63-8.33-2.63-8.33h-.17c-.18.44-1.4,4.56-2.72,8.33Z"/><path class="cls-1" d="m448.96,329.48h20.62c18.34,0,32.46,8.95,32.46,32.73s-13.16,34.39-31.5,34.39h-21.58v-67.12Zm20.62,60.1c14.21,0,23.95-7.37,23.95-27.11s-9.91-25.97-23.43-25.97h-12.99v53.08h12.46Z"/><path class="cls-1" d="m137.43,408.72c16.32,0,30.27,10.7,30.27,34.74s-13.86,34.74-30.27,34.74-30.01-10.79-30.01-34.74,14.04-34.74,30.01-34.74Zm21.67,34.83c0-18.42-8.77-28.34-21.67-28.34s-21.41,9.39-21.41,28.34,8.6,28.08,21.41,28.08,21.67-10,21.67-28.08Z"/><path class="cls-1" d="m190.94,476.8h-8.16v-67.12h40.1v7.28h-31.94v24.22h29.22v7.11h-29.22v28.51Z"/><path class="cls-1" d="m260.51,476.8v-67.12h26.41c11.49,0,20.71,5.35,20.71,16.32,0,8.16-4.56,13.25-12.28,15v.18c8.42,1.4,14.39,8.07,14.39,16.14,0,15.09-11.32,19.48-24.83,19.48h-24.39Zm24.92-38.87c7.11,0,13.69-2.54,13.69-11.14,0-7.28-5.18-10.53-12.63-10.53h-17.81v21.67h16.76Zm-.44,32.29c9.83,0,16.23-3.33,16.23-13.42,0-8.86-6.32-12.11-16.93-12.11h-15.62v25.53h16.32Z"/><path class="cls-1" d="m323.5,409.68h42.9v7.28h-34.74v22.37h31.94v7.11h-31.94v23.08h35.18v7.28h-43.34v-67.12Z"/><path class="cls-1" d="m382.9,409.68h8.16v67.12h-8.16v-67.12Z"/><path class="cls-1" d="m409.39,409.68h10.44l29.83,49.92c2.28,3.69,3.42,6.58,3.42,6.58h.26v-56.5h7.72v67.12h-10.44l-29.74-49.84c-2.63-4.39-3.51-6.49-3.51-6.49h-.18v56.33h-7.81v-67.12Z"/><path class="cls-1" d="m484.58,443.81c0,17.81,7.55,27.73,21.15,27.73,12.72,0,20.27-7.28,20.27-20.44v-.97h-19.39v-7.19h27.37v33.87h-7.11v-9.65h-.35c-3.16,5.88-10.09,11.05-20.97,11.05-16.93,0-29.57-11.05-29.57-34.66,0-21.93,13.25-34.83,30.62-34.83,13.77,0,23.69,6.93,25.36,18.78h-8.51c-1.14-7.63-8.07-12.28-16.85-12.28-14.56,0-22.02,11.41-22.02,28.6Z"/><path class="cls-1" d="m109.53,489.89h8.16v38.61c0,6.14.09,13.34,3.42,17.46,3.16,3.95,7.9,5.7,14.04,5.7s10.97-1.75,14.04-5.7c3.33-4.12,3.16-11.32,3.16-17.46v-38.61h8.07v44.75c0,16.85-10.26,23.69-25.44,23.69s-25.44-6.67-25.44-23.69v-44.75Z"/><path class="cls-1" d="m177.61,489.89h10.44l29.83,49.92c2.28,3.69,3.42,6.58,3.42,6.58h.26v-56.5h7.72v67.12h-10.44l-29.74-49.84c-2.63-4.39-3.51-6.49-3.51-6.49h-.18v56.33h-7.81v-67.12Z"/><path class="cls-1" d="m247.35,489.89h20.62c18.34,0,32.46,8.95,32.46,32.73s-13.16,34.39-31.5,34.39h-21.58v-67.12Zm20.62,60.1c14.21,0,23.95-7.37,23.95-27.11s-9.92-25.97-23.43-25.97h-12.98v53.08h12.46Z"/><path class="cls-1" d="m315.43,489.89h42.9v7.28h-34.74v22.37h31.94v7.11h-31.94v23.08h35.18v7.28h-43.34v-67.12Z"/><path class="cls-1" d="m397.9,528.58h-14.92v28.43h-8.16v-67.12h24.3c4.91,0,9.3,1.05,12.98,2.98,5.35,2.98,8.69,8.16,8.69,15.88,0,12.63-8.25,16.93-14.39,18.51v.17l14.83,29.57h-9.48l-13.86-28.43Zm.53-6.76c7.9,0,13.77-3.77,13.77-12.98,0-8.25-5.7-12.28-13.42-12.28h-15.79v25.27h15.44Z"/><path class="cls-1" d="m447.55,557.01l-19.21-67.12h8.33l13.16,47.55c1.84,6.76,2.37,10.7,2.37,10.7h.17s.53-3.95,2.28-10.62l12.9-47.64h9.48l12.99,47.55c1.93,6.76,2.46,10.7,2.46,10.7h.18s.44-3.95,2.28-10.62l13.07-47.64h7.98l-19.21,67.12h-9.12l-13.16-46.76c-1.93-6.76-2.37-10.79-2.37-10.79h-.18s-.53,4.04-2.37,10.7l-12.98,46.85h-9.04Z"/><path class="cls-1" d="m561.61,537.01h-26.85l-6.93,20h-8.16l23.87-67.12h9.65l24.13,67.12h-8.69l-7.02-20Zm-16.23-30.62l-8.34,24.04h22.29l-8.42-24.04c-1.4-4.04-2.63-8.33-2.63-8.33h-.18c-.17.44-1.4,4.56-2.72,8.33Z"/><path class="cls-1" d="m632.32,497h-23.25v60.01h-8.16v-60.01h-23.25v-7.11h54.66v7.11Z"/><path class="cls-1" d="m643.63,489.89h42.9v7.28h-34.74v22.37h31.94v7.11h-31.94v23.08h35.18v7.28h-43.34v-67.12Z"/><path class="cls-1" d="m726.1,528.58h-14.92v28.43h-8.16v-67.12h24.3c4.91,0,9.3,1.05,12.99,2.98,5.35,2.98,8.69,8.16,8.69,15.88,0,12.63-8.25,16.93-14.39,18.51v.17l14.83,29.57h-9.48l-13.86-28.43Zm.53-6.76c7.9,0,13.77-3.77,13.77-12.98,0-8.25-5.7-12.28-13.42-12.28h-15.79v25.27h15.44Z"/><path class="cls-1" d="m146.9,617.21h-26.85l-6.93,20h-8.16l23.87-67.12h9.65l24.13,67.12h-8.69l-7.02-20Zm-16.23-30.62l-8.34,24.04h22.29l-8.42-24.04c-1.4-4.04-2.63-8.33-2.63-8.33h-.18c-.17.44-1.4,4.56-2.72,8.33Z"/><path class="cls-1" d="m175.15,570.1h8.16v59.84h33.34v7.28h-41.5v-67.12Z"/><path class="cls-1" d="m228.05,570.1h8.16v59.84h33.34v7.28h-41.5v-67.12Z"/><path class="cls-1" d="m304.82,570.1h10.44l29.83,49.92c2.28,3.69,3.42,6.58,3.42,6.58h.26v-56.5h7.72v67.12h-10.44l-29.74-49.84c-2.63-4.39-3.51-6.49-3.51-6.49h-.18v56.33h-7.81v-67.12Z"/><path class="cls-1" d="m374.56,570.1h8.16v67.12h-8.16v-67.12Z"/><path class="cls-1" d="m406.5,604.23c0,17.81,7.55,27.73,21.15,27.73,12.72,0,20.27-7.28,20.27-20.44v-.97h-19.39v-7.19h27.37v33.87h-7.11v-9.65h-.35c-3.16,5.88-10.09,11.05-20.97,11.05-16.93,0-29.57-11.05-29.57-34.66,0-21.93,13.25-34.83,30.62-34.83,13.77,0,23.69,6.93,25.36,18.78h-8.51c-1.14-7.63-8.07-12.28-16.85-12.28-14.56,0-22.02,11.41-22.02,28.6Z"/><path class="cls-1" d="m481.86,637.22h-8.16v-67.12h8.16v29.57h35.18v-29.57h8.16v67.12h-8.16v-30.27h-35.18v30.27Z"/><path class="cls-1" d="m590.3,577.2h-23.25v60.01h-8.16v-60.01h-23.25v-7.11h54.66v7.11Z"/><path class="cls-1" d="m588.36,626.51h10.7v10.7h-10.7v-10.7Z"/><path class="cls-1" d="m123.92,717.42l-19.21-67.12h8.33l13.16,47.55c1.84,6.76,2.37,10.7,2.37,10.7h.18s.53-3.95,2.28-10.62l12.9-47.64h9.48l12.99,47.55c1.93,6.76,2.46,10.7,2.46,10.7h.17s.44-3.95,2.28-10.62l13.07-47.64h7.98l-19.21,67.12h-9.12l-13.16-46.76c-1.93-6.76-2.37-10.79-2.37-10.79h-.18s-.53,4.04-2.37,10.7l-12.98,46.85h-9.04Z"/><path class="cls-1" d="m204.72,650.3h42.9v7.28h-34.74v22.37h31.94v7.11h-31.94v23.08h35.18v7.28h-43.34v-67.12Z"/><path class="cls-1" d="m287.97,650.3h42.9v7.28h-34.74v22.37h31.94v7.11h-31.94v23.08h35.18v7.28h-43.34v-67.12Z"/><path class="cls-1" d="m347.37,650.3h12.37l17.02,48.08c2.11,5.88,2.98,8.77,2.98,8.77h.18s.88-2.9,2.98-8.77l17.29-48.08h12.28v67.12h-8.33v-57.64h-.26s-1.05,3.42-3.6,10.53l-16.93,47.12h-7.72l-16.5-47.12c-2.37-7.02-3.6-10.53-3.6-10.53h-.26v57.64h-7.9v-67.12Z"/><path class="cls-1" d="m430.8,717.42v-67.12h26.41c11.49,0,20.71,5.35,20.71,16.32,0,8.16-4.56,13.25-12.28,15v.18c8.42,1.4,14.39,8.07,14.39,16.14,0,15.09-11.32,19.48-24.83,19.48h-24.39Zm24.92-38.87c7.11,0,13.69-2.54,13.69-11.14,0-7.28-5.18-10.53-12.63-10.53h-17.81v21.67h16.76Zm-.44,32.29c9.83,0,16.23-3.33,16.23-13.42,0-8.86-6.32-12.11-16.93-12.11h-15.62v25.53h16.32Z"/><path class="cls-1" d="m530.11,697.42h-26.85l-6.93,20h-8.16l23.86-67.12h9.65l24.13,67.12h-8.69l-7.02-20Zm-16.23-30.62l-8.33,24.04h22.29l-8.42-24.04c-1.4-4.04-2.63-8.33-2.63-8.33h-.18c-.17.44-1.4,4.56-2.72,8.33Z"/><path class="cls-1" d="m581.43,688.99h-14.92v28.43h-8.16v-67.12h24.3c4.91,0,9.3,1.05,12.99,2.98,5.35,2.98,8.69,8.16,8.69,15.88,0,12.63-8.25,16.93-14.39,18.51v.18l14.83,29.57h-9.48l-13.86-28.43Zm.53-6.76c7.9,0,13.78-3.77,13.78-12.99,0-8.25-5.7-12.28-13.42-12.28h-15.79v25.27h15.44Z"/><path class="cls-1" d="m627.23,717.42h-8.16v-67.12h8.16v34.48l31.41-34.48h9.83l-25.79,28.16,27.64,38.96h-9.83l-23.43-32.81-9.83,10.79v22.02Z"/><path class="cls-1" d="m110.58,730.51h8.16v67.12h-8.16v-67.12Z"/><path class="cls-1" d="m137.08,730.51h10.44l29.83,49.92c2.28,3.68,3.42,6.58,3.42,6.58h.26v-56.5h7.72v67.12h-10.44l-29.74-49.83c-2.63-4.39-3.51-6.49-3.51-6.49h-.17v56.33h-7.81v-67.12Z"/><path class="cls-1" d="m267.01,777.62h-26.85l-6.93,20h-8.16l23.86-67.12h9.65l24.13,67.12h-8.69l-7.02-20Zm-16.23-30.62l-8.33,24.04h22.29l-8.42-24.04c-1.4-4.04-2.63-8.33-2.63-8.33h-.18c-.17.44-1.4,4.56-2.72,8.33Z"/><path class="cls-1" d="m312.27,797.89v-6.93h1.84c14.04,0,16.41-3.68,16.41-13.6v-46.85h8.16v47.55c0,14.48-7.9,19.83-22.72,19.83h-3.69Z"/><path class="cls-1" d="m383.16,729.54c16.32,0,30.27,10.7,30.27,34.75s-13.86,34.74-30.27,34.74-30.01-10.79-30.01-34.74,14.04-34.75,30.01-34.75Zm21.67,34.83c0-18.42-8.77-28.34-21.67-28.34s-21.41,9.39-21.41,28.34,8.6,28.08,21.41,28.08,21.67-10,21.67-28.08Z"/><path class="cls-1" d="m427.46,730.51h8.16v38.6c0,6.14.09,13.34,3.42,17.46,3.16,3.95,7.9,5.7,14.04,5.7s10.97-1.75,14.04-5.7c3.33-4.12,3.16-11.32,3.16-17.46v-38.6h8.07v44.75c0,16.85-10.26,23.69-25.44,23.69s-25.44-6.67-25.44-23.69v-44.75Z"/><path class="cls-1" d="m518.62,769.2h-14.92v28.43h-8.16v-67.12h24.3c4.91,0,9.3,1.05,12.98,2.98,5.35,2.98,8.69,8.16,8.69,15.88,0,12.63-8.25,16.93-14.39,18.51v.18l14.83,29.57h-9.48l-13.86-28.43Zm.53-6.76c7.9,0,13.77-3.77,13.77-12.99,0-8.25-5.7-12.28-13.42-12.28h-15.79v25.27h15.44Z"/><path class="cls-1" d="m556.25,730.51h10.44l29.83,49.92c2.28,3.68,3.42,6.58,3.42,6.58h.26v-56.5h7.72v67.12h-10.44l-29.74-49.83c-2.63-4.39-3.51-6.49-3.51-6.49h-.17v56.33h-7.81v-67.12Z"/><path class="cls-1" d="m626,730.51h42.9v7.28h-34.74v22.37h31.94v7.11h-31.94v23.08h35.18v7.28h-43.34v-67.12Z"/><path class="cls-1" d="m699.6,768.94l-23.69-38.43h9.48l18.16,30.97h.18l18.86-30.97h8.69l-23.6,37.9v29.22h-8.07v-28.69Z"/><path class="cls-1" d="m109.53,810.71h8.16v38.6c0,6.14.09,13.34,3.42,17.46,3.16,3.95,7.9,5.7,14.04,5.7s10.97-1.75,14.04-5.7c3.33-4.12,3.16-11.32,3.16-17.46v-38.6h8.07v44.75c0,16.85-10.26,23.69-25.44,23.69s-25.44-6.67-25.44-23.69v-44.75Z"/><path class="cls-1" d="m177.61,810.71h10.44l29.83,49.92c2.28,3.68,3.42,6.58,3.42,6.58h.26v-56.5h7.72v67.12h-10.44l-29.74-49.83c-2.63-4.39-3.51-6.49-3.51-6.49h-.18v56.33h-7.81v-67.12Z"/><path class="cls-1" d="m247.35,810.71h20.62c18.34,0,32.46,8.95,32.46,32.73s-13.16,34.39-31.5,34.39h-21.58v-67.12Zm20.62,60.1c14.21,0,23.95-7.37,23.95-27.11s-9.92-25.97-23.43-25.97h-12.98v53.08h12.46Z"/><path class="cls-1" d="m315.43,810.71h42.9v7.28h-34.74v22.37h31.94v7.11h-31.94v23.08h35.18v7.28h-43.34v-67.12Z"/><path class="cls-1" d="m397.9,849.41h-14.92v28.43h-8.16v-67.12h24.3c4.91,0,9.3,1.05,12.98,2.98,5.35,2.98,8.69,8.16,8.69,15.88,0,12.63-8.25,16.93-14.39,18.51v.18l14.83,29.57h-9.48l-13.86-28.43Zm.53-6.76c7.9,0,13.77-3.77,13.77-12.99,0-8.25-5.7-12.28-13.42-12.28h-15.79v25.27h15.44Z"/><path class="cls-1" d="m157.43,898.03h-23.25v60.01h-8.16v-60.01h-23.25v-7.11h54.66v7.11Z"/><path class="cls-1" d="m176.91,958.04h-8.16v-67.12h8.16v29.57h35.18v-29.57h8.16v67.12h-8.16v-30.27h-35.18v30.27Z"/><path class="cls-1" d="m238.49,890.92h42.9v7.28h-34.74v22.37h31.94v7.11h-31.94v23.08h35.18v7.28h-43.34v-67.12Z"/><path class="cls-1" d="m358.42,908.91c-.79-6.58-4.56-12.46-13.95-12.46s-14.04,5.18-14.04,11.58,3.33,9.65,11.23,11.14l9.48,1.67c13.07,2.37,17.63,8.77,17.63,18.34,0,12.28-8.33,20.18-24.39,20.18s-24.39-8.33-25.09-20.18h8.51c.97,7.19,5.97,13.6,16.76,13.6,11.93,0,15.88-5.79,15.88-12.9,0-5.79-3.16-9.83-11.41-11.23l-9.39-1.67c-13.16-2.46-17.81-9.48-17.81-18.25,0-10.88,8.95-18.78,22.72-18.78s21.58,7.55,22.2,18.95h-8.33Z"/><path class="cls-1" d="m384.39,890.92h42.9v7.28h-34.74v22.37h31.94v7.11h-31.94v23.08h35.18v7.28h-43.34v-67.12Z"/><path class="cls-1" d="m479.23,938.04h-26.85l-6.93,20h-8.16l23.87-67.12h9.65l24.13,67.12h-8.69l-7.02-20Zm-16.23-30.62l-8.34,24.04h22.29l-8.42-24.04c-1.4-4.04-2.63-8.33-2.63-8.33h-.18c-.17.44-1.4,4.56-2.72,8.33Z"/><path class="cls-1" d="m516.78,894.96c-8.69,0-13.78,5.62-13.6,15.79h-7.46c-.44-13.6,8.16-22.64,20.88-22.64,13.78,0,19.83,8.95,19.83,17.46,0,9.21-4.83,13.6-9.56,17.63l-3.25,2.81c-3.51,3.16-4.74,3.6-4.74,7.81v4.3h-7.19v-5.62c0-5.97,1.84-7.02,6.67-11.14l4.3-3.69c3.86-3.16,5.97-6.49,5.97-11.41,0-6.58-4.65-11.32-11.84-11.32Zm-6.76,63.08v-10.35h10.35v10.35h-10.35Z"/><path class="cls-2" d="m111.9,1011.39c-.18-1.5-1.04-2.84-3.18-2.84s-3.2,1.18-3.2,2.64.76,2.2,2.56,2.54l2.16.38c2.98.54,4.02,2,4.02,4.18,0,2.8-1.9,4.6-5.56,4.6s-5.56-1.9-5.72-4.6h1.94c.22,1.64,1.36,3.1,3.82,3.1,2.72,0,3.62-1.32,3.62-2.94,0-1.32-.72-2.24-2.6-2.56l-2.14-.38c-3-.56-4.06-2.16-4.06-4.16,0-2.48,2.04-4.28,5.18-4.28s4.92,1.72,5.06,4.32h-1.9Z"/><path class="cls-2" d="m119.84,1008.99v3.06h2.6v1.38h-2.6v6.22c0,1.12.46,1.56,1.6,1.56.54,0,1.16-.1,1.16-.1v1.52s-.74.12-1.66.12c-2.06,0-2.88-1-2.88-2.8v-6.52h-1.92v-1.32h.32c1.42,0,1.74-.34,1.74-2.36v-.76h1.64Z"/><path class="cls-2" d="m125.28,1014.93c.04-1.86,1.46-3.14,3.98-3.14s3.9,1.1,3.9,3.92v4.3c0,.84.18,1.18.96,1.2v1.46h-.22c-1.68,0-2.24-.6-2.42-1.86h-.04c-.56,1.24-1.82,1.96-3.38,1.96-2.1,0-3.34-1.14-3.34-3.02,0-1.16.5-2.12,1.58-2.66,1.1-.58,2.74-.78,5.1-.86v-.46c0-1.9-.72-2.64-2.2-2.64-1.56,0-2.14.9-2.2,1.8h-1.72Zm6.12,2.88v-.24c-2.28.1-3.58.28-4.26.78-.4.3-.58.74-.58,1.3,0,1.08.7,1.66,1.84,1.66,1.34,0,3-.9,3-3.5Z"/><path class="cls-2" d="m136.74,1012.05h1.7v1.98h.04c.48-1.1,1.8-2.18,3.34-2.18h.18v1.88h-.34c-1.88,0-3.12,1.08-3.12,3.12v5.74h-1.8v-10.54Z"/><path class="cls-2" d="m147.08,1008.99v3.06h2.6v1.38h-2.6v6.22c0,1.12.46,1.56,1.6,1.56.54,0,1.16-.1,1.16-.1v1.52s-.74.12-1.66.12c-2.06,0-2.88-1-2.88-2.8v-6.52h-1.92v-1.32h.32c1.42,0,1.74-.34,1.74-2.36v-.76h1.64Z"/><path class="cls-2" d="m152.28,1007.71h1.9v1.94h-1.9v-1.94Zm.04,4.34h1.82v10.54h-1.82v-10.54Z"/><path class="cls-2" d="m164.6,1016.09c0-.76,0-1.6-.38-2.1-.36-.5-.96-.7-1.66-.7-1.96,0-2.86,1.26-2.86,2.98v6.32h-1.8v-10.54h1.7v1.78h.04c.5-1.08,1.72-2.04,3.4-2.04,2.02,0,3.36.96,3.36,3.46v7.34h-1.8v-6.5Z"/><path class="cls-2" d="m169.38,1023.65h1.74c.2.9.88,1.48,2.6,1.48,2,0,3-.74,3-3.06v-1.56h-.02c-.54,1.04-1.78,1.94-3.36,1.94-2.2,0-4.22-1.38-4.22-5.28,0-3.48,1.84-5.38,4.44-5.38,1.7,0,2.72.94,3.16,1.92h.04v-1.66h1.72v10.28c0,2.96-1.94,4.24-4.8,4.24-2,0-4.06-.74-4.3-2.92Zm7.38-6.9c0-2.1-1.18-3.54-3-3.54s-2.8,1.58-2.8,3.96.66,3.92,2.88,3.92c1.7,0,2.92-1.48,2.92-3.28v-1.06Z"/><path class="cls-2" d="m186.33,1012.05h1.84l2.04,7.1c.18.66.34,1.34.34,1.34h.04s.2-.7.4-1.32l2.24-7.12h1.84l2.22,7.12c.2.62.38,1.32.38,1.32h.04s.16-.7.34-1.32l2.08-7.12h1.74l-3.26,10.54h-1.9l-1.92-6.2c-.3-.98-.66-2.24-.66-2.24h-.02s-.36,1.28-.66,2.24l-1.94,6.2h-1.9l-3.28-10.54Z"/><path class="cls-2" d="m204.25,1007.71h1.9v1.94h-1.9v-1.94Zm.04,4.34h1.82v10.54h-1.82v-10.54Z"/><path class="cls-2" d="m212.1,1008.99v3.06h2.6v1.38h-2.6v6.22c0,1.12.46,1.56,1.6,1.56.54,0,1.16-.1,1.16-.1v1.52s-.74.12-1.66.12c-2.06,0-2.88-1-2.88-2.8v-6.52h-1.92v-1.32h.32c1.42,0,1.74-.34,1.74-2.36v-.76h1.64Z"/><path class="cls-2" d="m223.84,1016.07c0-.76,0-1.58-.38-2.08-.36-.5-.96-.7-1.66-.7-1.96,0-2.86,1.26-2.86,2.98v6.32h-1.8v-15.76h1.8v6.96h.04c.46-1.02,1.58-2,3.3-2,2.02,0,3.36.96,3.36,3.46v7.34h-1.8v-6.52Z"/><path class="cls-2" d="m233.79,1017.31c0-3.26,1.8-5.52,4.74-5.52,3.14,0,4.7,2.26,4.7,5.52s-1.78,5.54-4.74,5.54-4.7-2.24-4.7-5.54Zm1.86,0c0,2.58.86,4.14,2.9,4.14s2.82-1.56,2.82-4.14-.84-4.14-2.86-4.14-2.86,1.58-2.86,4.14Z"/><path class="cls-2" d="m252.78,1016.09c0-.76,0-1.6-.38-2.1-.36-.5-.96-.7-1.66-.7-1.96,0-2.86,1.26-2.86,2.98v6.32h-1.8v-10.54h1.7v1.78h.04c.5-1.08,1.72-2.04,3.4-2.04,2.02,0,3.36.96,3.36,3.46v7.34h-1.8v-6.5Z"/><path class="cls-2" d="m268.88,1014.69c-.1-.94-.86-1.54-2.1-1.54s-2.06.72-2.06,1.7c0,.86.52,1.26,1.58,1.44l1.62.24c2.2.34,3,1.24,3,3.06,0,2.12-1.72,3.26-4.12,3.26-2.18,0-3.98-.98-4.12-3.24h1.76c.08.82.54,1.86,2.4,1.86,1.44,0,2.34-.68,2.34-1.78,0-.84-.22-1.3-1.66-1.54l-1.62-.24c-1.88-.3-2.88-1.08-2.88-2.92s1.42-3.2,3.82-3.2,3.58,1.06,3.76,2.9h-1.72Z"/><path class="cls-2" d="m280.23,1016.07c0-.76,0-1.58-.38-2.08-.36-.5-.96-.7-1.66-.7-1.96,0-2.86,1.26-2.86,2.98v6.32h-1.8v-15.76h1.8v6.96h.04c.46-1.02,1.58-2,3.3-2,2.02,0,3.36.96,3.36,3.46v7.34h-1.8v-6.52Z"/><path class="cls-2" d="m284.75,1017.31c0-3.26,1.8-5.52,4.74-5.52,3.14,0,4.7,2.26,4.7,5.52s-1.78,5.54-4.74,5.54-4.7-2.24-4.7-5.54Zm1.86,0c0,2.58.86,4.14,2.9,4.14s2.82-1.56,2.82-4.14-.84-4.14-2.86-4.14-2.86,1.58-2.86,4.14Z"/><path class="cls-2" d="m297.03,1012.05h1.7v1.98h.04c.48-1.1,1.8-2.18,3.34-2.18h.18v1.88h-.34c-1.88,0-3.12,1.08-3.12,3.12v5.74h-1.8v-10.54Z"/><path class="cls-2" d="m308.47,1022.85c-3.22,0-4.76-2.34-4.76-5.48s1.68-5.58,4.7-5.58,4.4,2.44,4.4,5.1v.92h-7.26c.12,2.18,1,3.66,2.98,3.66,1.76,0,2.22-1.02,2.4-1.64h1.74c-.38,1.82-1.94,3.02-4.2,3.02Zm2.5-6.58c-.04-1.76-.74-3.12-2.58-3.12-1.68,0-2.6,1.32-2.82,3.24h5.4v-.12Z"/><path class="cls-2" d="m320.85,1014.69c-.1-.94-.86-1.54-2.1-1.54s-2.06.72-2.06,1.7c0,.86.52,1.26,1.58,1.44l1.62.24c2.2.34,3,1.24,3,3.06,0,2.12-1.72,3.26-4.12,3.26-2.18,0-3.98-.98-4.12-3.24h1.76c.08.82.54,1.86,2.4,1.86,1.44,0,2.34-.68,2.34-1.78,0-.84-.22-1.3-1.66-1.54l-1.62-.24c-1.88-.3-2.88-1.08-2.88-2.92s1.42-3.2,3.82-3.2,3.58,1.06,3.76,2.9h-1.72Z"/><path class="cls-2" d="m330.21,1017.31c0-3.26,1.8-5.52,4.74-5.52,3.14,0,4.7,2.26,4.7,5.52s-1.78,5.54-4.74,5.54-4.7-2.24-4.7-5.54Zm1.86,0c0,2.58.86,4.14,2.9,4.14s2.82-1.56,2.82-4.14-.84-4.14-2.86-4.14-2.86,1.58-2.86,4.14Z"/><path class="cls-2" d="m344.71,1022.59h-1.8v-9.16h-1.92v-1.38h1.92v-2.36c0-2.16,1.24-2.92,3.2-2.92.4,0,.8.04,1.12.1v1.48c-.2-.04-.52-.08-.98-.08-1.04,0-1.54.38-1.54,1.64v2.14h2.52v1.38h-2.52v9.16Z"/><path class="cls-2" d="m361.79,1016.07c0-.76,0-1.58-.38-2.08-.36-.5-.96-.7-1.66-.7-1.96,0-2.86,1.26-2.86,2.98v6.32h-1.8v-15.76h1.8v6.96h.04c.46-1.02,1.58-2,3.3-2,2.02,0,3.36.96,3.36,3.46v7.34h-1.8v-6.52Z"/><path class="cls-2" d="m366.85,1014.93c.04-1.86,1.46-3.14,3.98-3.14s3.9,1.1,3.9,3.92v4.3c0,.84.18,1.18.96,1.2v1.46h-.22c-1.68,0-2.24-.6-2.42-1.86h-.04c-.56,1.24-1.82,1.96-3.38,1.96-2.1,0-3.34-1.14-3.34-3.02,0-1.16.5-2.12,1.58-2.66,1.1-.58,2.74-.78,5.1-.86v-.46c0-1.9-.72-2.64-2.2-2.64-1.56,0-2.14.9-2.2,1.8h-1.72Zm6.12,2.88v-.24c-2.28.1-3.58.28-4.26.78-.4.3-.58.74-.58,1.3,0,1.08.7,1.66,1.84,1.66,1.34,0,3-.9,3-3.5Z"/><path class="cls-2" d="m376.87,1012.05h1.84l2.04,7.1c.18.66.34,1.34.34,1.34h.04s.2-.7.4-1.32l2.24-7.12h1.84l2.22,7.12c.2.62.38,1.32.38,1.32h.04s.16-.7.34-1.32l2.08-7.12h1.74l-3.26,10.54h-1.9l-1.92-6.2c-.3-.98-.66-2.24-.66-2.24h-.02s-.36,1.28-.66,2.24l-1.94,6.2h-1.9l-3.28-10.54Z"/><path class="cls-2" d="m394.33,1014.93c.04-1.86,1.46-3.14,3.98-3.14s3.9,1.1,3.9,3.92v4.3c0,.84.18,1.18.96,1.2v1.46h-.22c-1.68,0-2.24-.6-2.42-1.86h-.04c-.56,1.24-1.82,1.96-3.38,1.96-2.1,0-3.34-1.14-3.34-3.02,0-1.16.5-2.12,1.58-2.66,1.1-.58,2.74-.78,5.1-.86v-.46c0-1.9-.72-2.64-2.2-2.64-1.56,0-2.14.9-2.2,1.8h-1.72Zm6.12,2.88v-.24c-2.28.1-3.58.28-4.26.78-.4.3-.58.74-.58,1.3,0,1.08.7,1.66,1.84,1.66,1.34,0,3-.9,3-3.5Z"/><path class="cls-2" d="m405.75,1007.71h1.9v1.94h-1.9v-1.94Zm.04,4.34h1.82v10.54h-1.82v-10.54Z"/><path class="cls-2" d="m411.33,1007.71h1.9v1.94h-1.9v-1.94Zm.04,4.34h1.82v10.54h-1.82v-10.54Z"/><path class="cls-2" d="m421.05,1012.05h1.84l2.04,7.1c.18.66.34,1.34.34,1.34h.04s.2-.7.4-1.32l2.24-7.12h1.84l2.22,7.12c.2.62.38,1.32.38,1.32h.04s.16-.7.34-1.32l2.08-7.12h1.74l-3.26,10.54h-1.9l-1.92-6.2c-.3-.98-.66-2.24-.66-2.24h-.02s-.36,1.28-.66,2.24l-1.94,6.2h-1.9l-3.28-10.54Z"/><path class="cls-2" d="m442.73,1022.85c-3.22,0-4.76-2.34-4.76-5.48s1.68-5.58,4.7-5.58,4.4,2.44,4.4,5.1v.92h-7.26c.12,2.18,1,3.66,2.98,3.66,1.76,0,2.22-1.02,2.4-1.64h1.74c-.38,1.82-1.94,3.02-4.2,3.02Zm2.5-6.58c-.04-1.76-.74-3.12-2.58-3.12-1.68,0-2.6,1.32-2.82,3.24h5.4v-.12Z"/><path class="cls-2" d="m449.59,1007.29h2.22l-1.82,4.42h-1.28l.88-4.42Z"/><path class="cls-2" d="m453.89,1006.83h1.8v15.76h-1.8v-15.76Z"/><path class="cls-2" d="m459.43,1006.83h1.8v15.76h-1.8v-15.76Z"/><path class="cls-2" d="m472.63,1022.59h-1.8v-9.16h-1.92v-1.38h1.92v-2.36c0-2.16,1.24-2.92,3.2-2.92.4,0,.8.04,1.12.1v1.48c-.2-.04-.52-.08-.98-.08-1.04,0-1.54.38-1.54,1.64v2.14h2.52v1.38h-2.52v9.16Z"/><path class="cls-2" d="m476.43,1017.31c0-3.26,1.8-5.52,4.74-5.52,3.14,0,4.7,2.26,4.7,5.52s-1.78,5.54-4.74,5.54-4.7-2.24-4.7-5.54Zm1.86,0c0,2.58.86,4.14,2.9,4.14s2.82-1.56,2.82-4.14-.84-4.14-2.86-4.14-2.86,1.58-2.86,4.14Z"/><path class="cls-2" d="m488.71,1006.83h1.8v15.76h-1.8v-15.76Z"/><path class="cls-2" d="m494.25,1006.83h1.8v15.76h-1.8v-15.76Z"/><path class="cls-2" d="m498.85,1017.31c0-3.26,1.8-5.52,4.74-5.52,3.14,0,4.7,2.26,4.7,5.52s-1.78,5.54-4.74,5.54-4.7-2.24-4.7-5.54Zm1.86,0c0,2.58.86,4.14,2.9,4.14s2.82-1.56,2.82-4.14-.84-4.14-2.86-4.14-2.86,1.58-2.86,4.14Z"/><path class="cls-2" d="m509.69,1012.05h1.84l2.04,7.1c.18.66.34,1.34.34,1.34h.04s.2-.7.4-1.32l2.24-7.12h1.84l2.22,7.12c.2.62.38,1.32.38,1.32h.04s.16-.7.34-1.32l2.08-7.12h1.74l-3.26,10.54h-1.9l-1.92-6.2c-.3-.98-.66-2.24-.66-2.24h-.02s-.36,1.28-.66,2.24l-1.94,6.2h-1.9l-3.28-10.54Z"/><path class="cls-2" d="m105.56,1032.99v3.06h2.6v1.38h-2.6v6.22c0,1.12.46,1.56,1.6,1.56.54,0,1.16-.1,1.16-.1v1.52s-.74.12-1.66.12c-2.06,0-2.88-1-2.88-2.8v-6.52h-1.92v-1.32h.32c1.42,0,1.74-.34,1.74-2.36v-.76h1.64Z"/><path class="cls-2" d="m117.3,1040.07c0-.76,0-1.58-.38-2.08-.36-.5-.96-.7-1.66-.7-1.96,0-2.86,1.26-2.86,2.98v6.32h-1.8v-15.76h1.8v6.96h.04c.46-1.02,1.58-2,3.3-2,2.02,0,3.36.96,3.36,3.46v7.34h-1.8v-6.52Z"/><path class="cls-2" d="m126.58,1046.85c-3.22,0-4.76-2.34-4.76-5.48s1.68-5.58,4.7-5.58,4.4,2.44,4.4,5.1v.92h-7.26c.12,2.18,1,3.66,2.98,3.66,1.76,0,2.22-1.02,2.4-1.64h1.74c-.38,1.82-1.94,3.02-4.2,3.02Zm2.5-6.58c-.04-1.76-.74-3.12-2.58-3.12-1.68,0-2.6,1.32-2.82,3.24h5.4v-.12Z"/><path class="cls-2" d="m144.4,1038.69c-.1-.94-.86-1.54-2.1-1.54s-2.06.72-2.06,1.7c0,.86.52,1.26,1.58,1.44l1.62.24c2.2.34,3,1.24,3,3.06,0,2.12-1.72,3.26-4.12,3.26-2.18,0-3.98-.98-4.12-3.24h1.76c.08.82.54,1.86,2.4,1.86,1.44,0,2.34-.68,2.34-1.78,0-.84-.22-1.3-1.66-1.54l-1.62-.24c-1.88-.3-2.88-1.08-2.88-2.92s1.42-3.2,3.82-3.2,3.58,1.06,3.76,2.9h-1.72Z"/><path class="cls-2" d="m150.9,1042.53c0,.76,0,1.64.38,2.14.36.48.92.7,1.62.7,1.96,0,2.88-1.3,2.88-3.62v-5.7h1.8v10.54h-1.72v-1.8h-.04c-.48,1.08-1.64,2.06-3.32,2.06-2.02,0-3.38-.98-3.38-3.46v-7.34h1.78v6.48Z"/><path class="cls-2" d="m168.02,1040.09c0-.76,0-1.6-.38-2.1-.36-.5-.96-.7-1.66-.7-1.96,0-2.86,1.26-2.86,2.98v6.32h-1.8v-10.54h1.7v1.78h.04c.5-1.08,1.72-2.04,3.4-2.04,2.02,0,3.36.96,3.36,3.46v7.34h-1.8v-6.5Z"/><path class="cls-2" d="m178.88,1031.71h1.9v1.94h-1.9v-1.94Zm.04,4.34h1.82v10.54h-1.82v-10.54Z"/><path class="cls-2" d="m191.2,1040.09c0-.76,0-1.6-.38-2.1-.36-.5-.96-.7-1.66-.7-1.96,0-2.86,1.26-2.86,2.98v6.32h-1.8v-10.54h1.7v1.78h.04c.5-1.08,1.72-2.04,3.4-2.04,2.02,0,3.36.96,3.36,3.46v7.34h-1.8v-6.5Z"/><path class="cls-2" d="m198.88,1032.99v3.06h2.6v1.38h-2.6v6.22c0,1.12.46,1.56,1.6,1.56.54,0,1.16-.1,1.16-.1v1.52s-.74.12-1.66.12c-2.06,0-2.88-1-2.88-2.8v-6.52h-1.92v-1.32h.32c1.42,0,1.74-.34,1.74-2.36v-.76h1.64Z"/><path class="cls-2" d="m203.17,1041.31c0-3.26,1.8-5.52,4.74-5.52,3.14,0,4.7,2.26,4.7,5.52s-1.78,5.54-4.74,5.54-4.7-2.24-4.7-5.54Zm1.86,0c0,2.58.86,4.14,2.9,4.14s2.82-1.56,2.82-4.14-.84-4.14-2.86-4.14-2.86,1.58-2.86,4.14Z"/><path class="cls-2" d="m220.49,1038.93c.04-1.86,1.46-3.14,3.98-3.14s3.9,1.1,3.9,3.92v4.3c0,.84.18,1.18.96,1.2v1.46h-.22c-1.68,0-2.24-.6-2.42-1.86h-.04c-.56,1.24-1.82,1.96-3.38,1.96-2.1,0-3.34-1.14-3.34-3.02,0-1.16.5-2.12,1.58-2.66,1.1-.58,2.74-.78,5.1-.86v-.46c0-1.9-.72-2.64-2.2-2.64-1.56,0-2.14.9-2.2,1.8h-1.72Zm6.12,2.88v-.24c-2.28.1-3.58.28-4.26.78-.4.3-.58.74-.58,1.3,0,1.08.7,1.66,1.84,1.66,1.34,0,3-.9,3-3.5Z"/><path class="cls-2" d="m242.59,1038.69c-.1-.94-.86-1.54-2.1-1.54s-2.06.72-2.06,1.7c0,.86.52,1.26,1.58,1.44l1.62.24c2.2.34,3,1.24,3,3.06,0,2.12-1.72,3.26-4.12,3.26-2.18,0-3.98-.98-4.12-3.24h1.76c.08.82.54,1.86,2.4,1.86,1.44,0,2.34-.68,2.34-1.78,0-.84-.22-1.3-1.66-1.54l-1.62-.24c-1.88-.3-2.88-1.08-2.88-2.92s1.42-3.2,3.82-3.2,3.58,1.06,3.76,2.9h-1.72Z"/><path class="cls-2" d="m251.37,1046.85c-3.22,0-4.76-2.34-4.76-5.48s1.68-5.58,4.7-5.58,4.4,2.44,4.4,5.1v.92h-7.26c.12,2.18,1,3.66,2.98,3.66,1.76,0,2.22-1.02,2.4-1.64h1.74c-.38,1.82-1.94,3.02-4.2,3.02Zm2.5-6.58c-.04-1.76-.74-3.12-2.58-3.12-1.68,0-2.6,1.32-2.82,3.24h5.4v-.12Z"/><path class="cls-2" d="m264.85,1039.23c-.12-1.08-.88-2.06-2.4-2.06-1.9,0-2.9,1.66-2.9,4.12s.74,4.14,2.86,4.14c2,0,2.52-1.48,2.58-2.28h1.68c-.26,2.44-2,3.68-4.28,3.68-3.04,0-4.68-2.12-4.68-5.46s1.76-5.58,4.72-5.58c2.1,0,4,.96,4.18,3.44h-1.76Z"/><path class="cls-2" d="m269.37,1036.05h1.7v1.98h.04c.48-1.1,1.8-2.18,3.34-2.18h.18v1.88h-.34c-1.88,0-3.12,1.08-3.12,3.12v5.74h-1.8v-10.54Z"/><path class="cls-2" d="m280.81,1046.85c-3.22,0-4.76-2.34-4.76-5.48s1.68-5.58,4.7-5.58,4.4,2.44,4.4,5.1v.92h-7.26c.12,2.18,1,3.66,2.98,3.66,1.76,0,2.22-1.02,2.4-1.64h1.74c-.38,1.82-1.94,3.02-4.2,3.02Zm2.5-6.58c-.04-1.76-.74-3.12-2.58-3.12-1.68,0-2.6,1.32-2.82,3.24h5.4v-.12Z"/><path class="cls-2" d="m290.21,1032.99v3.06h2.6v1.38h-2.6v6.22c0,1.12.46,1.56,1.6,1.56.54,0,1.16-.1,1.16-.1v1.52s-.74.12-1.66.12c-2.06,0-2.88-1-2.88-2.8v-6.52h-1.92v-1.32h.32c1.42,0,1.74-.34,1.74-2.36v-.76h1.64Z"/><path class="cls-2" d="m300.69,1036.05h1.74v1.76h.04c.62-1.12,1.76-2.02,3.36-2.02,2.24,0,4.24,1.38,4.24,5.38s-1.98,5.68-4.36,5.68c-1.54,0-2.78-.86-3.18-1.8h-.04v5.3h-1.8v-14.3Zm4.76,9.38c1.88,0,2.8-1.5,2.8-4.26,0-2.24-.66-3.94-2.82-3.94-1.86,0-3,1.58-3,3.36v1.12c0,2.08,1.02,3.72,3.02,3.72Z"/><path class="cls-2" d="m312.91,1030.83h1.8v15.76h-1.8v-15.76Z"/><path class="cls-2" d="m317.95,1038.93c.04-1.86,1.46-3.14,3.98-3.14s3.9,1.1,3.9,3.92v4.3c0,.84.18,1.18.96,1.2v1.46h-.22c-1.68,0-2.24-.6-2.42-1.86h-.04c-.56,1.24-1.82,1.96-3.38,1.96-2.1,0-3.34-1.14-3.34-3.02,0-1.16.5-2.12,1.58-2.66,1.1-.58,2.74-.78,5.1-.86v-.46c0-1.9-.72-2.64-2.2-2.64-1.56,0-2.14.9-2.2,1.8h-1.72Zm6.12,2.88v-.24c-2.28.1-3.58.28-4.26.78-.4.3-.58.74-.58,1.3,0,1.08.7,1.66,1.84,1.66,1.34,0,3-.9,3-3.5Z"/><path class="cls-2" d="m335.71,1039.23c-.12-1.08-.88-2.06-2.4-2.06-1.9,0-2.9,1.66-2.9,4.12s.74,4.14,2.86,4.14c2,0,2.52-1.48,2.58-2.28h1.68c-.26,2.44-2,3.68-4.28,3.68-3.04,0-4.68-2.12-4.68-5.46s1.76-5.58,4.72-5.58c2.1,0,4,.96,4.18,3.44h-1.76Z"/><path class="cls-2" d="m344.15,1046.85c-3.22,0-4.76-2.34-4.76-5.48s1.68-5.58,4.7-5.58,4.4,2.44,4.4,5.1v.92h-7.26c.12,2.18,1,3.66,2.98,3.66,1.76,0,2.22-1.02,2.4-1.64h1.74c-.38,1.82-1.94,3.02-4.2,3.02Zm2.5-6.58c-.04-1.76-.74-3.12-2.58-3.12-1.68,0-2.6,1.32-2.82,3.24h5.4v-.12Z"/><path class="cls-2" d="m356.73,1031.71h1.9v1.94h-1.9v-1.94Zm.04,4.34h1.82v10.54h-1.82v-10.54Z"/><path class="cls-2" d="m369.05,1040.09c0-.76,0-1.6-.38-2.1-.36-.5-.96-.7-1.66-.7-1.96,0-2.86,1.26-2.86,2.98v6.32h-1.8v-10.54h1.7v1.78h.04c.5-1.08,1.72-2.04,3.4-2.04,2.02,0,3.36.96,3.36,3.46v7.34h-1.8v-6.5Z"/><path class="cls-2" d="m382.17,1032.99v3.06h2.6v1.38h-2.6v6.22c0,1.12.46,1.56,1.6,1.56.54,0,1.16-.1,1.16-.1v1.52s-.74.12-1.66.12c-2.06,0-2.88-1-2.88-2.8v-6.52h-1.92v-1.32h.32c1.42,0,1.74-.34,1.74-2.36v-.76h1.64Z"/><path class="cls-2" d="m393.91,1040.07c0-.76,0-1.58-.38-2.08-.36-.5-.96-.7-1.66-.7-1.96,0-2.86,1.26-2.86,2.98v6.32h-1.8v-15.76h1.8v6.96h.04c.46-1.02,1.58-2,3.3-2,2.02,0,3.36.96,3.36,3.46v7.34h-1.8v-6.52Z"/><path class="cls-2" d="m403.19,1046.85c-3.22,0-4.76-2.34-4.76-5.48s1.68-5.58,4.7-5.58,4.4,2.44,4.4,5.1v.92h-7.26c.12,2.18,1,3.66,2.98,3.66,1.76,0,2.22-1.02,2.4-1.64h1.74c-.38,1.82-1.94,3.02-4.2,3.02Zm2.5-6.58c-.04-1.76-.74-3.12-2.58-3.12-1.68,0-2.6,1.32-2.82,3.24h5.4v-.12Z"/><path class="cls-2" d="m424.27,1046.59h-1.72v-1.74h-.06c-.56,1.04-1.7,2-3.32,2-2.24,0-4.3-1.4-4.3-5.46,0-3.62,1.88-5.6,4.54-5.6,1.58,0,2.6.88,3.02,1.86h.04v-6.82h1.8v15.76Zm-1.76-5.68c0-2.24-1.18-3.68-2.86-3.68-2.02,0-2.94,1.6-2.94,4.08s.7,4.12,2.8,4.12c1.86,0,3-1.48,3-3.4v-1.12Z"/><path class="cls-2" d="m431.85,1046.85c-3.22,0-4.76-2.34-4.76-5.48s1.68-5.58,4.7-5.58,4.4,2.44,4.4,5.1v.92h-7.26c.12,2.18,1,3.66,2.98,3.66,1.76,0,2.22-1.02,2.4-1.64h1.74c-.38,1.82-1.94,3.02-4.2,3.02Zm2.5-6.58c-.04-1.76-.74-3.12-2.58-3.12-1.68,0-2.6,1.32-2.82,3.24h5.4v-.12Z"/><path class="cls-2" d="m438.93,1036.05h1.74v1.76h.04c.62-1.12,1.76-2.02,3.36-2.02,2.24,0,4.24,1.38,4.24,5.38s-1.98,5.68-4.36,5.68c-1.54,0-2.78-.86-3.18-1.8h-.04v5.3h-1.8v-14.3Zm4.76,9.38c1.88,0,2.8-1.5,2.8-4.26,0-2.24-.66-3.94-2.82-3.94-1.86,0-3,1.58-3,3.36v1.12c0,2.08,1.02,3.72,3.02,3.72Z"/><path class="cls-2" d="m453.37,1032.99v3.06h2.6v1.38h-2.6v6.22c0,1.12.46,1.56,1.6,1.56.54,0,1.16-.1,1.16-.1v1.52s-.74.12-1.66.12c-2.06,0-2.88-1-2.88-2.8v-6.52h-1.92v-1.32h.32c1.42,0,1.74-.34,1.74-2.36v-.76h1.64Z"/><path class="cls-2" d="m465.11,1040.07c0-.76,0-1.58-.38-2.08-.36-.5-.96-.7-1.66-.7-1.96,0-2.86,1.26-2.86,2.98v6.32h-1.8v-15.76h1.8v6.96h.04c.46-1.02,1.58-2,3.3-2,2.02,0,3.36.96,3.36,3.46v7.34h-1.8v-6.52Z"/><path class="cls-2" d="m475.07,1041.31c0-3.26,1.8-5.52,4.74-5.52,3.14,0,4.7,2.26,4.7,5.52s-1.78,5.54-4.74,5.54-4.7-2.24-4.7-5.54Zm1.86,0c0,2.58.86,4.14,2.9,4.14s2.82-1.56,2.82-4.14-.84-4.14-2.86-4.14-2.86,1.58-2.86,4.14Z"/><path class="cls-2" d="m489.57,1046.59h-1.8v-9.16h-1.92v-1.38h1.92v-2.36c0-2.16,1.24-2.92,3.2-2.92.4,0,.8.04,1.12.1v1.48c-.2-.04-.52-.08-.98-.08-1.04,0-1.54.38-1.54,1.64v2.14h2.52v1.38h-2.52v9.16Z"/><path class="cls-2" d="m502.17,1032.99v3.06h2.6v1.38h-2.6v6.22c0,1.12.46,1.56,1.6,1.56.54,0,1.16-.1,1.16-.1v1.52s-.74.12-1.66.12c-2.06,0-2.88-1-2.88-2.8v-6.52h-1.92v-1.32h.32c1.42,0,1.74-.34,1.74-2.36v-.76h1.64Z"/><path class="cls-2" d="m513.91,1040.07c0-.76,0-1.58-.38-2.08-.36-.5-.96-.7-1.66-.7-1.96,0-2.86,1.26-2.86,2.98v6.32h-1.8v-15.76h1.8v6.96h.04c.46-1.02,1.58-2,3.3-2,2.02,0,3.36.96,3.36,3.46v7.34h-1.8v-6.52Z"/><path class="cls-2" d="m523.19,1046.85c-3.22,0-4.76-2.34-4.76-5.48s1.68-5.58,4.7-5.58,4.4,2.44,4.4,5.1v.92h-7.26c.12,2.18,1,3.66,2.98,3.66,1.76,0,2.22-1.02,2.4-1.64h1.74c-.38,1.82-1.94,3.02-4.2,3.02Zm2.5-6.58c-.04-1.76-.74-3.12-2.58-3.12-1.68,0-2.6,1.32-2.82,3.24h5.4v-.12Z"/><path class="cls-2" d="m534.87,1041.31c0-3.26,1.8-5.52,4.74-5.52,3.14,0,4.7,2.26,4.7,5.52s-1.78,5.54-4.74,5.54-4.7-2.24-4.7-5.54Zm1.86,0c0,2.58.86,4.14,2.9,4.14s2.82-1.56,2.82-4.14-.84-4.14-2.86-4.14-2.86,1.58-2.86,4.14Z"/><path class="cls-2" d="m553.55,1039.23c-.12-1.08-.88-2.06-2.4-2.06-1.9,0-2.9,1.66-2.9,4.12s.74,4.14,2.86,4.14c2,0,2.52-1.48,2.58-2.28h1.68c-.26,2.44-2,3.68-4.28,3.68-3.04,0-4.68-2.12-4.68-5.46s1.76-5.58,4.72-5.58c2.1,0,4,.96,4.18,3.44h-1.76Z"/><path class="cls-2" d="m561.99,1046.85c-3.22,0-4.76-2.34-4.76-5.48s1.68-5.58,4.7-5.58,4.4,2.44,4.4,5.1v.92h-7.26c.12,2.18,1,3.66,2.98,3.66,1.76,0,2.22-1.02,2.4-1.64h1.74c-.38,1.82-1.94,3.02-4.2,3.02Zm2.5-6.58c-.04-1.76-.74-3.12-2.58-3.12-1.68,0-2.6,1.32-2.82,3.24h5.4v-.12Z"/><path class="cls-2" d="m568.77,1038.93c.04-1.86,1.46-3.14,3.98-3.14s3.9,1.1,3.9,3.92v4.3c0,.84.18,1.18.96,1.2v1.46h-.22c-1.68,0-2.24-.6-2.42-1.86h-.04c-.56,1.24-1.82,1.96-3.38,1.96-2.1,0-3.34-1.14-3.34-3.02,0-1.16.5-2.12,1.58-2.66,1.1-.58,2.74-.78,5.1-.86v-.46c0-1.9-.72-2.64-2.2-2.64-1.56,0-2.14.9-2.2,1.8h-1.72Zm6.12,2.88v-.24c-2.28.1-3.58.28-4.26.78-.4.3-.58.74-.58,1.3,0,1.08.7,1.66,1.84,1.66,1.34,0,3-.9,3-3.5Z"/><path class="cls-2" d="m586.93,1040.09c0-.76,0-1.6-.38-2.1-.36-.5-.96-.7-1.66-.7-1.96,0-2.86,1.26-2.86,2.98v6.32h-1.8v-10.54h1.7v1.78h.04c.5-1.08,1.72-2.04,3.4-2.04,2.02,0,3.36.96,3.36,3.46v7.34h-1.8v-6.5Z"/><path class="cls-2" d="m591.67,1044.15h2.44v2.44h-2.44v-2.44Z"/></svg>