<svg width="277" height="185" viewBox="0 0 277 185" fill="none" xmlns="http://www.w3.org/2000/svg">
<path d="M34.5193 88.4072L31.7969 98.9208L37.3552 134.85L48.0837 171.656L53.7614 184.486L57.2958 185L57.2659 176.182L56.2809 145.847L55.8749 120.318L52.2868 111.226L52.436 106.234L44.806 93.9715L34.5193 88.4072Z" fill="url(#paint0_linear_324_417)"/>
<path d="M99.2007 71.4995C99.8754 72.0309 105.01 76.4787 105.01 76.4787L111.476 79.1235L140.712 86.1505L156.724 91.6789L164.539 95.3805L166.288 94.3238L165.727 89.2789L159.393 81.8818L149.375 75.8638L143.894 72.8189L127.046 65.7979L100.269 54.6694L87.0095 50.544L80.0303 48.335L86.8781 55.2963L95.7977 66.2338L99.2007 71.4995Z" fill="url(#paint1_linear_324_417)"/>
<path d="M31.6955 84.8551L28.8775 78.2043L19.2475 57.9233L9.89211 37.1887L4.39352 28.1855L1.4681 13.6599L0.924805 8.37625L3.67709 3.58812L9.67122 0L20.2386 2.01197L28.2327 6.4419L39.9642 14.9734L58.1377 29.487L80.0246 48.3351L86.8725 55.2964L95.792 66.2339L99.1951 71.4997L105.004 76.4789L107.368 79.7565L116.013 94.2463L134.861 112.384L162.145 123.071L186.432 123.286L218.296 124.086L239.066 126.647L262.457 129.172L262.804 130.868L241.83 134.008C241.83 134.008 227.072 136.916 226.361 136.862C225.651 136.808 191.226 153.68 191.226 153.68L163.71 164.415L145.327 167.997L126.234 165.328L112.753 160.952L88.783 147.423L61.7198 121.5L55.3854 114.103L52.2689 111.244L52.4182 106.252L44.7882 93.9896L34.4955 88.4253L31.6716 84.873L31.6955 84.8551Z" fill="url(#paint2_linear_324_417)"/>
<path d="M265.67 129.292L269.138 133.519L272.273 146.301L273.007 162.361L276.267 173.501L273.795 175.621L263.694 169.722L251.186 152.253L244.242 139.668L241.848 133.99L262.822 130.85L262.476 129.154L241.126 126.719L245.21 112.348L253.556 94.0195L263.299 85.3687L266.147 86.909C266.147 86.909 265.574 94.2882 265.526 94.9449C265.479 95.6016 266.153 101.757 266.153 101.757L268.595 114.981L268.046 124.181L267.449 127.602L265.67 129.28V129.292Z" fill="url(#paint3_linear_324_417)"/>
<path d="M79.7977 129.805L71.6006 120.658L68.9199 116.963L64.6333 112.378L60.5317 107.028L54.8899 99.882L49.4211 92.2341L38.3284 73.8279L31.3014 59.6127L22.8416 57.2783L19.546 51.4753L17.9102 49.2842L19.5579 50.92L19.9639 51.5409L22.752 56.2694L23.6356 56.9858L30.5551 58.6575L31.6596 59.0336L31.9223 59.8694L38.2687 72.6995L39.218 74.2697L49.4808 91.0401L50.3764 92.5088L55.1824 99.2432L56.472 100.646L61.0691 106.228L62.8124 108.085L65.8632 112.252L69.6423 116.766L71.7021 119.488L72.8185 121.005L79.7977 129.805Z" fill="url(#paint4_linear_324_417)"/>
<path d="M90.4605 132.665C90.371 132.563 85.6306 129.596 85.5769 129.495C85.5232 129.393 83.0992 126.707 83.0992 126.707L80.8126 123.507L78.1439 121.029L74.323 117.095L71.6065 112.336L66.2572 106.366L61.0929 100.085L57.3257 95.4763L52.1555 87.6075L47.3136 80.5089L45.0091 75.4939L42.4001 71.458L40.3702 69.1893L39.1941 66.7296L38.4239 66.6042L37.2418 65.5057L36.4298 63.8161L36.7463 62.7056L36.3642 61.3146L35.1343 59.1713L33.2596 57.7921L31.8148 56.3473L30.4954 54.1025L27.8566 51.6905L23.1819 46.2278L21.5579 44.1203L18.2504 41.1053L14.8952 37.4336L10.7399 32.7589L9.76074 31.123L10.9249 32.4783L11.7309 33.3858L15.1996 37.2246L18.7818 40.9142L21.7848 42.8008L22.746 43.8158L23.9222 45.3979L27.7013 50.7234L28.6984 51.7085L29.7611 52.6338L30.6745 53.4518L31.3909 54.2518L32.4596 55.5712L34.6985 58.1145L35.7731 59.3683L37.409 62.1564L38.4896 63.7027L39.415 64.7833L40.6926 67.6072L41.1463 68.4848L41.6896 68.9804L42.7523 70.7834L43.6001 71.9834L44.4538 72.6998L45.6061 74.1864L45.1882 74.5745L45.7434 75.3626L47.5345 79.1059L48.7524 80.9865L52.3764 86.6284L53.1286 87.8225L57.5764 93.7509L59.1944 96.3778L61.2541 99.1361L62.9258 101.017L66.6154 105.787L67.487 106.73L71.6185 111.692L73.2424 114.187L78.0186 120.014L80.1619 122.098L81.4634 123.333L83.356 125.722L84.944 127.859L86.0605 128.951L90.4844 132.641L90.4605 132.665Z" fill="url(#paint5_linear_324_417)"/>
<path d="M243.042 131.972L241.406 132.713L240.457 133.149L239.693 133.805L238.499 132.134C238.499 132.134 236.964 132.217 236.809 132.205C236.654 132.193 235.728 132.987 235.728 132.987L235.603 133.949L234.349 133.65L231.806 133.555L228.881 133.172C228.881 133.172 225.866 134.57 225.71 134.611C225.555 134.653 221.012 136.08 221.012 136.08L212.033 140.122C212.033 140.122 208.104 141.501 208.038 141.65C207.979 141.799 199.286 147.394 199.286 147.394C199.286 147.394 193.328 151.262 193.19 151.101C193.053 150.94 185.596 149.137 185.596 149.137L180.056 150.289L179.351 151.459L177.531 151.268L171.107 146.695L167.751 147.913L163.674 147.292L153.858 146.994L146.33 148.809L140.7 149.8L132.855 148.426L129.888 149.215L129.321 147.997L123.9 146.916L120.312 149.185L113.983 149.304L109.147 146.588L107.117 146.48L103.846 144.594L102.27 143.25L100.377 144.02L100.264 145.489L99.4695 147.209L97.6486 147.017L97.7441 146.414L96.1023 145.214L96.6874 144.241H98.0606L98.5621 143.722L98.0128 142.916L95.971 142.301L95.5829 143.394L95.7919 144.02L94.8963 145.023L92.5142 144.229L92.1799 143.286L90.9381 143.495L90.4186 144.271L87.5529 143.746L86.4066 142.791L86.8484 142.367L85.3201 141.077C85.3201 141.077 84.8186 141.65 84.8424 141.346C84.8663 141.041 84.7589 139.811 84.7589 139.811L83.4335 139.149L82.6155 138.522L82.1737 137.011L81.0394 135.853L80.6334 134.546L78.5379 134.587L76.9498 133.393L76.5438 132.701L75.0691 131.972L75.7139 131.513L73.8035 129.835L76.8602 130.48C76.8602 130.48 79.2662 131.686 79.1229 131.572C78.9797 131.459 70.8959 127.268 70.8959 127.268C70.8959 127.268 68.2093 125.071 68.1735 124.916C68.1317 124.76 67.8153 121.626 67.8153 121.626L63.0988 118.713L56.1614 111.548L51.8568 101.942L44.4836 91.8942L40.7701 87.8344L36.5909 81.2433L33.4506 75.0402L29.6774 66.5445L28.3162 62.4131L24.8773 60.7713L22.3041 59.0937L20.4175 56.4489L18.8115 53.5234L19.6294 56.1324L20.3638 57.822L22.2384 59.9056L24.3161 61.3922L27.7967 62.5266L27.4624 64.843L28.1968 66.5804L29.1759 67.7267L29.8386 69.052L30.9192 70.9207L34.2267 77.5477L36.0178 81.4045L36.9551 83.106L39.7074 87.0882L38.8118 86.8135L37.7372 85.5598L36.2148 86.1568L35.367 85.8881L36.0715 84.0553L34.8715 83.0941L34.0595 83.0284L33.5282 81.303L32.167 80.4313L31.8625 78.4731L31.3968 77.2134L30.8177 78.085L30.1848 77.7328L29.5639 75.2372C29.5639 75.2372 28.7997 73.9059 28.6803 73.4879C28.5609 73.07 28.3579 71.7327 28.3579 71.7327L27.0206 69.8939L26.7042 68.0849L26.3519 68.7177L26.2504 70.0371L25.6116 69.7327L25.4385 67.9893L24.8594 66.8729L23.8982 66.8013L23.0802 66.1744L28.1072 76.2999L30.5132 81.4284L31.6953 84.8613L34.5192 88.4136L36.3879 88.5568C36.3879 88.5568 37.9103 88.6225 37.9999 88.8315C38.0835 89.0404 39.994 90.0554 39.994 90.0554C39.994 90.0554 41.7552 90.3419 41.8447 90.5031C41.9343 90.6643 42.7462 92.0017 42.7462 92.0017L44.203 93.5898L44.8119 93.9659L51.9941 104.229L53.6778 107.518L53.5345 110.002L52.4718 110.533L52.2927 111.22L55.4091 114.08L61.7436 121.477L88.8067 147.4L112.777 160.928L126.258 165.304L145.351 167.973L163.733 164.391L191.25 153.656L226.385 136.838L241.854 133.984L243.161 133.184L243.054 131.955L243.042 131.972Z" fill="url(#paint6_linear_324_417)"/>
<path d="M177.949 132.181C177.817 131.919 177.185 130.85 177.185 130.85L178.044 130.253L178.665 131.423L177.943 132.181H177.949Z" fill="url(#paint7_linear_324_417)"/>
<path d="M241.114 126.737L242.009 128.175L239.418 127.417L236.045 126.904L233.281 127.71L230.511 126.629L228.039 126.283C228.039 126.283 227.776 127.029 227.597 126.707C227.418 126.384 226.445 125.799 226.445 125.799C226.445 125.799 225.561 125.984 225.418 125.925C225.275 125.865 223.317 125.405 223.317 125.405L222.099 126.689L221.203 126.414L221.376 125.513L220.176 125.214L219.699 125.483L214.248 124.808L208.654 125.292L192.862 126.516L184.534 124.802L181.155 126.325C181.155 126.325 172.892 130.372 172.737 130.361C172.581 130.349 168.235 133.22 168.235 133.22L161.745 132.82L158.689 132.175L153.011 133.722L147.53 131.411L146.08 128.396L141.357 126.193L130.64 121.745L128.575 119.447L129.076 116.939L123.542 111.417L121.142 103.584L112.318 93.1659L105.428 83.4105C105.428 83.4105 103.38 78.9209 103.345 78.7657C103.309 78.6104 99.2012 71.5059 99.2012 71.5059L105.01 76.485L107.374 79.7627L116.019 94.2525L134.867 112.39L162.151 123.077L186.438 123.292L218.302 124.092L241.108 126.743L241.114 126.737Z" fill="url(#paint8_linear_324_417)"/>
<path d="M109.917 126.611C109.87 126.426 106.007 123.919 106.007 123.919L102.932 122.784L98.7768 118.641L95.4634 115.22L89.8871 110.193L80.5557 99.6853L72.8182 89.3568L64.3644 79.0342L60.3285 74.1267L57.1881 69.9475L51.4985 62.5265L49.0566 60.1265L51.2656 60.8966L54.4358 65.44L58.7822 70.9684L63.8151 76.8491L66.7524 80.5387L72.4719 87.6075L77.3437 94.0733L80.9616 97.4584L84.9498 103.793L90.2155 108.975L93.3977 111.847L98.3828 117.602L102.759 121.942L104.884 123.005L107.529 124.283L109.917 126.617V126.611Z" fill="url(#paint9_linear_324_417)"/>
<path d="M112.121 128.211L113.631 127.972L113.22 126.39L112.079 126.48C112.079 126.48 111.333 126.898 111.375 127.083C111.417 127.268 112.121 128.217 112.121 128.217V128.211Z" fill="url(#paint10_linear_324_417)"/>
<path d="M107.392 116.025L104.986 113.154L101.559 109.607L94.7054 102.569L92.3292 100.891L90.3411 98.0491L83.5709 89.8878L77.3081 82.1205L77.117 83.0578L75.911 82.4249L73.0573 80.7115C73.0573 80.7115 72.2931 79.816 72.305 79.6368C72.3169 79.4577 72.514 76.9681 72.514 76.9681L69.087 72.7054L63.7914 66.3292L60.5854 63.8157L58.7227 63.1948L57.9406 60.2097L55.6122 57.941L54.2689 55.9887L52.7704 53.7857L51.7793 51.917L53.3077 52.2155L55.9047 56.4126L59.0749 60.9559L61.7198 63.7858L65.481 66.8247L66.7168 68.5919L68.1617 69.9591L69.302 71.4218L69.9468 72.3651L73.5707 77.1831L74.7229 78.4667L76.914 80.9622L78.9917 83.4518L81.4275 85.9056H82.2037C82.2037 85.9056 82.4365 86.7593 82.532 87.0638C82.6276 87.3683 83.7798 88.7116 83.7798 88.7116L85.141 90.431L87.4814 93.3565L91.8456 99.4222L94.3292 101.285L98.9024 106.234L103.983 111.524L107.392 116.025Z" fill="url(#paint11_linear_324_417)"/>
<path d="M111.548 107.1L105.267 102.617L97.0699 92.8493L82.7293 74.6102L66.1619 58.8249L57.1229 49.9471L52.0841 44.9023L51.4572 42.3769L48.287 38.4007L46.1437 34.4782L42.054 29.505L37.851 21.3616L31.2001 11.654L28.024 8.00614L27.1046 6.74045L25.3135 5.22998L28.6449 6.91956L33.0927 13.4092L38.3764 20.7466L42.1317 28.496L45.9944 33.3319L47.2243 35.2126L49.9288 39.541L52.1796 42.1022L53.1408 43.553L53.8632 45.8157L64.6037 56.6159L67.7022 59.7801L83.0219 73.9177L85.6607 76.8073L97.8758 92.4911L99.852 93.9598L103.428 97.8166L105.81 101.763L107.566 102.969L111.548 107.1Z" fill="url(#paint12_linear_324_417)"/>
<path d="M108.95 98.9629L102.24 90.8016L97.3382 84.7537L91.4635 77.3745L85.744 71.0818L82.0245 66.6758L71.8751 57.4757L65.2899 51.5353L59.7675 47.3501L55.5465 42.5441L54.436 40.6694L54.3166 37.6186L54.6032 33.8812L52.436 30.2513L49.6778 26.5737L41.403 18.5914L39.3074 16.4004L37.8447 13.7197L39.9642 14.9735L40.7582 16.1556L40.8 17.1705L42.6209 19.1049L49.618 25.8513L51.1942 27.105L52.8121 29.32L54.1674 31.0931L55.2122 32.2454L56.0599 33.6245L55.6599 35.6843L55.0211 39.2783L55.3734 40.9142L58.5077 45.1531L63.081 49.3263L66.9616 52.3711L71.4811 56.4189L74.4901 59.1593L81.738 65.7504L83.5529 67.7385L86.2276 70.9863L91.2904 76.5088L94.1024 79.47L95.2128 80.5686L96.6576 81.2193C96.6576 81.2193 98.8845 85.6313 99.0517 85.7627C99.2189 85.894 100.473 86.6463 100.473 86.6463C100.473 86.6463 101.213 87.1239 101.577 87.8045C101.941 88.4911 102.711 89.3269 102.711 89.3269L103.595 91.0046L104.992 92.2464L108.95 98.939V98.9629Z" fill="url(#paint13_linear_324_417)"/>
<path d="M74.1852 50.7772L64.4955 43.6428L62.0596 41.8457L58.7342 39.3979L57.8984 35.4695L57.176 32.3351L54.161 29.2963L51.6177 26.2455L51.0266 25.541L41.6653 17.1767L40.7578 16.1558L57.0267 28.55L62.8716 33.571L58.8715 31.9411L56.2148 28.8366L53.9043 26.9022L55.773 30.0366L57.57 31.756L58.9074 34.9322L58.9193 37.0397L59.2178 38.8188L62.2029 41.0696L64.0239 42.5263L74.1852 50.7772Z" fill="url(#paint14_linear_324_417)"/>
<path d="M56.1019 136.074L48.2809 142.629L43.5166 145.154L44.9495 158.068L46.9674 163.555L57.2959 185L56.1019 136.074Z" fill="url(#paint15_linear_324_417)"/>
<path d="M43.5166 145.154L52.2869 111.226L55.875 120.318L56.1019 136.074L48.2809 142.629L43.5166 145.154Z" fill="url(#paint16_linear_324_417)"/>
<path d="M96.8005 126.856L95.9288 125.811L92.7049 122.683L88.066 118.157L84.3764 114.802L79.7793 109.733L76.7285 105.936L75.8747 104.939V104.175C75.8747 104.175 74.9852 103.667 74.7762 103.542C74.5673 103.417 73.2896 101.506 73.2896 101.506L71.206 98.712L68.5731 95.2194L66.185 91.3626L64.8238 89.8342L62.591 86.8133L60.4357 84.2341L58.0476 81.0878L57.2058 79.9236L55.5043 77.8161L55.1401 76.8549L54.2923 75.034L51.946 72.0548L48.8594 67.3204L47.9519 66.3174L46.8773 65.3025L44.6623 62.7711L45.1578 62.0427L46.7937 62.1681L47.7429 63.3383L48.8415 62.604L49.8206 62.0189L50.6325 61.4218L50.543 60.4308C50.543 60.4308 49.7907 59.4935 49.6952 59.3263C49.5997 59.1531 49.0445 58.5084 48.9489 58.3352C48.8534 58.1621 48.734 57.5531 48.734 57.5531L50.2027 58.377L51.2176 59.4397L52.143 59.5114C52.143 59.5114 52.6206 56.9143 52.6445 56.5919C52.6684 56.2635 51.8266 56.5262 51.8266 56.5262H51.1161L51.3132 55.3919L50.74 54.3053L50.0057 53.8635L50.2266 53.1113L51.1818 52.8008L51.743 53.3381L52.943 53.374L53.4744 52.8665L53.1162 51.1411L52.3042 51.0217L51.9042 50.4963L52.8236 49.9649L52.5072 47.6903L51.552 48.0007L50.8415 47.2306L49.5221 47.2903L49.4743 46.5201L49.7012 45.7141L48.7161 44.9798L49.6116 44.7231L50.2206 45.3738L50.8714 45.4813L51.0564 43.0812C51.0564 43.0812 51.4266 42.5618 51.4445 42.3409C51.4624 42.12 50.3102 41.4335 50.3102 41.4335L49.4325 40.7648L48.4474 39.32L47.7549 39.0454L46.937 39.6961L46.0892 40.0125L45.0563 39.8752L45.7966 39.5469L46.2205 38.317L45.4683 38.0961L44.119 38.5379L43.2951 39.2961L42.9608 40.0902L42.1966 40.0305L41.3548 38.8663L40.3816 37.9707L39.8682 36.7826L39.0025 35.2363L38.1906 34.4065L34.7218 28.9318L32.7875 25.6004L30.268 20.6391L29.5695 19.051L29.3964 17.0629L28.4352 13.2061L28.4889 11.1285L28.0232 10.0538L26.9486 9.03891L27.6172 10.3524L27.4799 12.1494L27.9934 14.0002L28.5008 16.6689L28.8113 20.4182L29.5994 22.9436L31.8681 26.2452L36.2681 33.8214L34.8174 32.0124L33.5636 30.5437L31.9696 28.5019L30.8472 27.4273L30.1546 25.7854L28.6322 24.9018L27.9814 24.1377L26.9784 22.9615L26.0292 22.5018V21.6779L26.656 20.7406L26.2739 19.3376L25.9575 20.5734L25.3127 20.4122L24.9187 21.26L24.2739 21.8152L23.9814 20.6391L24.1724 18.9018L25.6948 17.648L25.8262 16.6689L25.8859 15.1942L25.3247 13.9464L25.3486 12.9076L25.9038 12.0718L24.8053 12.0957L24.7515 11.3792L23.8858 11.2001L22.2381 10.5255L21.1515 10.3882L21.4261 9.69563L22.1664 8.60308L22.0888 7.44485L20.9007 7.24186C20.9007 7.24186 18.6738 7.01499 18.2917 6.93141C17.9096 6.84783 17.2887 6.41797 17.2887 6.41797L16.1962 7.09858L14.5185 6.85977L14.4887 9.37921L16.0171 9.44488L15.7842 10.3046L14.6917 10.9315L13.814 10.9733C13.814 10.9733 13.5334 12.4837 13.5215 12.6509C13.5096 12.8121 14.232 13.4211 14.232 13.4211L13.7185 14.4241L13.1931 14.1614L12.6021 11.8688L12.3991 13.0569L12.5304 14.9315L11.808 14.3285L11.4558 13.2061L10.3274 12.9017L10.6379 12.43L10.5841 11.0031L9.47367 11.9046L8.54231 11.8867L8.36918 13.4091L7.9035 13.7554L7.32438 14.8599L6.63184 17.439L7.71245 17.6301L8.61993 17.9226L9.27665 17.9704L9.62293 17.0092L9.75427 16.0301L10.7334 14.6808L10.4946 16.3584V17.7316L10.7513 19.451L11.1513 20.6331L12.011 20.1495L12.8767 22.4063H13.7006L15.1215 23.1824L16.2738 23.1645L16.4768 24.06L17.7186 25.0332L17.444 25.7795L18.3395 26.2332L20.2559 29.7795L20.6977 31.8393L19.7365 30.8303L18.0589 27.684L16.0409 26.1556L14.7215 25.5048L13.8976 24.7824L13.1872 24.0123L11.4976 23.8809L10.9185 24.275L12.5483 24.4541L13.5752 25.3556L14.6558 26.9735L14.1305 27.3735L11.5633 26.5735L9.72442 25.5526L7.77812 24.5257L7.26468 24.8123L8.38112 25.2839L10.3513 26.7526L11.3125 27.0452L12.6021 28.078L14.6857 28.7885L18.0171 31.0751L21.5754 34.6393L25.5695 39.0036C25.5695 39.0036 25.1694 39.9588 25.2112 40.126C25.253 40.2931 25.8978 41.8812 25.8978 41.8812L25.5874 45.2007C25.5874 45.2007 25.068 46.2574 25.0023 46.4186C24.9366 46.5798 27.265 49.0575 27.265 49.0575L28.7994 51.147L31.6233 49.3381L31.0919 48.4186L32.28 47.9052L33.0024 48.5082L32.8233 49.3739H32.1666L31.8919 50.8366L32.9487 52.7829L34.1606 54.7949L35.3308 54.5561L37.2293 53.3859L37.9517 53.9352L37.6294 57.3621L38.3219 57.6367L40.0473 57.2785V57.9352L38.6025 58.974L39.0921 60.4368L40.3518 61.1353L41.5219 62.2696L43.7429 62.604L45.7489 65.004L46.1847 66.4607L47.1997 67.5234L50.3042 71.3265L51.5579 74.9862L53.8386 77.4102L57.4267 81.3625L61.9283 86.9745L65.0567 91.1656L70.9433 99.4045L73.5404 103.387L73.9165 104.181L74.9434 105.082L75.0031 106.455L75.4807 106.658L75.7912 106.187L80.5614 111.817L85.2421 116.509L91.9049 122.45L96.1796 126.724C96.1796 126.724 97.6064 127.453 98.1915 127.817L96.8064 126.79L96.8005 126.856ZM36.1248 45.4455L33.3547 44.4066L33.8741 40.9618L34.9606 40.8543L35.7547 42.8783L37.1995 44.6992L36.1248 45.4395V45.4455ZM44.316 44.4962L45.9399 44.8126L46.328 46.3649L45.6414 48.7231L45.922 51.6605L47.528 53.8157L46.9668 54.5322L45.7847 54.2516L44.5369 52.3769L43.0981 51.3142L41.7667 49.6903L41.3608 47.5649L41.3906 45.541L44.322 44.5022L44.316 44.4962ZM38.298 52.5918L37.6055 52.5381L36.5428 51.5053L37.1577 49.2724L38.9786 50.2993L42.722 51.9232L40.6981 52.6516L38.292 52.5918H38.298ZM42.8354 57.8278L41.1996 57.6367L40.0354 55.4576L41.8384 55.0874L43.3668 54.1919L45.3608 55.4874L47.5997 56.0427L46.7937 57.4397L42.8354 57.8278Z" fill="url(#paint17_linear_324_417)"/>
<path d="M98.1865 127.883L98.4313 128.062C98.4134 128.032 98.3238 127.966 98.1865 127.883Z" fill="url(#paint18_linear_324_417)"/>
<g style="mix-blend-mode:multiply">
<path d="M149.494 79.0101L122.705 66.8965L134.717 79.8101L154.921 88.6103L164.849 94.5327L149.494 79.0101Z" fill="url(#paint19_linear_324_417)"/>
<path d="M83.3496 51.9888L99.2006 71.4995L111.786 78.2758L134.718 79.8101L122.705 66.8965L83.3496 51.9888Z" fill="url(#paint20_linear_324_417)"/>
</g>
<path d="M34.5193 88.4072L31.7969 98.9208L37.3552 134.85L48.0837 171.656L53.7614 184.486L57.2958 185L49.9584 174.098L42.3821 148.247L36.7761 126.127L33.4566 102.001L34.5193 88.4072Z" fill="url(#paint21_linear_324_417)"/>
<path d="M80.0303 48.335L100.269 54.6634L143.894 72.813L159.393 81.8758L165.727 89.2729L166.288 94.3238L163.476 87.8043L156.193 80.7713L138.27 71.5174L104.061 57.159L94.8663 53.7918L82.0124 50.3529L80.0303 48.335Z" fill="url(#paint22_linear_324_417)"/>
<defs>
<linearGradient id="paint0_linear_324_417" x1="62.7822" y1="188.331" x2="33.0737" y2="75.8481" gradientUnits="userSpaceOnUse">
<stop stop-color="#D7E6CD"/>
<stop offset="0.83" stop-color="#D5DDE5"/>
</linearGradient>
<linearGradient id="paint1_linear_324_417" x1="77.0685" y1="56.3526" x2="167.991" y2="89.6076" gradientUnits="userSpaceOnUse">
<stop stop-color="#BCD0CD"/>
<stop offset="0.41" stop-color="#D7E6CE"/>
<stop offset="0.83" stop-color="#D5DDE5"/>
</linearGradient>
<linearGradient id="paint2_linear_324_417" x1="-38.3473" y1="12.7725" x2="241.872" y2="177.142" gradientUnits="userSpaceOnUse">
<stop stop-color="#BCD0CD"/>
<stop offset="0.41" stop-color="#D7E6CE"/>
<stop offset="0.83" stop-color="#D5DDE5"/>
</linearGradient>
<linearGradient id="paint3_linear_324_417" x1="230.799" y1="138.726" x2="291.456" y2="125.49" gradientUnits="userSpaceOnUse">
<stop stop-color="#BCD0CD"/>
<stop offset="0.41" stop-color="#D7E6CE"/>
<stop offset="0.83" stop-color="#D5DDE5"/>
</linearGradient>
<linearGradient id="paint4_linear_324_417" x1="8.55398" y1="74.8072" x2="89.1095" y2="104.27" gradientUnits="userSpaceOnUse">
<stop stop-color="#345F8C"/>
<stop offset="0.31" stop-color="#345B88"/>
<stop offset="0.56" stop-color="#34527E"/>
<stop offset="0.8" stop-color="#35416D"/>
<stop offset="1" stop-color="#372D58"/>
</linearGradient>
<linearGradient id="paint5_linear_324_417" x1="-1.88439" y1="62.8845" x2="102.058" y2="100.901" gradientUnits="userSpaceOnUse">
<stop stop-color="#345F8C"/>
<stop offset="0.31" stop-color="#345B88"/>
<stop offset="0.56" stop-color="#34527E"/>
<stop offset="0.8" stop-color="#35416D"/>
<stop offset="1" stop-color="#372D58"/>
</linearGradient>
<linearGradient id="paint6_linear_324_417" x1="71.966" y1="82.2796" x2="275.108" y2="206.405" gradientUnits="userSpaceOnUse">
<stop stop-color="#345F8C"/>
<stop offset="0.31" stop-color="#345B88"/>
<stop offset="0.56" stop-color="#34527E"/>
<stop offset="0.8" stop-color="#35416D"/>
<stop offset="1" stop-color="#372D58"/>
</linearGradient>
<linearGradient id="paint7_linear_324_417" x1="248.497" y1="156.21" x2="46.953" y2="84.7458" gradientUnits="userSpaceOnUse">
<stop stop-color="#345F8C"/>
<stop offset="0.31" stop-color="#345B88"/>
<stop offset="0.56" stop-color="#34527E"/>
<stop offset="0.8" stop-color="#35416D"/>
<stop offset="1" stop-color="#372D58"/>
</linearGradient>
<linearGradient id="paint8_linear_324_417" x1="199.792" y1="66.6523" x2="116.094" y2="160.978" gradientUnits="userSpaceOnUse">
<stop stop-color="#2EB7E7"/>
<stop offset="1" stop-color="#372D58"/>
</linearGradient>
<linearGradient id="paint9_linear_324_417" x1="41.9046" y1="79.5996" x2="117.033" y2="107.078" gradientUnits="userSpaceOnUse">
<stop stop-color="#345F8C"/>
<stop offset="0.31" stop-color="#345B88"/>
<stop offset="0.56" stop-color="#34527E"/>
<stop offset="0.8" stop-color="#35416D"/>
<stop offset="1" stop-color="#372D58"/>
</linearGradient>
<linearGradient id="paint10_linear_324_417" x1="242.434" y1="173.311" x2="40.8906" y2="101.84" gradientUnits="userSpaceOnUse">
<stop stop-color="#345F8C"/>
<stop offset="0.31" stop-color="#345B88"/>
<stop offset="0.56" stop-color="#34527E"/>
<stop offset="0.8" stop-color="#35416D"/>
<stop offset="1" stop-color="#372D58"/>
</linearGradient>
<linearGradient id="paint11_linear_324_417" x1="44.7419" y1="71.095" x2="114.476" y2="96.6002" gradientUnits="userSpaceOnUse">
<stop stop-color="#345F8C"/>
<stop offset="0.31" stop-color="#345B88"/>
<stop offset="0.56" stop-color="#34527E"/>
<stop offset="0.8" stop-color="#35416D"/>
<stop offset="1" stop-color="#372D58"/>
</linearGradient>
<linearGradient id="paint12_linear_324_417" x1="13.9467" y1="36.2345" x2="122.868" y2="76.0724" gradientUnits="userSpaceOnUse">
<stop stop-color="#345F8C"/>
<stop offset="0.31" stop-color="#345B88"/>
<stop offset="0.56" stop-color="#34527E"/>
<stop offset="0.8" stop-color="#35416D"/>
<stop offset="1" stop-color="#372D58"/>
</linearGradient>
<linearGradient id="paint13_linear_324_417" x1="28.2687" y1="39.8328" x2="118.485" y2="72.8294" gradientUnits="userSpaceOnUse">
<stop stop-color="#345F8C"/>
<stop offset="0.31" stop-color="#345B88"/>
<stop offset="0.56" stop-color="#34527E"/>
<stop offset="0.8" stop-color="#35416D"/>
<stop offset="1" stop-color="#372D58"/>
</linearGradient>
<linearGradient id="paint14_linear_324_417" x1="37.1214" y1="26.0214" x2="77.7776" y2="40.8914" gradientUnits="userSpaceOnUse">
<stop stop-color="#345F8C"/>
<stop offset="0.31" stop-color="#345B88"/>
<stop offset="0.56" stop-color="#34527E"/>
<stop offset="0.8" stop-color="#35416D"/>
<stop offset="1" stop-color="#372D58"/>
</linearGradient>
<linearGradient id="paint15_linear_324_417" x1="40.0876" y1="154.456" x2="65.1004" y2="163.605" gradientUnits="userSpaceOnUse">
<stop stop-color="#BCD0CD"/>
<stop offset="0.41" stop-color="#D7E6CE"/>
<stop offset="0.83" stop-color="#D5DDE5"/>
</linearGradient>
<linearGradient id="paint16_linear_324_417" x1="46.2749" y1="127.598" x2="57.6571" y2="131.761" gradientUnits="userSpaceOnUse">
<stop stop-color="#BCD0CD"/>
<stop offset="0.41" stop-color="#D7E6CE"/>
<stop offset="0.83" stop-color="#D5DDE5"/>
</linearGradient>
<linearGradient id="paint17_linear_324_417" x1="-3.46209" y1="44.3233" x2="113.124" y2="86.9646" gradientUnits="userSpaceOnUse">
<stop stop-color="#345F8C"/>
<stop offset="0.31" stop-color="#345B88"/>
<stop offset="0.56" stop-color="#34527E"/>
<stop offset="0.8" stop-color="#35416D"/>
<stop offset="1" stop-color="#372D58"/>
</linearGradient>
<linearGradient id="paint18_linear_324_417" x1="240.618" y1="178.438" x2="39.0722" y2="106.967" gradientUnits="userSpaceOnUse">
<stop stop-color="#345F8C"/>
<stop offset="0.31" stop-color="#345B88"/>
<stop offset="0.56" stop-color="#34527E"/>
<stop offset="0.8" stop-color="#35416D"/>
<stop offset="1" stop-color="#372D58"/>
</linearGradient>
<linearGradient id="paint19_linear_324_417" x1="117.663" y1="21.577" x2="146.45" y2="86.8018" gradientUnits="userSpaceOnUse">
<stop offset="0.01" stop-color="#D7E6CD"/>
<stop offset="0.83" stop-color="#D5DDE5"/>
</linearGradient>
<linearGradient id="paint20_linear_324_417" x1="95.8242" y1="47.1165" x2="134.082" y2="101.585" gradientUnits="userSpaceOnUse">
<stop stop-color="#D7E6CD"/>
<stop offset="0.83" stop-color="#D5DDE5"/>
</linearGradient>
<linearGradient id="paint21_linear_324_417" x1="20.1344" y1="127.668" x2="71.3879" y2="146.414" gradientUnits="userSpaceOnUse">
<stop stop-color="#345F8C"/>
<stop offset="0.31" stop-color="#345B88"/>
<stop offset="0.56" stop-color="#34527E"/>
<stop offset="0.8" stop-color="#35416D"/>
<stop offset="1" stop-color="#372D58"/>
</linearGradient>
<linearGradient id="paint22_linear_324_417" x1="77.8499" y1="54.2163" x2="168.773" y2="87.4713" gradientUnits="userSpaceOnUse">
<stop stop-color="#345F8C"/>
<stop offset="0.31" stop-color="#345B88"/>
<stop offset="0.56" stop-color="#34527E"/>
<stop offset="0.8" stop-color="#35416D"/>
<stop offset="1" stop-color="#372D58"/>
</linearGradient>
</defs>
</svg>
