<svg width="283" height="199" viewBox="0 0 283 199" fill="none" xmlns="http://www.w3.org/2000/svg">
<g clip-path="url(#clip0_324_341)">
<path d="M10.8875 4.0166L50.5362 6.79673L76.4446 15.7216L90.4546 24.8638L95.9807 32.7246L100.331 43.9875L110.627 56.3144L175.608 68.4241L173.481 87.7651L128.044 111.138L84.7263 100.512L45.6541 76.9218L35.0362 59.7165L3.6092 36.5538L0 8.92491L10.8875 4.0166Z" fill="url(#paint0_linear_324_341)"/>
<path d="M175.607 68.4238L211.707 93.2876L222.961 95.4158L220.625 100.939L212.553 105.615L184.735 102.422L128.044 111.137L173.481 87.7648L175.607 68.4238Z" fill="url(#paint1_linear_324_341)"/>
<path style="mix-blend-mode:multiply" d="M0 8.9248L53.0297 26.7671L98.9309 78.9L168.172 89.466L206.668 98.5258L222.962 95.4159L220.625 100.939L212.553 105.615L184.736 102.422L128.044 111.137L82.1879 97.4242L45.6541 76.9217L34.5944 56.6291L8.37903 38.6744L3.53432 26.205L0 8.9248Z" fill="url(#paint2_linear_324_341)"/>
<path d="M189.618 145.99L177.944 148.748L149.699 119.635L168.172 117.087L189.618 145.99Z" fill="url(#paint3_linear_324_341)"/>
<path d="M168.172 117.087L142.271 75.2282L107.946 62.4741L149.699 119.635L168.172 117.087Z" fill="url(#paint4_linear_324_341)"/>
<path d="M151.609 42.9235L149.7 40.1659L152.53 39.2891L147.364 36.1268L138.063 34.4258L151.609 42.9235Z" fill="url(#paint5_linear_324_341)"/>
<path d="M0 8.92488L9.12782 2.338L42.0449 0L85.3628 9.98897L118.699 23.7997L138.063 34.4256L151.609 42.9233L178.79 60.7731L211.49 86.9108L216.799 91.0547L222.962 95.416L211.707 93.2878L175.608 68.424L110.627 56.3144L100.331 43.9874L95.9807 32.7245L90.4546 24.8638L76.4446 15.7216L50.5363 6.79669L10.8875 4.01657L0 8.92488Z" fill="url(#paint6_linear_324_341)"/>
<path d="M220.625 100.939L229.506 97.3719L274.389 79.747L283 62.9238L265.298 78.3756L232.164 89.084L222.961 95.4161L220.625 100.939Z" fill="url(#paint7_linear_324_341)"/>
<path d="M283 62.9238L268.196 70.0053L226.451 84.333L221.704 87.9599L217.66 91.6618L222.962 95.4161L232.164 89.084L265.299 78.3756L283 62.9238Z" fill="url(#paint8_linear_324_341)"/>
<path d="M221.704 87.9601L222.962 85.0601L215.669 85.7869L211.49 86.911L217.66 91.6619L221.704 87.9601Z" fill="url(#paint9_linear_324_341)"/>
<path d="M43.1529 72.8677L29.1504 108.642L41.6478 119.635L50.5734 88.3644L45.6539 76.9217L43.1529 72.8677Z" fill="url(#paint10_linear_324_341)"/>
<path d="M45.6543 76.9219L57.635 84.1607L50.5739 88.3646L45.6543 76.9219Z" fill="url(#paint11_linear_324_341)"/>
<path d="M104.681 32.7245L101.709 29.5397L95.9805 28.4756L100.331 32.7245H104.681Z" fill="url(#paint12_linear_324_341)"/>
<path d="M107.946 62.474L100.331 43.9873L143.686 62.474L142.271 75.2281L107.946 62.474Z" fill="url(#paint13_linear_324_341)"/>
<path d="M28.0724 139.171L38.1288 136.451L34.6693 152.96L34.9015 199L19.8432 195.313L16.833 157.193L28.0724 139.171Z" fill="url(#paint14_linear_324_341)"/>
<path d="M16.8331 157.193L16.4062 151.768L29.1508 108.642L41.6482 119.635L38.1288 136.451L28.0725 139.171L16.8331 157.193Z" fill="url(#paint15_linear_324_341)"/>
<path style="mix-blend-mode:multiply" d="M57.6349 84.1605L45.6542 76.9217L43.1532 72.8677L30.1316 112.426L16.833 157.193L28.0724 139.171L38.1288 136.451L41.6481 119.635L50.5738 88.3644L57.6349 84.1605Z" fill="url(#paint16_linear_324_341)"/>
<path d="M100.331 43.9875L95.9807 32.7246L90.4546 24.8638L76.4446 15.7216L50.5363 6.79673L10.8875 4.0166L0 8.92491L10.4158 4.57862L11.9208 4.42875L49.0761 6.98407L52.5505 7.8758L75.5161 15.9914L80.4956 18.809L90.4321 25.3808L94.8875 32.1626L96.1305 34.3657L100.331 43.9875Z" fill="url(#paint17_linear_324_341)"/>
<path style="mix-blend-mode:multiply" d="M107.946 62.4741L124.899 104.326L134.663 110.118L141.934 109.002L107.946 62.4741Z" fill="url(#paint18_linear_324_341)"/>
</g>
<defs>
<linearGradient id="paint0_linear_324_341" x1="175.608" y1="57.5733" x2="0" y2="57.5733" gradientUnits="userSpaceOnUse">
<stop stop-color="#BCD0CD"/>
<stop offset="0.41" stop-color="#D7E6CE"/>
<stop offset="0.83" stop-color="#D5DDE5"/>
</linearGradient>
<linearGradient id="paint1_linear_324_341" x1="222.954" y1="89.7806" x2="128.036" y2="89.7806" gradientUnits="userSpaceOnUse">
<stop stop-color="#BCD0CD"/>
<stop offset="0.41" stop-color="#D7E6CE"/>
<stop offset="0.83" stop-color="#D5DDE5"/>
</linearGradient>
<linearGradient id="paint2_linear_324_341" x1="222.954" y1="60.0312" x2="0" y2="60.0312" gradientUnits="userSpaceOnUse">
<stop stop-color="#D7E6CD"/>
<stop offset="0.83" stop-color="#D5DDE5"/>
</linearGradient>
<linearGradient id="paint3_linear_324_341" x1="192.568" y1="168.306" x2="151.16" y2="104.249" gradientUnits="userSpaceOnUse">
<stop stop-color="#2EB7E7"/>
<stop offset="1" stop-color="#372D58"/>
</linearGradient>
<linearGradient id="paint4_linear_324_341" x1="168.434" y1="179.442" x2="138.742" y2="91.9301" gradientUnits="userSpaceOnUse">
<stop stop-color="#2EB7E7"/>
<stop offset="1" stop-color="#372D58"/>
</linearGradient>
<linearGradient id="paint5_linear_324_341" x1="145.05" y1="33.8638" x2="145.822" y2="43.3955" gradientUnits="userSpaceOnUse">
<stop stop-color="#2EB7E7"/>
<stop offset="1" stop-color="#372D58"/>
</linearGradient>
<linearGradient id="paint6_linear_324_341" x1="106.816" y1="-5.56025" x2="115.68" y2="104.085" gradientUnits="userSpaceOnUse">
<stop stop-color="#2EB7E7"/>
<stop offset="1" stop-color="#372D58"/>
</linearGradient>
<linearGradient id="paint7_linear_324_341" x1="282.992" y1="81.9276" x2="220.618" y2="81.9276" gradientUnits="userSpaceOnUse">
<stop stop-color="#BCD0CD"/>
<stop offset="0.41" stop-color="#D7E6CE"/>
<stop offset="0.83" stop-color="#D5DDE5"/>
</linearGradient>
<linearGradient id="paint8_linear_324_341" x1="289.949" y1="6.69187" x2="247.833" y2="81.6158" gradientUnits="userSpaceOnUse">
<stop stop-color="#2EB7E7"/>
<stop offset="1" stop-color="#372D58"/>
</linearGradient>
<linearGradient id="paint9_linear_324_341" x1="214.86" y1="56.6968" x2="217.829" y2="93.4675" gradientUnits="userSpaceOnUse">
<stop stop-color="#2EB7E7"/>
<stop offset="1" stop-color="#372D58"/>
</linearGradient>
<linearGradient id="paint10_linear_324_341" x1="59.0947" y1="44.7592" x2="0.527412" y2="215.983" gradientUnits="userSpaceOnUse">
<stop stop-color="#BCD0CD"/>
<stop offset="0.41" stop-color="#D7E6CE"/>
<stop offset="0.83" stop-color="#D5DDE5"/>
</linearGradient>
<linearGradient id="paint11_linear_324_341" x1="69.3163" y1="28.7905" x2="10.7489" y2="200.007" gradientUnits="userSpaceOnUse">
<stop stop-color="#BCD0CD"/>
<stop offset="0.41" stop-color="#D7E6CE"/>
<stop offset="0.83" stop-color="#D5DDE5"/>
</linearGradient>
<linearGradient id="paint12_linear_324_341" x1="105.146" y1="19.3634" x2="92.3101" y2="49.2633" gradientUnits="userSpaceOnUse">
<stop stop-color="#D7E6CD"/>
<stop offset="0.83" stop-color="#5DA7AF"/>
</linearGradient>
<linearGradient id="paint13_linear_324_341" x1="104.809" y1="-35.1751" x2="134.654" y2="118.016" gradientUnits="userSpaceOnUse">
<stop stop-color="#2EB7E7"/>
<stop offset="1" stop-color="#372D58"/>
</linearGradient>
<linearGradient id="paint14_linear_324_341" x1="38.1213" y1="167.722" x2="16.833" y2="167.722" gradientUnits="userSpaceOnUse">
<stop stop-color="#BCD0CD"/>
<stop offset="0.41" stop-color="#D7E6CE"/>
<stop offset="0.83" stop-color="#D5DDE5"/>
</linearGradient>
<linearGradient id="paint15_linear_324_341" x1="16.6234" y1="163.046" x2="50.4523" y2="82.6275" gradientUnits="userSpaceOnUse">
<stop stop-color="#BCD0CD"/>
<stop offset="0.41" stop-color="#D7E6CE"/>
<stop offset="0.83" stop-color="#D5DDE5"/>
</linearGradient>
<linearGradient id="paint16_linear_324_341" x1="71.6149" y1="16.3734" x2="-43.9752" y2="354.296" gradientUnits="userSpaceOnUse">
<stop stop-color="#D7E6CD"/>
<stop offset="0.83" stop-color="#D5DDE5"/>
</linearGradient>
<linearGradient id="paint17_linear_324_341" x1="60.5851" y1="-4.06899" x2="35.6241" y2="68.9147" gradientUnits="userSpaceOnUse">
<stop stop-color="#372F5A"/>
<stop offset="0.35" stop-color="#332C56"/>
<stop offset="0.68" stop-color="#2A264A"/>
<stop offset="1" stop-color="#1B1D38"/>
</linearGradient>
<linearGradient id="paint18_linear_324_341" x1="138.632" y1="45.6435" x2="90.9368" y2="185.07" gradientUnits="userSpaceOnUse">
<stop stop-color="#D7E6CD"/>
<stop offset="0.83" stop-color="#D5DDE5"/>
</linearGradient>
<clipPath id="clip0_324_341">
<rect width="283" height="199" fill="white"/>
</clipPath>
</defs>
</svg>
