<svg width="400" height="124" viewBox="0 0 400 124" fill="none" xmlns="http://www.w3.org/2000/svg">
<g clip-path="url(#clip0_324_363)">
<path d="M128.543 7.56055L125.403 8.52572L94.9346 33.9082L68.0039 75.7241L105.827 46.5063L179.485 23.9347L186.975 24.2818L179.087 20.0909L128.543 7.56055Z" fill="url(#paint0_linear_324_363)"/>
<path d="M394.414 78.1202L387.652 74.6913L336.49 53.8807L274.419 19.2444L244.78 11.2351L233.329 9.22852L186.975 24.2819L179.485 23.9348L105.827 46.5064L141.162 45.8545L176.776 45.1433L196.014 44.5252L211.612 45.2534L218.89 42.7558L229.698 35.4746L245.195 34.5348L265.787 39.0051L323.812 59.604L364.572 70.1109L397.326 81.6592L394.414 78.1202Z" fill="url(#paint1_linear_324_363)"/>
<path d="M0 112.443L11.3326 116.609L50.5353 119.733L59.5828 105.374L40.3453 111.198L21.421 114.213L0 112.443Z" fill="url(#paint2_linear_324_363)"/>
<path d="M52.8711 120.529L57.5599 118.294L66.6242 108.557L72.4386 117.396L80.3773 122.992L84.626 123.661L75.6801 124L60.9198 120.977L52.8711 120.529Z" fill="url(#paint3_linear_324_363)"/>
<path d="M84.6258 123.661L80.1656 121.892L74.0126 117.092L67.4027 107.101L66.624 108.557L72.4384 117.396L80.3771 122.993L84.6258 123.661Z" fill="url(#paint4_linear_324_363)"/>
<path d="M50.5352 119.733L59.5826 105.374L67.4028 107.101L66.6242 108.557L57.5598 118.293L52.8711 120.529L50.5352 119.733Z" fill="url(#paint5_linear_324_363)"/>
<path d="M197.385 82.9546L194.88 89.7701L192.002 94.4097L196.42 95.3664L208.726 93.1821L219.593 87.3233L199.915 83.4202L197.385 82.9546Z" fill="url(#paint6_linear_324_363)"/>
<path d="M140.536 69.061L171.969 72.8116L147.467 55.7093L162.947 59.4854L174.491 53.0508L171.969 65.1071L185.494 70.314L241.911 75.3092L295.62 79.6779L377.851 85.3081L375.354 79.8896L365.977 70.6019L364.572 70.1108L323.812 59.6039L265.787 39.005L245.195 34.5347L229.698 35.4744L218.891 42.7556L211.612 45.2532L196.014 44.5251L141.162 45.8543L105.827 46.5063L81.6556 68.8408L77.4238 84.5631L78.6341 88.1359L113.681 68.8493L140.536 69.061Z" fill="url(#paint7_linear_324_363)"/>
<path d="M304.007 100.734L365.638 99.1171L389.666 96.628L395.396 94.2574L400 86.9085L397.325 81.6593L365.977 70.6021L375.354 79.8898L377.851 85.3083L295.62 79.6781L304.007 100.734Z" fill="url(#paint8_linear_324_363)"/>
<path d="M113.681 68.8496L78.6338 88.1362L84.609 90.7693L108.197 77.5193L113.681 68.8496Z" fill="url(#paint9_linear_324_363)"/>
<path d="M108.197 77.5189L155.059 76.3844L199.916 83.42L254.818 94.6296L304.008 100.734L295.621 79.6778L241.911 75.3091L185.494 70.3139L171.969 65.107L174.492 53.0508L162.947 59.4853L147.468 55.7093L171.969 72.8115L140.536 69.0609L113.682 68.8492L108.197 77.5189Z" fill="url(#paint10_linear_324_363)"/>
<path d="M78.6343 88.1362L79.8108 91.616L67.4033 107.101L84.6095 90.7693L78.6343 88.1362Z" fill="url(#paint11_linear_324_363)"/>
<path d="M186.975 24.2819L233.329 9.22846L180.619 0L149.321 1.14297L128.543 7.56056L179.087 20.0909L186.975 24.2819Z" fill="url(#paint12_linear_324_363)"/>
<path d="M183.937 32.511L193.212 30.7754L189.505 32.1639L183.937 32.511Z" fill="url(#paint13_linear_324_363)"/>
<path d="M181.736 35.8723L198.198 33.4424L190.428 35.4066L181.736 35.8723Z" fill="url(#paint14_linear_324_363)"/>
<path d="M179.07 38.6577L198.773 37.2607L188.575 39.1149L179.07 38.6577Z" fill="url(#paint15_linear_324_363)"/>
<path d="M175.363 42.4849L189.963 41.4351L201.439 40.8594L191.816 42.7135L175.363 42.4849Z" fill="url(#paint16_linear_324_363)"/>
<path d="M232.847 38.1924L225.661 39.6994L223.909 40.69L219.754 43.0606L212.797 46.3033L206.187 47.8103L197.96 48.1659L181.736 48.6231L170.962 47.7002L181.16 49.783L202.598 49.4359L210.478 48.0474L217.782 45.0333L223.071 41.9092L225.441 40.4783L232.847 38.1924Z" fill="url(#paint17_linear_324_363)"/>
<path d="M172.121 51.5271L193.237 51.8319L206.161 51.2308L217.054 48.9025L230.51 44.0851L240.277 41.9092L230.053 45.0672L218.856 49.0464L213.448 50.5534L203.901 52.433L188.574 52.6531L176.624 52.5854L172.121 51.5271Z" fill="url(#paint18_linear_324_363)"/>
<path d="M171.74 55.5907L190.529 55.5145L203.834 54.6847L212.094 52.2803L206.085 54.761L200.677 55.7346L182.565 56.4119L171.74 55.5907Z" fill="url(#paint19_linear_324_363)"/>
<path d="M233.964 47.3193L211.874 54.0079L202.022 56.4123L177.902 58.2919L168.059 57.9956L181.042 58.8253L204.578 56.7171L215.632 53.7115L233.964 47.3193Z" fill="url(#paint20_linear_324_363)"/>
<path d="M229.233 53.5591L215.929 56.5647L204.359 58.6728L187.449 59.4941L170.387 59.274L185.122 60.2476L197.893 59.7989L210.893 58.368L219.763 56.5647L229.233 53.5591Z" fill="url(#paint21_linear_324_363)"/>
<path d="M224.553 59.1553L206.348 62.5503L187 63.2276L177.166 62.3217L165.74 60.2898L175.126 62.889L183.835 63.905L199.899 64.2436L213.483 62.1016L224.553 59.1553Z" fill="url(#paint22_linear_324_363)"/>
<path d="M215.472 29.4973L218.459 30.581L223.334 30.4455L219.509 28.6845L217.647 28.4136L215.472 29.4973Z" fill="url(#paint23_linear_324_363)"/>
<path d="M57.9155 101.318L45.8381 106.669L18.9243 112.393L0 112.443L21.421 114.213L40.3453 111.199L59.5828 105.374L57.9155 101.318Z" fill="url(#paint24_linear_324_363)"/>
<path d="M397.249 81.8707L365.901 70.8135L323.753 59.824L265.71 39.2166L245.178 34.7633L229.775 35.6946L218.958 42.9673L211.68 45.4564L218.137 42.4847L229.631 35.2543L229.69 35.2459L240.024 34.6447L246.405 34.5093L268.114 39.6569L326.656 60.2897L366.028 70.3902L397.402 81.4474L397.249 81.8707Z" fill="url(#paint25_linear_324_363)"/>
<path d="M105.827 46.5063L68.0035 75.7242L57.915 101.318L59.5823 105.374L81.655 68.8409L105.827 46.5063Z" fill="url(#paint26_linear_324_363)"/>
<path d="M59.583 105.374L67.4032 107.101L79.8107 91.6157L67.4032 107.101L59.583 105.374Z" fill="url(#paint27_linear_324_363)"/>
<path d="M75.2236 65.5134L100.14 62.8634L150.904 53.237L174.492 53.0508L162.947 59.4853L147.468 55.7093L104.761 62.8465L95.0789 64.2519L75.2236 65.5134Z" fill="url(#paint28_linear_324_363)"/>
<path d="M75.2236 65.5137L116.932 53.322L148.069 46.7774L158.419 38.9883L171.749 42.7982L174.492 53.0511L150.904 53.2374L100.14 62.8637L75.2236 65.5137Z" fill="url(#paint29_linear_324_363)"/>
<path d="M59.583 105.374L67.4032 107.101L79.8107 91.6156L77.424 84.5631L81.6557 68.8408L59.583 105.374Z" fill="url(#paint30_linear_324_363)"/>
<path style="mix-blend-mode:multiply" d="M197.385 82.9546L219.593 87.3233L213.136 89.1605L196.86 84.377L197.385 82.9546Z" fill="url(#paint31_linear_324_363)"/>
<path style="mix-blend-mode:multiply" d="M174.491 53.0508L163.311 66.7665L140.536 69.0609L109.398 67.2999L79.8271 77.9168L104.76 62.8465L147.467 55.7093L162.947 59.4853L174.491 53.0508Z" fill="url(#paint32_linear_324_363)"/>
</g>
<defs>
<linearGradient id="paint0_linear_324_363" x1="97.3298" y1="-83.1831" x2="128.623" y2="54.8918" gradientUnits="userSpaceOnUse">
<stop stop-color="#EBEBF1"/>
<stop offset="0.48" stop-color="#2EB7E7"/>
<stop offset="1" stop-color="#372D58"/>
</linearGradient>
<linearGradient id="paint1_linear_324_363" x1="244.332" y1="-27.1689" x2="250.413" y2="49.427" gradientUnits="userSpaceOnUse">
<stop stop-color="#2EB7E7"/>
<stop offset="1" stop-color="#372D58"/>
</linearGradient>
<linearGradient id="paint2_linear_324_363" x1="28.7588" y1="92.6484" x2="31.4606" y2="135.099" gradientUnits="userSpaceOnUse">
<stop stop-color="#8CD0CD"/>
<stop offset="1" stop-color="#D5DDE5"/>
</linearGradient>
<linearGradient id="paint3_linear_324_363" x1="52.8711" y1="116.279" x2="84.626" y2="116.279" gradientUnits="userSpaceOnUse">
<stop stop-color="#D7E6CD"/>
<stop offset="0.83" stop-color="#D5DDE5"/>
</linearGradient>
<linearGradient id="paint4_linear_324_363" x1="69.29" y1="79.2972" x2="77.9965" y2="129.883" gradientUnits="userSpaceOnUse">
<stop stop-color="#2EB7E7"/>
<stop offset="1" stop-color="#372D58"/>
</linearGradient>
<linearGradient id="paint5_linear_324_363" x1="46.1849" y1="94.7566" x2="61.9092" y2="117.695" gradientUnits="userSpaceOnUse">
<stop stop-color="#8CD0CD"/>
<stop offset="1" stop-color="#D5DDE5"/>
</linearGradient>
<linearGradient id="paint6_linear_324_363" x1="164.631" y1="141.221" x2="206.087" y2="88.2435" gradientUnits="userSpaceOnUse">
<stop stop-color="#8CD0CD"/>
<stop offset="1" stop-color="#D5DDE5"/>
</linearGradient>
<linearGradient id="paint7_linear_324_363" x1="222.953" y1="-1.38858" x2="228.111" y2="93.6389" gradientUnits="userSpaceOnUse">
<stop stop-color="#BCD0CD"/>
<stop offset="0.41" stop-color="#D7E6CE"/>
<stop offset="0.83" stop-color="#D5DDE5"/>
</linearGradient>
<linearGradient id="paint8_linear_324_363" x1="408.98" y1="137.775" x2="266.136" y2="23.7559" gradientUnits="userSpaceOnUse">
<stop stop-color="#D7E6CD"/>
<stop offset="1" stop-color="#D5DDE5"/>
</linearGradient>
<linearGradient id="paint9_linear_324_363" x1="93.2163" y1="40.5885" x2="98.2641" y2="105.662" gradientUnits="userSpaceOnUse">
<stop stop-color="#D7E6CD"/>
<stop offset="0.83" stop-color="#D5DDE5"/>
</linearGradient>
<linearGradient id="paint10_linear_324_363" x1="208.286" y1="83.7333" x2="179.883" y2="60.8752" gradientUnits="userSpaceOnUse">
<stop stop-color="#D7E6CD"/>
<stop offset="1" stop-color="#D5DDE5"/>
</linearGradient>
<linearGradient id="paint11_linear_324_363" x1="76.9078" y1="78.7384" x2="75.6966" y2="105.941" gradientUnits="userSpaceOnUse">
<stop stop-color="#D7E6CD"/>
<stop offset="0.83" stop-color="#D5DDE5"/>
</linearGradient>
<linearGradient id="paint12_linear_324_363" x1="138.936" y1="-90.7691" x2="223.097" y2="107.799" gradientUnits="userSpaceOnUse">
<stop stop-color="#EBEBF1"/>
<stop offset="0.48" stop-color="#2EB7E7"/>
<stop offset="1" stop-color="#372D58"/>
</linearGradient>
<linearGradient id="paint13_linear_324_363" x1="188.287" y1="26.2543" x2="188.753" y2="34.9324" gradientUnits="userSpaceOnUse">
<stop stop-color="#2EB7E7"/>
<stop offset="1" stop-color="#372D58"/>
</linearGradient>
<linearGradient id="paint14_linear_324_363" x1="189.65" y1="30.0473" x2="190.115" y2="36.8628" gradientUnits="userSpaceOnUse">
<stop stop-color="#2EB7E7"/>
<stop offset="1" stop-color="#372D58"/>
</linearGradient>
<linearGradient id="paint15_linear_324_363" x1="188.312" y1="31.7491" x2="189.159" y2="40.334" gradientUnits="userSpaceOnUse">
<stop stop-color="#2EB7E7"/>
<stop offset="1" stop-color="#372D58"/>
</linearGradient>
<linearGradient id="paint16_linear_324_363" x1="187.263" y1="33.0702" x2="188.94" y2="45.7613" gradientUnits="userSpaceOnUse">
<stop stop-color="#2EB7E7"/>
<stop offset="1" stop-color="#372D58"/>
</linearGradient>
<linearGradient id="paint17_linear_324_363" x1="200.745" y1="36.8547" x2="203.447" y2="51.0357" gradientUnits="userSpaceOnUse">
<stop stop-color="#8CD0CD"/>
<stop offset="1" stop-color="#D5DDE5"/>
</linearGradient>
<linearGradient id="paint18_linear_324_363" x1="206.136" y1="46.117" x2="206.881" y2="53.2965" gradientUnits="userSpaceOnUse">
<stop stop-color="#8CD0CD"/>
<stop offset="1" stop-color="#D5DDE5"/>
</linearGradient>
<linearGradient id="paint19_linear_324_363" x1="191.392" y1="47.6999" x2="192.231" y2="57.5887" gradientUnits="userSpaceOnUse">
<stop stop-color="#8CD0CD"/>
<stop offset="1" stop-color="#D5DDE5"/>
</linearGradient>
<linearGradient id="paint20_linear_324_363" x1="200.626" y1="49.673" x2="201.744" y2="58.3511" gradientUnits="userSpaceOnUse">
<stop stop-color="#8CD0CD"/>
<stop offset="1" stop-color="#D5DDE5"/>
</linearGradient>
<linearGradient id="paint21_linear_324_363" x1="199.535" y1="51.4763" x2="200.094" y2="61.3652" gradientUnits="userSpaceOnUse">
<stop stop-color="#8CD0CD"/>
<stop offset="1" stop-color="#D5DDE5"/>
</linearGradient>
<linearGradient id="paint22_linear_324_363" x1="195.176" y1="58.5626" x2="194.99" y2="65.2765" gradientUnits="userSpaceOnUse">
<stop stop-color="#8CD0CD"/>
<stop offset="1" stop-color="#D5DDE5"/>
</linearGradient>
<linearGradient id="paint23_linear_324_363" x1="218.857" y1="22.9019" x2="219.975" y2="37.3033" gradientUnits="userSpaceOnUse">
<stop stop-color="#D7E6CD"/>
<stop offset="0.83" stop-color="#5DA7AF"/>
</linearGradient>
<linearGradient id="paint24_linear_324_363" x1="28.3103" y1="98.1942" x2="30.6817" y2="115.356" gradientUnits="userSpaceOnUse">
<stop stop-color="#2EB7E7"/>
<stop offset="0.98" stop-color="#372D58"/>
</linearGradient>
<linearGradient id="paint25_linear_324_363" x1="211.68" y1="58.19" x2="397.402" y2="58.19" gradientUnits="userSpaceOnUse">
<stop stop-color="#372F5A"/>
<stop offset="0.35" stop-color="#332C56"/>
<stop offset="0.68" stop-color="#2A264A"/>
<stop offset="1" stop-color="#1B1D38"/>
</linearGradient>
<linearGradient id="paint26_linear_324_363" x1="64.6181" y1="43.0944" x2="92.0801" y2="92.9367" gradientUnits="userSpaceOnUse">
<stop stop-color="#2EB7E7"/>
<stop offset="0.3" stop-color="#3183B1"/>
<stop offset="0.61" stop-color="#345481"/>
<stop offset="0.84" stop-color="#363763"/>
<stop offset="0.98" stop-color="#372D58"/>
</linearGradient>
<linearGradient id="paint27_linear_324_363" x1="54.8858" y1="46.7011" x2="70.1131" y2="99.9015" gradientUnits="userSpaceOnUse">
<stop stop-color="#2EB7E7"/>
<stop offset="0.3" stop-color="#3183B1"/>
<stop offset="0.61" stop-color="#345481"/>
<stop offset="0.84" stop-color="#363763"/>
<stop offset="0.98" stop-color="#372D58"/>
</linearGradient>
<linearGradient id="paint28_linear_324_363" x1="75.2236" y1="59.2821" x2="174.492" y2="59.2821" gradientUnits="userSpaceOnUse">
<stop stop-color="#372F5A"/>
<stop offset="0.35" stop-color="#332C56"/>
<stop offset="0.68" stop-color="#2A264A"/>
<stop offset="1" stop-color="#1B1D38"/>
</linearGradient>
<linearGradient id="paint29_linear_324_363" x1="104.786" y1="46.1086" x2="186.561" y2="81.2741" gradientUnits="userSpaceOnUse">
<stop stop-color="#2EB7E7"/>
<stop offset="1" stop-color="#372D58"/>
</linearGradient>
<linearGradient id="paint30_linear_324_363" x1="60.2093" y1="69.9669" x2="78.9148" y2="100.754" gradientUnits="userSpaceOnUse">
<stop stop-color="#8CD0CD"/>
<stop offset="1" stop-color="#D5DDE5"/>
</linearGradient>
<linearGradient id="paint31_linear_324_363" x1="187.305" y1="112.223" x2="208.769" y2="84.7992" gradientUnits="userSpaceOnUse">
<stop stop-color="#D7E6CD"/>
<stop offset="0.83" stop-color="#D5DDE5"/>
</linearGradient>
<linearGradient id="paint32_linear_324_363" x1="79.8271" y1="65.488" x2="174.491" y2="65.488" gradientUnits="userSpaceOnUse">
<stop stop-color="#D7E6CD"/>
<stop offset="0.83" stop-color="#D5DDE5"/>
</linearGradient>
<clipPath id="clip0_324_363">
<rect width="400" height="124" fill="white"/>
</clipPath>
</defs>
</svg>
