<svg width="76" height="61" viewBox="0 0 76 61" fill="none" xmlns="http://www.w3.org/2000/svg">
<path d="M39.1826 25.6952L74.8495 21.3203C74.8495 21.3203 66.7214 30.1161 53.6581 33.7542C46.8886 35.6423 39.8811 32.6874 39.1826 25.6952Z" fill="#F1A160"/>
<path d="M54.9551 47.978L63.5207 60.3045C63.5207 60.3045 57.5494 58.5775 54.8247 54.9472C53.3971 53.0437 52.4991 49.6205 54.9628 47.978H54.9551Z" fill="#EF964E"/>
<path d="M0.13164 29.8414C-0.0218648 29.8567 -0.0525958 29.6341 0.100909 29.6034L24.4238 25.2055C24.9227 25.1057 25.4216 25.3974 25.5751 25.8886C25.767 26.495 25.3602 27.1243 24.7232 27.1934L0.13164 29.8491V29.8414Z" fill="#213227"/>
<path d="M35.2159 19.5178C33.4122 17.3534 30.4189 16.3786 27.579 17.2843C23.8335 18.4816 21.7612 22.4881 22.9585 26.2336C23.0813 26.6174 23.2348 26.9781 23.4113 27.3235L39.5064 25.5812C37.1731 22.2195 35.4538 19.7711 35.2159 19.5178Z" fill="#EF964E"/>
<path d="M23.4022 27.3218C23.4022 27.3218 23.4176 27.3602 23.4253 27.3755C23.4253 27.3755 23.4406 27.4062 23.4483 27.4216C23.5327 27.5828 23.6248 27.7439 23.7246 27.8975C26.7794 33.1396 30.5479 37.0156 34.4009 39.8862L32.9195 26.2856L23.3945 27.3141L23.4022 27.3218Z" fill="#F1BF43"/>
<path d="M32.9277 26.2951L34.4091 39.8957C38.807 43.173 43.3124 45.1379 46.9812 46.3122L33.0966 26.2798L32.9354 26.2951H32.9277Z" fill="white"/>
<path d="M39.5066 25.5801L33.0977 26.2708L46.9822 46.3032C51.6565 47.7999 54.9721 48.0072 54.9721 48.0072C54.9721 48.0072 45.3244 33.9538 39.5066 25.5801Z" fill="#EF964E"/>
<path d="M27.8625 24.3064C28.3712 24.3064 28.7835 23.8941 28.7835 23.3854C28.7835 22.8767 28.3712 22.4644 27.8625 22.4644C27.3538 22.4644 26.9414 22.8767 26.9414 23.3854C26.9414 23.8941 27.3538 24.3064 27.8625 24.3064Z" fill="#213227"/>
<path d="M38.9062 25.5662L75.7167 0C75.7167 0 70.5666 17.8296 59.7215 25.9807C54.0418 30.2482 43.8107 32.9191 38.9139 25.5739L38.9062 25.5662Z" fill="#EF964E"/>
</svg>
