<svg width="88" height="88" viewBox="0 0 88 88" fill="none" xmlns="http://www.w3.org/2000/svg">
<path fill-rule="evenodd" clip-rule="evenodd" d="M44 87C67.7482 87 87 67.7482 87 44C87 20.2518 67.7482 1 44 1C20.2518 1 1 20.2518 1 44C1 67.7482 20.2518 87 44 87ZM44 88C68.3005 88 88 68.3005 88 44C88 19.6995 68.3005 0 44 0C19.6995 0 0 19.6995 0 44C0 68.3005 19.6995 88 44 88Z" fill="white"/>
<path d="M53.9402 42.1302H52.6652C52.5452 39.9702 53.8352 38.3652 56.0852 38.3652C57.9302 38.3652 59.4152 39.4452 59.4152 41.4252C59.4152 43.3002 58.1552 44.2302 56.8352 45.0702C55.5152 45.8652 54.0902 46.5702 53.8502 47.8752H59.3102V49.0002H52.3652C52.5602 46.4952 53.8502 45.5502 55.3502 44.6502C57.1502 43.5252 58.0652 42.8952 58.0652 41.4102C58.0652 40.2552 57.1352 39.4902 56.0102 39.4902C54.5252 39.4902 53.8952 40.8552 53.9402 42.1302Z" fill="white"/>
<path d="M45.6053 42.1302H44.3303C44.2103 39.9702 45.5003 38.3652 47.7503 38.3652C49.5953 38.3652 51.0803 39.4452 51.0803 41.4252C51.0803 43.3002 49.8203 44.2302 48.5003 45.0702C47.1803 45.8652 45.7553 46.5702 45.5153 47.8752H50.9753V49.0002H44.0303C44.2253 46.4952 45.5153 45.5502 47.0153 44.6502C48.8153 43.5252 49.7303 42.8952 49.7303 41.4102C49.7303 40.2552 48.8003 39.4902 47.6753 39.4902C46.1903 39.4902 45.5603 40.8552 45.6053 42.1302Z" fill="white"/>
<path d="M37.3148 43.7652C37.3148 45.3552 37.3298 48.0552 39.5048 48.0552C41.6798 48.0552 41.6948 45.3552 41.6948 43.7652C41.6948 42.1902 41.6798 39.4902 39.5048 39.4902C37.3298 39.4902 37.3148 42.1902 37.3148 43.7652ZM35.9648 43.7802C35.9648 41.4402 36.1748 38.3652 39.5048 38.3652C42.8348 38.3652 43.0448 41.4402 43.0448 43.7802C43.0448 46.1202 42.8348 49.1802 39.5048 49.1802C36.1748 49.1802 35.9648 46.1202 35.9648 43.7802Z" fill="white"/>
<path d="M28.9354 42.1302H27.6604C27.5404 39.9702 28.8304 38.3652 31.0804 38.3652C32.9254 38.3652 34.4104 39.4452 34.4104 41.4252C34.4104 43.3002 33.1504 44.2302 31.8304 45.0702C30.5104 45.8652 29.0854 46.5702 28.8454 47.8752H34.3054V49.0002H27.3604C27.5554 46.4952 28.8454 45.5502 30.3454 44.6502C32.1454 43.5252 33.0604 42.8952 33.0604 41.4102C33.0604 40.2552 32.1304 39.4902 31.0054 39.4902C29.5204 39.4902 28.8904 40.8552 28.9354 42.1302Z" fill="white"/>
</svg>
