<svg width="261" height="204" viewBox="0 0 261 204" fill="none" xmlns="http://www.w3.org/2000/svg">
<path d="M142.36 57.5679C140.72 42.8009 135.81 24.9639 113.36 12.0159C100.23 28.5559 100.66 42.9009 105.41 58.3209C110.15 73.7319 132.82 82.4059 132.82 82.4059L142.36 57.5679Z" fill="#385F4C"/>
<path d="M131.97 77.6068C131.97 77.6068 120.04 26.9658 114.34 14.5168C117.39 29.5138 129.75 76.5558 129.75 76.5558L131.97 77.6148V77.6068Z" fill="#394D29"/>
<path d="M107.27 28.8648C107.07 28.6498 107.04 28.3128 107.21 28.0668C107.42 27.7828 107.81 27.7138 108.1 27.9128L119.42 35.9418L125.27 24.4978C125.43 24.1828 125.82 24.0608 126.13 24.2218C126.45 24.3828 126.57 24.7668 126.41 25.0808L119.88 37.8298L107.37 28.9498C107.37 28.9498 107.3 28.8958 107.27 28.8648Z" fill="#394D29"/>
<path d="M108.32 38.5058C108.13 38.3068 108.09 37.9918 108.24 37.7458C108.42 37.4468 108.82 37.3468 109.12 37.5318L122.38 45.5678L130.2 29.5488C130.35 29.2348 130.74 29.1038 131.05 29.2578C131.37 29.4108 131.5 29.7948 131.34 30.1098L122.91 47.3788L108.46 38.6208C108.4 38.5908 108.36 38.5518 108.32 38.5058Z" fill="#394D29"/>
<path d="M108.32 46.9368C108.13 46.7368 108.09 46.4378 108.23 46.1918C108.41 45.8848 108.79 45.7778 109.1 45.9538L125.35 55.1408L134.01 36.3748C134.16 36.0528 134.54 35.9148 134.86 36.0608C135.18 36.2068 135.32 36.5828 135.17 36.9048L125.92 56.9298L108.47 47.0668C108.41 47.0358 108.36 46.9898 108.32 46.9438V46.9368Z" fill="#394D29"/>
<path d="M108.67 56.4339C108.49 56.2419 108.45 55.9509 108.57 55.7129C108.73 55.3979 109.12 55.2749 109.43 55.4359L127.59 64.8459L137.9 47.4769C138.07 47.1779 138.47 47.0779 138.77 47.2549C139.07 47.4309 139.17 47.8229 139 48.1299L128.07 66.5349L108.85 56.5719C108.78 56.5339 108.72 56.4959 108.67 56.4419V56.4339Z" fill="#394D29"/>
<path d="M111.5 64.8569C111.32 64.6649 111.27 64.3739 111.4 64.1359C111.56 63.8209 111.94 63.6979 112.26 63.8589L130.41 73.2689L140.72 55.8999C140.9 55.6009 141.29 55.5009 141.6 55.6779C141.9 55.8619 142 56.2459 141.82 56.5529L130.9 74.9579L111.67 64.9949C111.6 64.9569 111.55 64.9189 111.5 64.8649V64.8569Z" fill="#394D29"/>
<path d="M166.12 77.6618C183.91 68.5438 205.44 48.1038 200.4 5.88281C150.41 10.3728 126.03 46.0698 134.32 80.5168C134.51 81.3228 135.91 83.0568 135.91 83.0568C135.91 83.0568 148.32 86.7798 166.11 77.6618H166.12Z" fill="#3C7240"/>
<path d="M135.91 83.0599C135.91 83.0599 186.87 27.3829 196.87 10.8589C178.36 26.9609 134.66 81.1559 134.66 81.1559L135.91 83.0599Z" fill="#394D29"/>
<path d="M179.7 29.7769L178.11 13.0759C178.08 12.6999 178.38 12.3469 178.78 12.2929C179.19 12.2389 179.55 12.5079 179.58 12.8839L181.02 28.0429L198.06 24.0359C198.45 23.9439 198.83 24.1739 198.92 24.5349C199.01 24.9029 198.75 25.2869 198.35 25.3789L179.7 29.7689V29.7769Z" fill="#394D29"/>
<path d="M170.27 40.8109L165.99 17.8769C165.92 17.5009 166.19 17.1329 166.59 17.0479C166.99 16.9639 167.37 17.2019 167.44 17.5779L171.48 39.1989L196.67 34.7089C197.07 34.6399 197.44 34.8859 197.5 35.2619C197.57 35.6379 197.28 35.9989 196.88 36.0749L170.27 40.8189V40.8109Z" fill="#394D29"/>
<path d="M161.96 51.8719L156.02 24.0489C155.94 23.6799 156.2 23.3039 156.59 23.2119C156.99 23.1199 157.38 23.3499 157.46 23.7189L163.12 50.1979L193.06 43.4819C193.46 43.3899 193.84 43.6209 193.92 43.9969C194 44.3729 193.73 44.7409 193.34 44.8329L161.96 51.8719Z" fill="#394D29"/>
<path d="M153.34 61.9728L146.03 34.1888C145.93 33.8208 146.18 33.4368 146.57 33.3288C146.96 33.2218 147.36 33.4288 147.46 33.7978L154.45 60.3848L184.2 55.3268C184.6 55.2568 184.98 55.5028 185.03 55.8868C185.08 56.2628 184.8 56.6238 184.4 56.6928L153.34 61.9728Z" fill="#394D29"/>
<path d="M146.34 69.6248L139.19 48.0488C139.07 47.6888 139.29 47.2898 139.68 47.1588C140.06 47.0288 140.48 47.2208 140.6 47.5738L147.38 68.0508L176.31 63.3998C176.72 63.3388 177.08 63.5838 177.13 63.9678C177.19 64.3438 176.9 64.7049 176.5 64.7659L146.34 69.6088V69.6248Z" fill="#394D29"/>
<path d="M139.88 76.4009L135.67 60.6059C135.57 60.2369 135.82 59.8529 136.21 59.7459C136.6 59.6379 137 59.8529 137.1 60.2139L141.01 74.9119L164.36 72.7629C164.77 72.7249 165.11 73.0089 165.14 73.3849C165.16 73.7689 164.85 74.1059 164.44 74.1449L139.87 76.4009H139.88Z" fill="#394D29"/>
<path d="M53.28 97.3549C39.06 93.0569 20.72 90.5699 0 106.136C10.05 124.71 23.42 129.936 39.46 131.625C55.5 133.314 72.38 115.868 72.38 115.868L53.29 97.3469L53.28 97.3549Z" fill="#385F4C"/>
<path d="M67.64 114.785C67.64 114.785 16.3799 105.875 2.68994 106.228C17.6799 109.313 65.8 116.413 65.8 116.413L67.64 114.785Z" fill="#394D29"/>
<path d="M13.11 118.362C12.83 118.461 12.51 118.362 12.35 118.093C12.16 117.794 12.25 117.402 12.55 117.218L24.38 109.965L16.15 100.087C15.93 99.8178 15.96 99.4188 16.24 99.1888C16.51 98.9658 16.91 99.0048 17.14 99.2728L26.3 110.279L13.21 118.3C13.21 118.3 13.14 118.346 13.1 118.354L13.11 118.362Z" fill="#394D29"/>
<path d="M22.38 121.18C22.12 121.272 21.8201 121.188 21.6501 120.95C21.4401 120.666 21.5101 120.267 21.7901 120.059L34.39 111.018L22.73 97.5328C22.5 97.2638 22.5301 96.8649 22.7901 96.6349C23.0601 96.4039 23.46 96.4349 23.69 96.7039L36.26 111.241L22.5301 121.096C22.4801 121.134 22.43 121.157 22.38 121.18Z" fill="#394D29"/>
<path d="M30.15 124.495C29.89 124.587 29.6 124.51 29.42 124.28C29.21 124.004 29.26 123.605 29.54 123.39L44.37 112.053L30.51 96.7179C30.27 96.4569 30.29 96.0579 30.55 95.8199C30.81 95.5819 31.2099 95.6049 31.4499 95.8659L46.23 112.23L30.3099 124.411C30.2499 124.449 30.19 124.48 30.14 124.503L30.15 124.495Z" fill="#394D29"/>
<path d="M39.01 127.895C38.77 127.979 38.4801 127.91 38.3001 127.703C38.0801 127.434 38.12 127.028 38.39 126.805L54.18 113.795L42.25 97.4929C42.04 97.2089 42.1 96.8099 42.39 96.6029C42.67 96.3959 43.07 96.4569 43.28 96.7409L55.9101 114.01L39.2 127.78C39.14 127.826 39.08 127.864 39.01 127.887V127.895Z" fill="#394D29"/>
<path d="M47.87 128.611C47.62 128.695 47.34 128.626 47.16 128.419C46.94 128.15 46.98 127.743 47.24 127.521L63.03 114.511L51.11 98.2089C50.9 97.9249 50.96 97.5259 51.24 97.3189C51.53 97.1109 51.93 97.1729 52.13 97.4569L64.77 114.726L48.0599 128.496C47.9999 128.542 47.94 128.58 47.87 128.603V128.611Z" fill="#394D29"/>
<path d="M67.21 71.8949C58.45 55.5699 39.14 35.9829 0.109985 41.3859C5.13999 87.6219 38.63 109.581 70.4 101.299C71.15 101.107 72.73 99.7789 72.73 99.7789C72.73 99.7789 75.96 88.2199 67.21 71.8949Z" fill="#3C7240"/>
<path d="M72.73 99.7838C72.73 99.7838 20.26 53.5408 4.77002 44.5598C20.01 61.4308 70.98 100.974 70.98 100.974L72.73 99.7838Z" fill="#394D29"/>
<path d="M22.61 60.1469L7.16004 61.9129C6.81004 61.9509 6.47994 61.6819 6.42994 61.3059C6.36994 60.9299 6.61997 60.5919 6.95997 60.5539L20.99 58.9499L16.97 43.2459C16.88 42.8779 17.0899 42.5249 17.4299 42.4329C17.7699 42.3479 18.12 42.5789 18.22 42.9469L22.61 60.1469Z" fill="#394D29"/>
<path d="M32.99 68.6879L11.8199 73.0549C11.4699 73.1239 11.13 72.8859 11.04 72.5169C10.96 72.1489 11.17 71.7879 11.52 71.7189L31.48 67.6049L26.88 44.3419C26.81 43.9729 27.04 43.6199 27.38 43.5589C27.73 43.4969 28.07 43.7509 28.14 44.1189L33 68.6879H32.99Z" fill="#394D29"/>
<path d="M43.38 76.1969L17.71 82.1829C17.37 82.2599 17.0101 82.0299 16.9201 81.6609C16.8301 81.2929 17.04 80.9319 17.37 80.8479L41.81 75.1449L35.06 47.5219C34.97 47.1529 35.1801 46.7929 35.5201 46.7159C35.8701 46.6389 36.22 46.8769 36.31 47.2459L43.38 76.1969Z" fill="#394D29"/>
<path d="M52.8901 83.9999L27.2801 91.2529C26.9401 91.3449 26.58 91.1299 26.48 90.7699C26.37 90.4089 26.5501 90.0329 26.9001 89.9409L51.4101 83.0019L46.21 55.5329C46.14 55.1639 46.36 54.8109 46.72 54.7569C47.06 54.6959 47.41 54.9569 47.48 55.3249L52.9101 84.0079L52.8901 83.9999Z" fill="#394D29"/>
<path d="M60.11 90.3559L40.24 97.3559C39.91 97.4709 39.54 97.2789 39.42 96.9179C39.29 96.5649 39.45 96.1819 39.78 96.0589L58.63 89.4199L53.8199 62.6949C53.7499 62.3259 53.98 61.9729 54.33 61.9269C54.67 61.8729 55.01 62.1339 55.08 62.5029L60.09 90.3559H60.11Z" fill="#394D29"/>
<path d="M66.4999 96.2289L51.9399 100.405C51.5999 100.505 51.24 100.282 51.14 99.9209C51.03 99.5599 51.22 99.1839 51.55 99.0849L65.0999 95.2009L62.6999 73.6029C62.6599 73.2269 62.92 72.8969 63.26 72.8739C63.62 72.8509 63.9399 73.1269 63.9799 73.5029L66.4899 96.2219L66.4999 96.2289Z" fill="#394D29"/>
<path d="M48.99 191.731C55.75 168.13 107.89 139.017 107.89 139.017C107.89 139.017 73.23 135.379 62.01 148.074C57.56 153.117 59.5801 165.789 53.4201 166.771C47.2701 167.753 43.98 124.097 93.43 111.01C83.21 99.6509 38.2 114.196 26.52 139.877C19.87 134.443 26.19 104.847 66.75 95.3449C46.87 89.4199 22.43 91.1549 22.07 85.5819C21.71 80.0099 55.8 72.8409 77.15 78.0909C59.29 68.3819 44.63 55.5639 48.26 51.9489C51.89 48.3419 106.21 59.1639 125.08 101.631C115.92 70.6079 96.04 54.7279 86.68 48.8559C77.33 42.9849 75.27 33.3519 78.9 29.7449C82.53 26.1369 125.2 33.1829 131.17 100.234C129.06 34.3039 143.25 1.28487 153.19 1.00087C163.14 0.71687 135.81 70.0399 136.67 114.948C151.04 63.2779 186.69 32.9069 201.07 34.0739C215.46 35.2399 152.34 91.2239 144.47 127.566C163.15 102.928 204.6 75.9579 218.21 85.4829C231.83 95.0069 166.88 129.623 159.17 137.344C196.56 124.45 258.97 169.496 258.97 169.496L50.25 202.799L49.01 191.739L48.99 191.731Z" stroke="white" stroke-miterlimit="10"/>
<path d="M187.73 79.1819C181.5 81.4149 190.55 85.2369 188.16 87.1559C185.78 89.0749 179.36 82.0519 178.76 87.9079C178.16 93.7649 186.9 90.8329 187.58 92.6439C188.26 94.4549 177.66 97.7859 182.81 101.194C187.96 104.594 187.13 96.6659 191.36 96.7579C195.6 96.8499 195.59 106.72 200.67 102.461C205.75 98.1929 196.64 95.2769 198.15 92.7359C199.66 90.1959 206.45 93.4579 206.55 89.2209C206.64 84.9839 201.17 80.4329 196.25 85.6209C190.81 91.3309 199.36 75.0369 187.74 79.1889L187.73 79.1819Z" stroke="white" stroke-miterlimit="10"/>
<path d="M190.49 90.1288C191.08 89.6678 191.24 88.8908 190.85 88.3948C190.46 87.8988 189.66 87.8708 189.08 88.3328C188.49 88.7938 188.33 89.5708 188.72 90.0668C189.11 90.5628 189.91 90.5908 190.49 90.1288Z" stroke="white" stroke-miterlimit="10"/>
<path d="M193.68 90.2799C194.16 89.8959 194.29 89.2519 193.96 88.8409C193.63 88.4309 192.97 88.4089 192.49 88.7929C192.01 89.1769 191.89 89.8209 192.22 90.2309C192.55 90.6419 193.2 90.6639 193.68 90.2799Z" stroke="white" stroke-miterlimit="10"/>
<path d="M191.56 93.1009C192.16 92.9869 192.57 92.4749 192.47 91.9589C192.38 91.4419 191.81 91.1159 191.2 91.2299C190.6 91.3439 190.19 91.8559 190.29 92.3719C190.38 92.8889 190.95 93.2149 191.56 93.1009Z" stroke="white" stroke-miterlimit="10"/>
<path d="M194.92 92.4759C195.32 92.0079 195.31 91.3518 194.91 91.0118C194.51 90.6718 193.86 90.7758 193.47 91.2448C193.07 91.7138 193.07 92.3698 193.47 92.7098C193.87 93.0498 194.52 92.9449 194.92 92.4759Z" stroke="white" stroke-miterlimit="10"/>
<path d="M70.84 99.7058C65.77 108.517 80.1601 103.996 79.2801 108.601C78.4001 113.214 63.9101 111.395 69.0301 118.84C74.1501 126.285 81.46 114.158 84.06 115.609C86.65 117.059 77.58 131.497 86.99 130.353C96.4 129.209 87.52 120.767 92.58 116.66C97.63 112.554 107.43 124.121 109.13 114.074C110.83 104.035 97.26 109.684 96.5 105.201C95.74 100.719 106.94 97.7788 102.83 92.7368C98.72 87.6858 87.8 87.8009 87.19 98.7689C86.52 110.858 80.31 83.2808 70.85 99.7058H70.84Z" stroke="white" stroke-miterlimit="10"/>
<path d="M84.84 109.708C85.07 108.586 84.4801 107.521 83.5301 107.33C82.5801 107.138 81.6201 107.892 81.4001 109.014C81.1701 110.136 81.76 111.201 82.71 111.393C83.66 111.584 84.62 110.83 84.84 109.708Z" stroke="white" stroke-miterlimit="10"/>
<path d="M88.9399 106.826C89.1199 105.898 88.63 105.021 87.84 104.868C87.04 104.715 86.2599 105.342 86.0799 106.27C85.8999 107.198 86.3899 108.075 87.1799 108.228C87.9699 108.382 88.7599 107.754 88.9399 106.826Z" stroke="white" stroke-miterlimit="10"/>
<path d="M89.25 112.32C89.84 111.588 89.8099 110.582 89.1799 110.074C88.55 109.565 87.56 109.746 86.97 110.479C86.38 111.211 86.4101 112.217 87.0401 112.725C87.6701 113.234 88.66 113.053 89.25 112.32Z" stroke="white" stroke-miterlimit="10"/>
<path d="M91.11 109.87C91.92 109.869 92.5799 109.105 92.5799 108.164C92.5799 107.223 91.92 106.461 91.11 106.462C90.3 106.464 89.64 107.227 89.65 108.168C89.65 109.109 90.3 109.871 91.11 109.87Z" stroke="white" stroke-miterlimit="10"/>
<path d="M132.42 128.671C136.28 133.86 137.28 124.319 139.75 126C142.21 127.681 137.48 135.679 143.12 134.573C148.77 133.468 143.54 126.131 145.04 124.987C146.55 123.843 152.67 132.785 154.38 127.013C156.09 121.234 148.93 124.273 147.81 120.29C146.69 116.306 155.92 113.512 150.48 109.974C145.06 106.444 144.92 115.784 142.11 115.094C139.3 114.403 140.42 107.127 136.44 108.247C132.46 109.368 129.75 115.761 136 118.9C142.88 122.354 125.22 119 132.41 128.679L132.42 128.671Z" fill="white"/>
<path d="M142.3 124.712C142.65 124.204 142.45 123.454 141.86 123.038C141.26 122.621 140.49 122.695 140.13 123.203C139.78 123.711 139.98 124.461 140.57 124.877C141.17 125.294 141.95 125.219 142.3 124.712Z" fill="#D4633A"/>
<path d="M141.48 121.288C141.77 120.865 141.6 120.246 141.11 119.905C140.61 119.565 139.97 119.632 139.68 120.055C139.39 120.478 139.56 121.097 140.06 121.437C140.55 121.778 141.19 121.711 141.48 121.288Z" fill="#D4633A"/>
<path d="M144.13 122.618C144.58 122.38 144.72 121.758 144.45 121.228C144.17 120.699 143.58 120.462 143.12 120.7C142.67 120.938 142.52 121.56 142.8 122.089C143.08 122.619 143.67 122.856 144.13 122.618Z" fill="#D4633A"/>
<path d="M143.42 119.368C143.62 118.897 143.34 118.323 142.79 118.086C142.25 117.849 141.64 118.038 141.43 118.509C141.23 118.98 141.51 119.554 142.06 119.791C142.61 120.028 143.22 119.838 143.42 119.368Z" fill="#D4633A"/>
<path d="M126.81 68.4269C122.13 76.4629 135.31 72.3949 134.48 76.6089C133.65 80.8219 120.41 79.0879 125.05 85.9269C129.7 92.7649 136.45 81.6969 138.81 83.0409C141.18 84.3839 132.81 97.5469 141.42 96.5409C150.03 95.5359 141.96 87.7759 146.6 84.0379C151.24 80.3009 160.16 90.9309 161.76 81.7509C163.36 72.5719 150.93 77.6829 150.25 73.5769C149.57 69.4709 159.83 66.8379 156.1 62.2019C152.36 57.5659 142.37 57.6199 141.76 67.6519C141.08 78.7039 135.53 53.4529 126.8 68.4349L126.81 68.4269Z" fill="white"/>
<path d="M139.59 77.6588C139.8 76.6328 139.27 75.6559 138.4 75.4759C137.53 75.2959 136.65 75.9809 136.44 77.0059C136.22 78.0309 136.76 79.0088 137.63 79.1888C138.5 79.3688 139.38 78.6838 139.59 77.6588Z" fill="#D4633A"/>
<path d="M143.38 75.0448C143.55 74.1968 143.1 73.3928 142.37 73.2478C141.65 73.1038 140.93 73.6748 140.76 74.5228C140.59 75.3708 141.04 76.1748 141.76 76.3198C142.48 76.4638 143.21 75.8928 143.38 75.0448Z" fill="#D4633A"/>
<path d="M143.6 80.0638C144.14 79.3968 144.12 78.4788 143.55 78.0128C142.98 77.5458 142.07 77.7088 141.53 78.3748C140.98 79.0418 141.01 79.9598 141.58 80.4268C142.15 80.8928 143.05 80.7308 143.6 80.0638Z" fill="#D4633A"/>
<path d="M146.72 76.2719C146.72 75.4109 146.12 74.7109 145.38 74.7079C144.64 74.7059 144.04 75.4009 144.03 76.2609C144.03 77.1219 144.63 77.8219 145.37 77.8239C146.11 77.8269 146.72 77.1319 146.72 76.2719Z" fill="#D4633A"/>
<path d="M106.16 51.4879C100.12 48.0419 91.14 50.8279 91.95 53.1379C92.75 55.4479 106.5 52.7539 106.5 52.7539C97.4601 57.9509 99.77 64.2979 101.48 64.9039C103.17 65.5109 107.47 53.1149 107.47 53.1149C107.47 53.1149 106.92 67.9969 111.06 68.3119C115.22 68.6269 108.7 52.9159 108.7 52.9159C108.7 52.9159 117.89 63.7609 121.12 60.9669C124.36 58.1729 110.29 52.8389 110.29 52.8389C110.29 52.8389 125 56.5839 125.1 51.6569C125.2 46.7369 110.8 51.9329 110.8 51.9329C110.8 51.9329 124.47 46.6059 120.64 43.0909C116.8 39.5759 108.98 51.0969 108.98 51.0969C108.98 51.0969 114.68 41.4789 110.78 40.8269C106.88 40.1749 106.16 51.4959 106.16 51.4959V51.4879Z" fill="#D87B60"/>
<path d="M36.6799 107.864C38.5199 104.464 36.8499 99.4979 35.5799 99.9739C34.2999 100.45 35.97 108.072 35.97 108.072C32.97 103.113 29.46 104.472 29.15 105.431C28.83 106.383 35.78 108.617 35.78 108.617C35.78 108.617 27.49 108.494 27.37 110.804C27.24 113.114 35.91 109.292 35.91 109.292C35.91 109.292 29.9899 114.534 31.5899 116.307C33.1799 118.073 35.98 110.182 35.98 110.182C35.98 110.182 34.0699 118.418 36.8099 118.41C39.5499 118.41 36.48 110.451 36.48 110.451C36.48 110.451 39.61 117.996 41.53 115.816C43.44 113.636 36.9299 109.43 36.9299 109.43C36.9299 109.43 42.35 112.485 42.67 110.305C42.98 108.125 36.6799 107.864 36.6799 107.864Z" fill="#D87B60"/>
<path d="M57.1799 75.4018C55.8999 68.7698 61.49 69.1848 64.24 70.8348C66.99 72.4848 69.43 73.1758 70.16 71.4948C70.89 69.8058 67.9499 68.1788 64.8199 67.9718C61.6899 67.7648 60.06 65.2778 64.03 62.3918C68.01 59.5058 70.29 60.4198 69.89 64.0578C69.5 67.6958 70.82 68.5248 71.79 68.0028C72.77 67.4808 73.29 66.4218 73.13 63.6508C72.98 60.8798 76.2 58.7848 79.54 61.3558C82.87 63.9268 82.87 67.7188 78.27 68.5858C73.68 69.4528 72.39 72.6538 76.67 73.1678C81.08 73.6978 85.92 70.2518 84.34 77.9958C83.11 83.9978 80.16 84.4968 77.39 82.6468C74.62 80.7968 76.9899 76.4148 74.3099 76.8518C71.6299 77.2818 72.19 79.5078 72.85 82.5168C73.51 85.5248 75.2799 87.5978 69.8099 88.3728C64.3499 89.1558 61.23 83.7598 64.55 82.4478C67.88 81.1348 70.32 80.3368 69.61 78.4328C68.91 76.5298 65.53 78.1418 63.61 79.3768C61.69 80.6128 58.5199 82.4008 57.1799 75.3938V75.4018Z" fill="#F7CD9C"/>
<path d="M73.52 74.2769C73.61 73.0679 72.87 72.0289 71.87 71.9549C70.87 71.8819 69.99 72.8029 69.9 74.0119C69.81 75.2209 70.55 76.2608 71.55 76.3338C72.55 76.4068 73.43 75.4859 73.52 74.2769Z" fill="#DD7895"/>
</svg>
